%TF.GenerationSoftware,KiCad,Pcbnew,(6.0.6)*%
%TF.CreationDate,2022-08-06T13:42:41-04:00*%
%TF.ProjectId,Test,54657374-2e6b-4696-9361-645f70636258,rev?*%
%TF.SameCoordinates,Original*%
%TF.FileFunction,Copper,L1,Top*%
%TF.FilePolarity,Positive*%
%FSLAX46Y46*%
G04 Gerber Fmt 4.6, Leading zero omitted, Abs format (unit mm)*
G04 Created by KiCad (PCBNEW (6.0.6)) date 2022-08-06 13:42:41*
%MOMM*%
%LPD*%
G01*
G04 APERTURE LIST*
%TA.AperFunction,ComponentPad*%
%ADD10R,1.600000X1.600000*%
%TD*%
%TA.AperFunction,ComponentPad*%
%ADD11O,1.600000X1.600000*%
%TD*%
%TA.AperFunction,ComponentPad*%
%ADD12C,1.600000*%
%TD*%
%TA.AperFunction,ComponentPad*%
%ADD13R,3.000000X3.000000*%
%TD*%
%TA.AperFunction,ComponentPad*%
%ADD14C,3.000000*%
%TD*%
%TA.AperFunction,ComponentPad*%
%ADD15R,1.800000X1.800000*%
%TD*%
%TA.AperFunction,ComponentPad*%
%ADD16C,1.800000*%
%TD*%
%TA.AperFunction,Conductor*%
%ADD17C,1.000000*%
%TD*%
G04 APERTURE END LIST*
D10*
%TO.P,U1,1,GND*%
%TO.N,GND*%
X113210000Y-93070000D03*
D11*
%TO.P,U1,2,TR*%
%TO.N,Net-(U1-Pad6)*%
X113210000Y-95610000D03*
%TO.P,U1,3,Q*%
%TO.N,Net-(U1-Pad3)*%
X113210000Y-98150000D03*
%TO.P,U1,4,R*%
%TO.N,+9V*%
X113210000Y-100690000D03*
%TO.P,U1,5,CV*%
%TO.N,unconnected-(U1-Pad5)*%
X120830000Y-100690000D03*
%TO.P,U1,6,THR*%
%TO.N,Net-(U1-Pad6)*%
X120830000Y-98150000D03*
%TO.P,U1,7,DIS*%
%TO.N,Net-(U1-Pad7)*%
X120830000Y-95610000D03*
%TO.P,U1,8,VCC*%
%TO.N,+9V*%
X120830000Y-93070000D03*
%TD*%
%TO.P,R3,2*%
%TO.N,Net-(R3-Pad2)*%
X123190000Y-88900000D03*
D12*
%TO.P,R3,1*%
%TO.N,Net-(U1-Pad3)*%
X113030000Y-88900000D03*
%TD*%
%TO.P,R2,1*%
%TO.N,+9V*%
X123190000Y-85090000D03*
D11*
%TO.P,R2,2*%
%TO.N,Net-(U1-Pad7)*%
X113030000Y-85090000D03*
%TD*%
D12*
%TO.P,R1,1*%
%TO.N,Net-(U1-Pad6)*%
X109855000Y-95250000D03*
D11*
%TO.P,R1,2*%
%TO.N,Net-(U1-Pad7)*%
X109855000Y-85090000D03*
%TD*%
D13*
%TO.P,J1,1,Pin_1*%
%TO.N,GND*%
X103505000Y-91440000D03*
D14*
%TO.P,J1,2,Pin_2*%
%TO.N,+9V*%
X103505000Y-96520000D03*
%TD*%
D15*
%TO.P,D1,1,K*%
%TO.N,GND*%
X126365000Y-95885000D03*
D16*
%TO.P,D1,2,A*%
%TO.N,Net-(R3-Pad2)*%
X126365000Y-93345000D03*
%TD*%
D12*
%TO.P,C1,1*%
%TO.N,Net-(U1-Pad6)*%
X124460000Y-100330000D03*
%TO.P,C1,2*%
%TO.N,GND*%
X126960000Y-100330000D03*
%TD*%
D17*
%TO.N,+9V*%
X120830000Y-87450000D02*
X120830000Y-93070000D01*
X123190000Y-85090000D02*
X120830000Y-87450000D01*
X115160000Y-87400000D02*
X120830000Y-93070000D01*
X107315000Y-92075000D02*
X111990000Y-87400000D01*
X111990000Y-87400000D02*
X115160000Y-87400000D01*
X107315000Y-92710000D02*
X107315000Y-92075000D01*
X103505000Y-96520000D02*
X107315000Y-92710000D01*
%TO.N,Net-(U1-Pad3)*%
X114935000Y-90805000D02*
X113030000Y-88900000D01*
X114935000Y-96520000D02*
X114935000Y-90805000D01*
X114840000Y-96520000D02*
X114935000Y-96520000D01*
X113210000Y-98150000D02*
X114840000Y-96520000D01*
%TO.N,Net-(U1-Pad7)*%
X123010000Y-97790000D02*
X120830000Y-95610000D01*
X128270000Y-87630000D02*
X128270000Y-97790000D01*
X123190000Y-82550000D02*
X128270000Y-87630000D01*
X128270000Y-97790000D02*
X123010000Y-97790000D01*
X114935000Y-82550000D02*
X123190000Y-82550000D01*
X114300000Y-83185000D02*
X114935000Y-82550000D01*
X114300000Y-83820000D02*
X114300000Y-83185000D01*
X113030000Y-85090000D02*
X114300000Y-83820000D01*
X109855000Y-85090000D02*
X113030000Y-85090000D01*
%TO.N,Net-(U1-Pad6)*%
X113210000Y-95610000D02*
X112850000Y-95250000D01*
X109855000Y-95250000D02*
X112850000Y-95250000D01*
X109855000Y-100644262D02*
X109855000Y-95250000D01*
X117871321Y-98150000D02*
X113831321Y-102190000D01*
X113831321Y-102190000D02*
X111400738Y-102190000D01*
X111400738Y-102190000D02*
X109855000Y-100644262D01*
X120830000Y-98150000D02*
X117871321Y-98150000D01*
%TO.N,+9V*%
X113210000Y-100690000D02*
X120830000Y-93070000D01*
%TO.N,Net-(U1-Pad6)*%
X124460000Y-100330000D02*
X123010000Y-100330000D01*
X123010000Y-100330000D02*
X120830000Y-98150000D01*
%TO.N,Net-(R3-Pad2)*%
X123190000Y-88900000D02*
X123190000Y-90170000D01*
X123190000Y-90170000D02*
X126365000Y-93345000D01*
%TD*%
M02*
