M48
; DRILL file {KiCad (6.0.6)} date Sat Aug  6 13:42:45 2022
; FORMAT={-:-/ absolute / inch / decimal}
; #@! TF.CreationDate,2022-08-06T13:42:45-04:00
; #@! TF.GenerationSoftware,Kicad,Pcbnew,(6.0.6)
; #@! TF.FileFunction,Plated,1,2,PTH
FMAT,2
INCH
; #@! TA.AperFunction,Plated,PTH,ComponentDrill
T1C0.0315
; #@! TA.AperFunction,Plated,PTH,ComponentDrill
T2C0.0354
; #@! TA.AperFunction,Plated,PTH,ComponentDrill
T3C0.0598
%
G90
G05
T1
X4.325Y-3.35
X4.325Y-3.75
X4.45Y-3.35
X4.45Y-3.5
X4.4571Y-3.6642
X4.4571Y-3.7642
X4.4571Y-3.8642
X4.4571Y-3.9642
X4.7571Y-3.6642
X4.7571Y-3.7642
X4.7571Y-3.8642
X4.7571Y-3.9642
X4.85Y-3.35
X4.85Y-3.5
X4.9Y-3.95
X4.9984Y-3.95
T2
X4.975Y-3.675
X4.975Y-3.775
T3
X4.075Y-3.6
X4.075Y-3.8
T0
M30
