%TF.GenerationSoftware,KiCad,Pcbnew,(6.0.6)*%
%TF.CreationDate,2022-08-06T13:42:41-04:00*%
%TF.ProjectId,Test,54657374-2e6b-4696-9361-645f70636258,rev?*%
%TF.SameCoordinates,Original*%
%TF.FileFunction,Copper,L2,Bot*%
%TF.FilePolarity,Positive*%
%FSLAX46Y46*%
G04 Gerber Fmt 4.6, Leading zero omitted, Abs format (unit mm)*
G04 Created by KiCad (PCBNEW (6.0.6)) date 2022-08-06 13:42:41*
%MOMM*%
%LPD*%
G01*
G04 APERTURE LIST*
%TA.AperFunction,ComponentPad*%
%ADD10R,1.600000X1.600000*%
%TD*%
%TA.AperFunction,ComponentPad*%
%ADD11O,1.600000X1.600000*%
%TD*%
%TA.AperFunction,ComponentPad*%
%ADD12C,1.600000*%
%TD*%
%TA.AperFunction,ComponentPad*%
%ADD13R,3.000000X3.000000*%
%TD*%
%TA.AperFunction,ComponentPad*%
%ADD14C,3.000000*%
%TD*%
%TA.AperFunction,ComponentPad*%
%ADD15R,1.800000X1.800000*%
%TD*%
%TA.AperFunction,ComponentPad*%
%ADD16C,1.800000*%
%TD*%
G04 APERTURE END LIST*
D10*
%TO.P,U1,1,GND*%
%TO.N,GND*%
X113210000Y-93070000D03*
D11*
%TO.P,U1,2,TR*%
%TO.N,Net-(U1-Pad6)*%
X113210000Y-95610000D03*
%TO.P,U1,3,Q*%
%TO.N,Net-(U1-Pad3)*%
X113210000Y-98150000D03*
%TO.P,U1,4,R*%
%TO.N,+9V*%
X113210000Y-100690000D03*
%TO.P,U1,5,CV*%
%TO.N,unconnected-(U1-Pad5)*%
X120830000Y-100690000D03*
%TO.P,U1,6,THR*%
%TO.N,Net-(U1-Pad6)*%
X120830000Y-98150000D03*
%TO.P,U1,7,DIS*%
%TO.N,Net-(U1-Pad7)*%
X120830000Y-95610000D03*
%TO.P,U1,8,VCC*%
%TO.N,+9V*%
X120830000Y-93070000D03*
%TD*%
%TO.P,R3,2*%
%TO.N,Net-(R3-Pad2)*%
X123190000Y-88900000D03*
D12*
%TO.P,R3,1*%
%TO.N,Net-(U1-Pad3)*%
X113030000Y-88900000D03*
%TD*%
%TO.P,R2,1*%
%TO.N,+9V*%
X123190000Y-85090000D03*
D11*
%TO.P,R2,2*%
%TO.N,Net-(U1-Pad7)*%
X113030000Y-85090000D03*
%TD*%
D12*
%TO.P,R1,1*%
%TO.N,Net-(U1-Pad6)*%
X109855000Y-95250000D03*
D11*
%TO.P,R1,2*%
%TO.N,Net-(U1-Pad7)*%
X109855000Y-85090000D03*
%TD*%
D13*
%TO.P,J1,1,Pin_1*%
%TO.N,GND*%
X103505000Y-91440000D03*
D14*
%TO.P,J1,2,Pin_2*%
%TO.N,+9V*%
X103505000Y-96520000D03*
%TD*%
D15*
%TO.P,D1,1,K*%
%TO.N,GND*%
X126365000Y-95885000D03*
D16*
%TO.P,D1,2,A*%
%TO.N,Net-(R3-Pad2)*%
X126365000Y-93345000D03*
%TD*%
D12*
%TO.P,C1,1*%
%TO.N,Net-(U1-Pad6)*%
X124460000Y-100330000D03*
%TO.P,C1,2*%
%TO.N,GND*%
X126960000Y-100330000D03*
%TD*%
%TA.AperFunction,Conductor*%
%TO.N,GND*%
G36*
X135197121Y-79395002D02*
G01*
X135243614Y-79448658D01*
X135255000Y-79501000D01*
X135255000Y-107824000D01*
X135234998Y-107892121D01*
X135181342Y-107938614D01*
X135129000Y-107950000D01*
X99186000Y-107950000D01*
X99117879Y-107929998D01*
X99071386Y-107876342D01*
X99060000Y-107824000D01*
X99060000Y-104272703D01*
X101395743Y-104272703D01*
X101433268Y-104557734D01*
X101509129Y-104835036D01*
X101621923Y-105099476D01*
X101769561Y-105346161D01*
X101949313Y-105570528D01*
X101966397Y-105586740D01*
X102146656Y-105757799D01*
X102157851Y-105768423D01*
X102391317Y-105936186D01*
X102395112Y-105938195D01*
X102395113Y-105938196D01*
X102416869Y-105949715D01*
X102645392Y-106070712D01*
X102915373Y-106169511D01*
X103196264Y-106230755D01*
X103224841Y-106233004D01*
X103419282Y-106248307D01*
X103419291Y-106248307D01*
X103421739Y-106248500D01*
X103577271Y-106248500D01*
X103579407Y-106248354D01*
X103579418Y-106248354D01*
X103787548Y-106234165D01*
X103787554Y-106234164D01*
X103791825Y-106233873D01*
X103796020Y-106233004D01*
X103796022Y-106233004D01*
X103944837Y-106202186D01*
X104073342Y-106175574D01*
X104344343Y-106079607D01*
X104507077Y-105995614D01*
X104596005Y-105949715D01*
X104596006Y-105949715D01*
X104599812Y-105947750D01*
X104603313Y-105945289D01*
X104603317Y-105945287D01*
X104717418Y-105865095D01*
X104835023Y-105782441D01*
X105045622Y-105586740D01*
X105227713Y-105364268D01*
X105377927Y-105119142D01*
X105468878Y-104911951D01*
X105470743Y-104907703D01*
X129335743Y-104907703D01*
X129373268Y-105192734D01*
X129449129Y-105470036D01*
X129561923Y-105734476D01*
X129592104Y-105784904D01*
X129681144Y-105933679D01*
X129709561Y-105981161D01*
X129889313Y-106205528D01*
X130097851Y-106403423D01*
X130331317Y-106571186D01*
X130335112Y-106573195D01*
X130335113Y-106573196D01*
X130356869Y-106584715D01*
X130585392Y-106705712D01*
X130855373Y-106804511D01*
X131136264Y-106865755D01*
X131164841Y-106868004D01*
X131359282Y-106883307D01*
X131359291Y-106883307D01*
X131361739Y-106883500D01*
X131517271Y-106883500D01*
X131519407Y-106883354D01*
X131519418Y-106883354D01*
X131727548Y-106869165D01*
X131727554Y-106869164D01*
X131731825Y-106868873D01*
X131736020Y-106868004D01*
X131736022Y-106868004D01*
X131872584Y-106839723D01*
X132013342Y-106810574D01*
X132284343Y-106714607D01*
X132539812Y-106582750D01*
X132543313Y-106580289D01*
X132543317Y-106580287D01*
X132657418Y-106500095D01*
X132775023Y-106417441D01*
X132972251Y-106234165D01*
X132982479Y-106224661D01*
X132982481Y-106224658D01*
X132985622Y-106221740D01*
X133167713Y-105999268D01*
X133317927Y-105754142D01*
X133433483Y-105490898D01*
X133512244Y-105214406D01*
X133552751Y-104929784D01*
X133552845Y-104911951D01*
X133554235Y-104646583D01*
X133554235Y-104646576D01*
X133554257Y-104642297D01*
X133516732Y-104357266D01*
X133440871Y-104079964D01*
X133328077Y-103815524D01*
X133180439Y-103568839D01*
X133000687Y-103344472D01*
X132827922Y-103180524D01*
X132795258Y-103149527D01*
X132795255Y-103149525D01*
X132792149Y-103146577D01*
X132558683Y-102978814D01*
X132536843Y-102967250D01*
X132433275Y-102912414D01*
X132304608Y-102844288D01*
X132034627Y-102745489D01*
X131753736Y-102684245D01*
X131722685Y-102681801D01*
X131530718Y-102666693D01*
X131530709Y-102666693D01*
X131528261Y-102666500D01*
X131372729Y-102666500D01*
X131370593Y-102666646D01*
X131370582Y-102666646D01*
X131162452Y-102680835D01*
X131162446Y-102680836D01*
X131158175Y-102681127D01*
X131153980Y-102681996D01*
X131153978Y-102681996D01*
X131035532Y-102706525D01*
X130876658Y-102739426D01*
X130605657Y-102835393D01*
X130601848Y-102837359D01*
X130421406Y-102930492D01*
X130350188Y-102967250D01*
X130346687Y-102969711D01*
X130346683Y-102969713D01*
X130336594Y-102976804D01*
X130114977Y-103132559D01*
X129904378Y-103328260D01*
X129722287Y-103550732D01*
X129572073Y-103795858D01*
X129570347Y-103799791D01*
X129570346Y-103799792D01*
X129479258Y-104007297D01*
X129456517Y-104059102D01*
X129377756Y-104335594D01*
X129374672Y-104357266D01*
X129342470Y-104583534D01*
X129337249Y-104620216D01*
X129337227Y-104624505D01*
X129337226Y-104624512D01*
X129335765Y-104903417D01*
X129335743Y-104907703D01*
X105470743Y-104907703D01*
X105491757Y-104859830D01*
X105493483Y-104855898D01*
X105572244Y-104579406D01*
X105606943Y-104335594D01*
X105612146Y-104299036D01*
X105612146Y-104299034D01*
X105612751Y-104294784D01*
X105612845Y-104276951D01*
X105614235Y-104011583D01*
X105614235Y-104011576D01*
X105614257Y-104007297D01*
X105576732Y-103722266D01*
X105500871Y-103444964D01*
X105388077Y-103180524D01*
X105313527Y-103055960D01*
X105242643Y-102937521D01*
X105242640Y-102937517D01*
X105240439Y-102933839D01*
X105060687Y-102709472D01*
X104852149Y-102511577D01*
X104618683Y-102343814D01*
X104596843Y-102332250D01*
X104573654Y-102319972D01*
X104364608Y-102209288D01*
X104094627Y-102110489D01*
X103813736Y-102049245D01*
X103782685Y-102046801D01*
X103590718Y-102031693D01*
X103590709Y-102031693D01*
X103588261Y-102031500D01*
X103432729Y-102031500D01*
X103430593Y-102031646D01*
X103430582Y-102031646D01*
X103222452Y-102045835D01*
X103222446Y-102045836D01*
X103218175Y-102046127D01*
X103213980Y-102046996D01*
X103213978Y-102046996D01*
X103077416Y-102075277D01*
X102936658Y-102104426D01*
X102665657Y-102200393D01*
X102410188Y-102332250D01*
X102406687Y-102334711D01*
X102406683Y-102334713D01*
X102396594Y-102341804D01*
X102174977Y-102497559D01*
X102159892Y-102511577D01*
X101973097Y-102685158D01*
X101964378Y-102693260D01*
X101782287Y-102915732D01*
X101632073Y-103160858D01*
X101516517Y-103424102D01*
X101437756Y-103700594D01*
X101397249Y-103985216D01*
X101397227Y-103989505D01*
X101397226Y-103989512D01*
X101395765Y-104268417D01*
X101395743Y-104272703D01*
X99060000Y-104272703D01*
X99060000Y-100690000D01*
X111896502Y-100690000D01*
X111916457Y-100918087D01*
X111917881Y-100923400D01*
X111917881Y-100923402D01*
X111935995Y-100991002D01*
X111975716Y-101139243D01*
X111978039Y-101144224D01*
X111978039Y-101144225D01*
X112070151Y-101341762D01*
X112070154Y-101341767D01*
X112072477Y-101346749D01*
X112075634Y-101351257D01*
X112154834Y-101464366D01*
X112203802Y-101534300D01*
X112365700Y-101696198D01*
X112370208Y-101699355D01*
X112370211Y-101699357D01*
X112448389Y-101754098D01*
X112553251Y-101827523D01*
X112558233Y-101829846D01*
X112558238Y-101829849D01*
X112755775Y-101921961D01*
X112760757Y-101924284D01*
X112766065Y-101925706D01*
X112766067Y-101925707D01*
X112976598Y-101982119D01*
X112976600Y-101982119D01*
X112981913Y-101983543D01*
X113210000Y-102003498D01*
X113438087Y-101983543D01*
X113443400Y-101982119D01*
X113443402Y-101982119D01*
X113653933Y-101925707D01*
X113653935Y-101925706D01*
X113659243Y-101924284D01*
X113664225Y-101921961D01*
X113861762Y-101829849D01*
X113861767Y-101829846D01*
X113866749Y-101827523D01*
X113971611Y-101754098D01*
X114049789Y-101699357D01*
X114049792Y-101699355D01*
X114054300Y-101696198D01*
X114216198Y-101534300D01*
X114265167Y-101464366D01*
X114344366Y-101351257D01*
X114347523Y-101346749D01*
X114349846Y-101341767D01*
X114349849Y-101341762D01*
X114441961Y-101144225D01*
X114441961Y-101144224D01*
X114444284Y-101139243D01*
X114484006Y-100991002D01*
X114502119Y-100923402D01*
X114502119Y-100923400D01*
X114503543Y-100918087D01*
X114523498Y-100690000D01*
X119516502Y-100690000D01*
X119536457Y-100918087D01*
X119537881Y-100923400D01*
X119537881Y-100923402D01*
X119555995Y-100991002D01*
X119595716Y-101139243D01*
X119598039Y-101144224D01*
X119598039Y-101144225D01*
X119690151Y-101341762D01*
X119690154Y-101341767D01*
X119692477Y-101346749D01*
X119695634Y-101351257D01*
X119774834Y-101464366D01*
X119823802Y-101534300D01*
X119985700Y-101696198D01*
X119990208Y-101699355D01*
X119990211Y-101699357D01*
X120068389Y-101754098D01*
X120173251Y-101827523D01*
X120178233Y-101829846D01*
X120178238Y-101829849D01*
X120375775Y-101921961D01*
X120380757Y-101924284D01*
X120386065Y-101925706D01*
X120386067Y-101925707D01*
X120596598Y-101982119D01*
X120596600Y-101982119D01*
X120601913Y-101983543D01*
X120830000Y-102003498D01*
X121058087Y-101983543D01*
X121063400Y-101982119D01*
X121063402Y-101982119D01*
X121273933Y-101925707D01*
X121273935Y-101925706D01*
X121279243Y-101924284D01*
X121284225Y-101921961D01*
X121481762Y-101829849D01*
X121481767Y-101829846D01*
X121486749Y-101827523D01*
X121591611Y-101754098D01*
X121669789Y-101699357D01*
X121669792Y-101699355D01*
X121674300Y-101696198D01*
X121836198Y-101534300D01*
X121885167Y-101464366D01*
X121964366Y-101351257D01*
X121967523Y-101346749D01*
X121969846Y-101341767D01*
X121969849Y-101341762D01*
X122061961Y-101144225D01*
X122061961Y-101144224D01*
X122064284Y-101139243D01*
X122104006Y-100991002D01*
X122122119Y-100923402D01*
X122122119Y-100923400D01*
X122123543Y-100918087D01*
X122143498Y-100690000D01*
X122123543Y-100461913D01*
X122088197Y-100330000D01*
X123146502Y-100330000D01*
X123166457Y-100558087D01*
X123167881Y-100563400D01*
X123167881Y-100563402D01*
X123205025Y-100702022D01*
X123225716Y-100779243D01*
X123228039Y-100784224D01*
X123228039Y-100784225D01*
X123320151Y-100981762D01*
X123320154Y-100981767D01*
X123322477Y-100986749D01*
X123325634Y-100991257D01*
X123425537Y-101133933D01*
X123453802Y-101174300D01*
X123615700Y-101336198D01*
X123620208Y-101339355D01*
X123620211Y-101339357D01*
X123623646Y-101341762D01*
X123803251Y-101467523D01*
X123808233Y-101469846D01*
X123808238Y-101469849D01*
X124004765Y-101561490D01*
X124010757Y-101564284D01*
X124016065Y-101565706D01*
X124016067Y-101565707D01*
X124226598Y-101622119D01*
X124226600Y-101622119D01*
X124231913Y-101623543D01*
X124460000Y-101643498D01*
X124688087Y-101623543D01*
X124693400Y-101622119D01*
X124693402Y-101622119D01*
X124903933Y-101565707D01*
X124903935Y-101565706D01*
X124909243Y-101564284D01*
X124915235Y-101561490D01*
X125111762Y-101469849D01*
X125111767Y-101469846D01*
X125116749Y-101467523D01*
X125190243Y-101416062D01*
X126238493Y-101416062D01*
X126247789Y-101428077D01*
X126298994Y-101463931D01*
X126308489Y-101469414D01*
X126505947Y-101561490D01*
X126516239Y-101565236D01*
X126726688Y-101621625D01*
X126737481Y-101623528D01*
X126954525Y-101642517D01*
X126965475Y-101642517D01*
X127182519Y-101623528D01*
X127193312Y-101621625D01*
X127403761Y-101565236D01*
X127414053Y-101561490D01*
X127611511Y-101469414D01*
X127621006Y-101463931D01*
X127673048Y-101427491D01*
X127681424Y-101417012D01*
X127674356Y-101403566D01*
X126972812Y-100702022D01*
X126958868Y-100694408D01*
X126957035Y-100694539D01*
X126950420Y-100698790D01*
X126244923Y-101404287D01*
X126238493Y-101416062D01*
X125190243Y-101416062D01*
X125296354Y-101341762D01*
X125299789Y-101339357D01*
X125299792Y-101339355D01*
X125304300Y-101336198D01*
X125466198Y-101174300D01*
X125494464Y-101133933D01*
X125594369Y-100991253D01*
X125597523Y-100986749D01*
X125599847Y-100981765D01*
X125601171Y-100979472D01*
X125652553Y-100930479D01*
X125722267Y-100917043D01*
X125788178Y-100943429D01*
X125819409Y-100979472D01*
X125826066Y-100991002D01*
X125862509Y-101043048D01*
X125872988Y-101051424D01*
X125886434Y-101044356D01*
X126587978Y-100342812D01*
X126594356Y-100331132D01*
X127324408Y-100331132D01*
X127324539Y-100332965D01*
X127328790Y-100339580D01*
X128034287Y-101045077D01*
X128046062Y-101051507D01*
X128058077Y-101042211D01*
X128093931Y-100991006D01*
X128099414Y-100981511D01*
X128191490Y-100784053D01*
X128195236Y-100773761D01*
X128251625Y-100563312D01*
X128253528Y-100552519D01*
X128272517Y-100335475D01*
X128272517Y-100324525D01*
X128253528Y-100107481D01*
X128251625Y-100096688D01*
X128195236Y-99886239D01*
X128191490Y-99875947D01*
X128099414Y-99678489D01*
X128093931Y-99668994D01*
X128057491Y-99616952D01*
X128047012Y-99608576D01*
X128033566Y-99615644D01*
X127332022Y-100317188D01*
X127324408Y-100331132D01*
X126594356Y-100331132D01*
X126595592Y-100328868D01*
X126595461Y-100327035D01*
X126591210Y-100320420D01*
X125885713Y-99614923D01*
X125873938Y-99608493D01*
X125861923Y-99617789D01*
X125826066Y-99668998D01*
X125819409Y-99680528D01*
X125768027Y-99729521D01*
X125698313Y-99742958D01*
X125632402Y-99716571D01*
X125601171Y-99680528D01*
X125599847Y-99678235D01*
X125597523Y-99673251D01*
X125541944Y-99593876D01*
X125469357Y-99490211D01*
X125469355Y-99490208D01*
X125466198Y-99485700D01*
X125304300Y-99323802D01*
X125299792Y-99320645D01*
X125299789Y-99320643D01*
X125188886Y-99242988D01*
X126238576Y-99242988D01*
X126245644Y-99256434D01*
X126947188Y-99957978D01*
X126961132Y-99965592D01*
X126962965Y-99965461D01*
X126969580Y-99961210D01*
X127675077Y-99255713D01*
X127681507Y-99243938D01*
X127672211Y-99231923D01*
X127621006Y-99196069D01*
X127611511Y-99190586D01*
X127414053Y-99098510D01*
X127403761Y-99094764D01*
X127193312Y-99038375D01*
X127182519Y-99036472D01*
X126965475Y-99017483D01*
X126954525Y-99017483D01*
X126737481Y-99036472D01*
X126726688Y-99038375D01*
X126516239Y-99094764D01*
X126505947Y-99098510D01*
X126308489Y-99190586D01*
X126298994Y-99196069D01*
X126246952Y-99232509D01*
X126238576Y-99242988D01*
X125188886Y-99242988D01*
X125173920Y-99232509D01*
X125116749Y-99192477D01*
X125111767Y-99190154D01*
X125111762Y-99190151D01*
X124914225Y-99098039D01*
X124914224Y-99098039D01*
X124909243Y-99095716D01*
X124903935Y-99094294D01*
X124903933Y-99094293D01*
X124693402Y-99037881D01*
X124693400Y-99037881D01*
X124688087Y-99036457D01*
X124460000Y-99016502D01*
X124231913Y-99036457D01*
X124226600Y-99037881D01*
X124226598Y-99037881D01*
X124016067Y-99094293D01*
X124016065Y-99094294D01*
X124010757Y-99095716D01*
X124005776Y-99098039D01*
X124005775Y-99098039D01*
X123808238Y-99190151D01*
X123808233Y-99190154D01*
X123803251Y-99192477D01*
X123746080Y-99232509D01*
X123620211Y-99320643D01*
X123620208Y-99320645D01*
X123615700Y-99323802D01*
X123453802Y-99485700D01*
X123450645Y-99490208D01*
X123450643Y-99490211D01*
X123395902Y-99568389D01*
X123322477Y-99673251D01*
X123320154Y-99678233D01*
X123320151Y-99678238D01*
X123296238Y-99729521D01*
X123225716Y-99880757D01*
X123224294Y-99886065D01*
X123224293Y-99886067D01*
X123203019Y-99965461D01*
X123166457Y-100101913D01*
X123146502Y-100330000D01*
X122088197Y-100330000D01*
X122065707Y-100246067D01*
X122065706Y-100246065D01*
X122064284Y-100240757D01*
X122002096Y-100107393D01*
X121969849Y-100038238D01*
X121969846Y-100038233D01*
X121967523Y-100033251D01*
X121864584Y-99886239D01*
X121839357Y-99850211D01*
X121839355Y-99850208D01*
X121836198Y-99845700D01*
X121674300Y-99683802D01*
X121669792Y-99680645D01*
X121669789Y-99680643D01*
X121580024Y-99617789D01*
X121486749Y-99552477D01*
X121481767Y-99550154D01*
X121481762Y-99550151D01*
X121447543Y-99534195D01*
X121394258Y-99487278D01*
X121374797Y-99419001D01*
X121395339Y-99351041D01*
X121447543Y-99305805D01*
X121481762Y-99289849D01*
X121481767Y-99289846D01*
X121486749Y-99287523D01*
X121591611Y-99214098D01*
X121669789Y-99159357D01*
X121669792Y-99159355D01*
X121674300Y-99156198D01*
X121836198Y-98994300D01*
X121967523Y-98806749D01*
X121969846Y-98801767D01*
X121969849Y-98801762D01*
X122061961Y-98604225D01*
X122061961Y-98604224D01*
X122064284Y-98599243D01*
X122082722Y-98530434D01*
X122122119Y-98383402D01*
X122122119Y-98383400D01*
X122123543Y-98378087D01*
X122143498Y-98150000D01*
X122123543Y-97921913D01*
X122064284Y-97700757D01*
X122014948Y-97594955D01*
X121969849Y-97498238D01*
X121969846Y-97498233D01*
X121967523Y-97493251D01*
X121836198Y-97305700D01*
X121674300Y-97143802D01*
X121669792Y-97140645D01*
X121669789Y-97140643D01*
X121591611Y-97085902D01*
X121486749Y-97012477D01*
X121481767Y-97010154D01*
X121481762Y-97010151D01*
X121447543Y-96994195D01*
X121394258Y-96947278D01*
X121374797Y-96879001D01*
X121389708Y-96829669D01*
X124957001Y-96829669D01*
X124957371Y-96836490D01*
X124962895Y-96887352D01*
X124966521Y-96902604D01*
X125011676Y-97023054D01*
X125020214Y-97038649D01*
X125096715Y-97140724D01*
X125109276Y-97153285D01*
X125211351Y-97229786D01*
X125226946Y-97238324D01*
X125347394Y-97283478D01*
X125362649Y-97287105D01*
X125413514Y-97292631D01*
X125420328Y-97293000D01*
X126092885Y-97293000D01*
X126108124Y-97288525D01*
X126109329Y-97287135D01*
X126111000Y-97279452D01*
X126111000Y-97274884D01*
X126619000Y-97274884D01*
X126623475Y-97290123D01*
X126624865Y-97291328D01*
X126632548Y-97292999D01*
X127309669Y-97292999D01*
X127316490Y-97292629D01*
X127367352Y-97287105D01*
X127382604Y-97283479D01*
X127503054Y-97238324D01*
X127518649Y-97229786D01*
X127620724Y-97153285D01*
X127633285Y-97140724D01*
X127709786Y-97038649D01*
X127718324Y-97023054D01*
X127763478Y-96902606D01*
X127767105Y-96887351D01*
X127772631Y-96836486D01*
X127773000Y-96829672D01*
X127773000Y-96157115D01*
X127768525Y-96141876D01*
X127767135Y-96140671D01*
X127759452Y-96139000D01*
X126637115Y-96139000D01*
X126621876Y-96143475D01*
X126620671Y-96144865D01*
X126619000Y-96152548D01*
X126619000Y-97274884D01*
X126111000Y-97274884D01*
X126111000Y-96157115D01*
X126106525Y-96141876D01*
X126105135Y-96140671D01*
X126097452Y-96139000D01*
X124975116Y-96139000D01*
X124959877Y-96143475D01*
X124958672Y-96144865D01*
X124957001Y-96152548D01*
X124957001Y-96829669D01*
X121389708Y-96829669D01*
X121395339Y-96811041D01*
X121447543Y-96765805D01*
X121481762Y-96749849D01*
X121481767Y-96749846D01*
X121486749Y-96747523D01*
X121591611Y-96674098D01*
X121669789Y-96619357D01*
X121669792Y-96619355D01*
X121674300Y-96616198D01*
X121836198Y-96454300D01*
X121885167Y-96384366D01*
X121964366Y-96271257D01*
X121967523Y-96266749D01*
X121969846Y-96261767D01*
X121969849Y-96261762D01*
X122061961Y-96064225D01*
X122061961Y-96064224D01*
X122064284Y-96059243D01*
X122123543Y-95838087D01*
X122143498Y-95610000D01*
X122123543Y-95381913D01*
X122064284Y-95160757D01*
X122061961Y-95155775D01*
X121969849Y-94958238D01*
X121969846Y-94958233D01*
X121967523Y-94953251D01*
X121894098Y-94848389D01*
X121839357Y-94770211D01*
X121839355Y-94770208D01*
X121836198Y-94765700D01*
X121674300Y-94603802D01*
X121669792Y-94600645D01*
X121669789Y-94600643D01*
X121571292Y-94531675D01*
X121486749Y-94472477D01*
X121481767Y-94470154D01*
X121481762Y-94470151D01*
X121447543Y-94454195D01*
X121394258Y-94407278D01*
X121374797Y-94339001D01*
X121395339Y-94271041D01*
X121447543Y-94225805D01*
X121481762Y-94209849D01*
X121481767Y-94209846D01*
X121486749Y-94207523D01*
X121617980Y-94115634D01*
X121669789Y-94079357D01*
X121669792Y-94079355D01*
X121674300Y-94076198D01*
X121836198Y-93914300D01*
X121967523Y-93726749D01*
X121969846Y-93721767D01*
X121969849Y-93721762D01*
X122061961Y-93524225D01*
X122061961Y-93524224D01*
X122064284Y-93519243D01*
X122112970Y-93337548D01*
X122120225Y-93310469D01*
X124952095Y-93310469D01*
X124952392Y-93315622D01*
X124952392Y-93315625D01*
X124960025Y-93448000D01*
X124965427Y-93541697D01*
X124966564Y-93546743D01*
X124966565Y-93546749D01*
X124998741Y-93689523D01*
X125016346Y-93767642D01*
X125018288Y-93772424D01*
X125018289Y-93772428D01*
X125078817Y-93921490D01*
X125103484Y-93982237D01*
X125224501Y-94179719D01*
X125227882Y-94183622D01*
X125336653Y-94309191D01*
X125366135Y-94373776D01*
X125356020Y-94444049D01*
X125309519Y-94497697D01*
X125285646Y-94509670D01*
X125226944Y-94531677D01*
X125211351Y-94540214D01*
X125109276Y-94616715D01*
X125096715Y-94629276D01*
X125020214Y-94731351D01*
X125011676Y-94746946D01*
X124966522Y-94867394D01*
X124962895Y-94882649D01*
X124957369Y-94933514D01*
X124957000Y-94940328D01*
X124957000Y-95612885D01*
X124961475Y-95628124D01*
X124962865Y-95629329D01*
X124970548Y-95631000D01*
X127754884Y-95631000D01*
X127770123Y-95626525D01*
X127771328Y-95625135D01*
X127772999Y-95617452D01*
X127772999Y-94940331D01*
X127772629Y-94933510D01*
X127767105Y-94882648D01*
X127763479Y-94867396D01*
X127718324Y-94746946D01*
X127709786Y-94731351D01*
X127633285Y-94629276D01*
X127620724Y-94616715D01*
X127518649Y-94540214D01*
X127503052Y-94531675D01*
X127444415Y-94509693D01*
X127387650Y-94467052D01*
X127362950Y-94400490D01*
X127378157Y-94331141D01*
X127399703Y-94302461D01*
X127437641Y-94264654D01*
X127441303Y-94261005D01*
X127576458Y-94072917D01*
X127604729Y-94015716D01*
X127676784Y-93869922D01*
X127676785Y-93869920D01*
X127679078Y-93865280D01*
X127746408Y-93643671D01*
X127776640Y-93414041D01*
X127778327Y-93345000D01*
X127765884Y-93193649D01*
X127759773Y-93119318D01*
X127759772Y-93119312D01*
X127759349Y-93114167D01*
X127702925Y-92889533D01*
X127700866Y-92884797D01*
X127612630Y-92681868D01*
X127612628Y-92681865D01*
X127610570Y-92677131D01*
X127484764Y-92482665D01*
X127328887Y-92311358D01*
X127324836Y-92308159D01*
X127324832Y-92308155D01*
X127151177Y-92171011D01*
X127151172Y-92171008D01*
X127147123Y-92167810D01*
X127142607Y-92165317D01*
X127142604Y-92165315D01*
X126948879Y-92058373D01*
X126948875Y-92058371D01*
X126944355Y-92055876D01*
X126939486Y-92054152D01*
X126939482Y-92054150D01*
X126730903Y-91980288D01*
X126730899Y-91980287D01*
X126726028Y-91978562D01*
X126720935Y-91977655D01*
X126720932Y-91977654D01*
X126503095Y-91938851D01*
X126503089Y-91938850D01*
X126498006Y-91937945D01*
X126425096Y-91937054D01*
X126271581Y-91935179D01*
X126271579Y-91935179D01*
X126266411Y-91935116D01*
X126037464Y-91970150D01*
X125817314Y-92042106D01*
X125812726Y-92044494D01*
X125812722Y-92044496D01*
X125616461Y-92146663D01*
X125611872Y-92149052D01*
X125607739Y-92152155D01*
X125607736Y-92152157D01*
X125503778Y-92230211D01*
X125426655Y-92288117D01*
X125423083Y-92291855D01*
X125302309Y-92418238D01*
X125266639Y-92455564D01*
X125263725Y-92459836D01*
X125263724Y-92459837D01*
X125248152Y-92482665D01*
X125136119Y-92646899D01*
X125038602Y-92856981D01*
X124976707Y-93080169D01*
X124952095Y-93310469D01*
X122120225Y-93310469D01*
X122122119Y-93303402D01*
X122122119Y-93303400D01*
X122123543Y-93298087D01*
X122143498Y-93070000D01*
X122123543Y-92841913D01*
X122115028Y-92810135D01*
X122065707Y-92626067D01*
X122065706Y-92626065D01*
X122064284Y-92620757D01*
X121998107Y-92478838D01*
X121969849Y-92418238D01*
X121969846Y-92418233D01*
X121967523Y-92413251D01*
X121836198Y-92225700D01*
X121674300Y-92063802D01*
X121669792Y-92060645D01*
X121669789Y-92060643D01*
X121540551Y-91970150D01*
X121486749Y-91932477D01*
X121481767Y-91930154D01*
X121481762Y-91930151D01*
X121284225Y-91838039D01*
X121284224Y-91838039D01*
X121279243Y-91835716D01*
X121273935Y-91834294D01*
X121273933Y-91834293D01*
X121063402Y-91777881D01*
X121063400Y-91777881D01*
X121058087Y-91776457D01*
X120830000Y-91756502D01*
X120601913Y-91776457D01*
X120596600Y-91777881D01*
X120596598Y-91777881D01*
X120386067Y-91834293D01*
X120386065Y-91834294D01*
X120380757Y-91835716D01*
X120375776Y-91838039D01*
X120375775Y-91838039D01*
X120178238Y-91930151D01*
X120178233Y-91930154D01*
X120173251Y-91932477D01*
X120119449Y-91970150D01*
X119990211Y-92060643D01*
X119990208Y-92060645D01*
X119985700Y-92063802D01*
X119823802Y-92225700D01*
X119692477Y-92413251D01*
X119690154Y-92418233D01*
X119690151Y-92418238D01*
X119661893Y-92478838D01*
X119595716Y-92620757D01*
X119594294Y-92626065D01*
X119594293Y-92626067D01*
X119544972Y-92810135D01*
X119536457Y-92841913D01*
X119516502Y-93070000D01*
X119536457Y-93298087D01*
X119537881Y-93303400D01*
X119537881Y-93303402D01*
X119547031Y-93337548D01*
X119595716Y-93519243D01*
X119598039Y-93524224D01*
X119598039Y-93524225D01*
X119690151Y-93721762D01*
X119690154Y-93721767D01*
X119692477Y-93726749D01*
X119823802Y-93914300D01*
X119985700Y-94076198D01*
X119990208Y-94079355D01*
X119990211Y-94079357D01*
X120042020Y-94115634D01*
X120173251Y-94207523D01*
X120178233Y-94209846D01*
X120178238Y-94209849D01*
X120212457Y-94225805D01*
X120265742Y-94272722D01*
X120285203Y-94340999D01*
X120264661Y-94408959D01*
X120212457Y-94454195D01*
X120178238Y-94470151D01*
X120178233Y-94470154D01*
X120173251Y-94472477D01*
X120088708Y-94531675D01*
X119990211Y-94600643D01*
X119990208Y-94600645D01*
X119985700Y-94603802D01*
X119823802Y-94765700D01*
X119820645Y-94770208D01*
X119820643Y-94770211D01*
X119765902Y-94848389D01*
X119692477Y-94953251D01*
X119690154Y-94958233D01*
X119690151Y-94958238D01*
X119598039Y-95155775D01*
X119595716Y-95160757D01*
X119536457Y-95381913D01*
X119516502Y-95610000D01*
X119536457Y-95838087D01*
X119595716Y-96059243D01*
X119598039Y-96064224D01*
X119598039Y-96064225D01*
X119690151Y-96261762D01*
X119690154Y-96261767D01*
X119692477Y-96266749D01*
X119695634Y-96271257D01*
X119774834Y-96384366D01*
X119823802Y-96454300D01*
X119985700Y-96616198D01*
X119990208Y-96619355D01*
X119990211Y-96619357D01*
X120068389Y-96674098D01*
X120173251Y-96747523D01*
X120178233Y-96749846D01*
X120178238Y-96749849D01*
X120212457Y-96765805D01*
X120265742Y-96812722D01*
X120285203Y-96880999D01*
X120264661Y-96948959D01*
X120212457Y-96994195D01*
X120178238Y-97010151D01*
X120178233Y-97010154D01*
X120173251Y-97012477D01*
X120068389Y-97085902D01*
X119990211Y-97140643D01*
X119990208Y-97140645D01*
X119985700Y-97143802D01*
X119823802Y-97305700D01*
X119692477Y-97493251D01*
X119690154Y-97498233D01*
X119690151Y-97498238D01*
X119645052Y-97594955D01*
X119595716Y-97700757D01*
X119536457Y-97921913D01*
X119516502Y-98150000D01*
X119536457Y-98378087D01*
X119537881Y-98383400D01*
X119537881Y-98383402D01*
X119577279Y-98530434D01*
X119595716Y-98599243D01*
X119598039Y-98604224D01*
X119598039Y-98604225D01*
X119690151Y-98801762D01*
X119690154Y-98801767D01*
X119692477Y-98806749D01*
X119823802Y-98994300D01*
X119985700Y-99156198D01*
X119990208Y-99159355D01*
X119990211Y-99159357D01*
X120068389Y-99214098D01*
X120173251Y-99287523D01*
X120178233Y-99289846D01*
X120178238Y-99289849D01*
X120212457Y-99305805D01*
X120265742Y-99352722D01*
X120285203Y-99420999D01*
X120264661Y-99488959D01*
X120212457Y-99534195D01*
X120178238Y-99550151D01*
X120178233Y-99550154D01*
X120173251Y-99552477D01*
X120079976Y-99617789D01*
X119990211Y-99680643D01*
X119990208Y-99680645D01*
X119985700Y-99683802D01*
X119823802Y-99845700D01*
X119820645Y-99850208D01*
X119820643Y-99850211D01*
X119795416Y-99886239D01*
X119692477Y-100033251D01*
X119690154Y-100038233D01*
X119690151Y-100038238D01*
X119657904Y-100107393D01*
X119595716Y-100240757D01*
X119594294Y-100246065D01*
X119594293Y-100246067D01*
X119571803Y-100330000D01*
X119536457Y-100461913D01*
X119516502Y-100690000D01*
X114523498Y-100690000D01*
X114503543Y-100461913D01*
X114468197Y-100330000D01*
X114445707Y-100246067D01*
X114445706Y-100246065D01*
X114444284Y-100240757D01*
X114382096Y-100107393D01*
X114349849Y-100038238D01*
X114349846Y-100038233D01*
X114347523Y-100033251D01*
X114244584Y-99886239D01*
X114219357Y-99850211D01*
X114219355Y-99850208D01*
X114216198Y-99845700D01*
X114054300Y-99683802D01*
X114049792Y-99680645D01*
X114049789Y-99680643D01*
X113960024Y-99617789D01*
X113866749Y-99552477D01*
X113861767Y-99550154D01*
X113861762Y-99550151D01*
X113827543Y-99534195D01*
X113774258Y-99487278D01*
X113754797Y-99419001D01*
X113775339Y-99351041D01*
X113827543Y-99305805D01*
X113861762Y-99289849D01*
X113861767Y-99289846D01*
X113866749Y-99287523D01*
X113971611Y-99214098D01*
X114049789Y-99159357D01*
X114049792Y-99159355D01*
X114054300Y-99156198D01*
X114216198Y-98994300D01*
X114347523Y-98806749D01*
X114349846Y-98801767D01*
X114349849Y-98801762D01*
X114441961Y-98604225D01*
X114441961Y-98604224D01*
X114444284Y-98599243D01*
X114462722Y-98530434D01*
X114502119Y-98383402D01*
X114502119Y-98383400D01*
X114503543Y-98378087D01*
X114523498Y-98150000D01*
X114503543Y-97921913D01*
X114444284Y-97700757D01*
X114394948Y-97594955D01*
X114349849Y-97498238D01*
X114349846Y-97498233D01*
X114347523Y-97493251D01*
X114216198Y-97305700D01*
X114054300Y-97143802D01*
X114049792Y-97140645D01*
X114049789Y-97140643D01*
X113971611Y-97085902D01*
X113866749Y-97012477D01*
X113861767Y-97010154D01*
X113861762Y-97010151D01*
X113827543Y-96994195D01*
X113774258Y-96947278D01*
X113754797Y-96879001D01*
X113775339Y-96811041D01*
X113827543Y-96765805D01*
X113861762Y-96749849D01*
X113861767Y-96749846D01*
X113866749Y-96747523D01*
X113971611Y-96674098D01*
X114049789Y-96619357D01*
X114049792Y-96619355D01*
X114054300Y-96616198D01*
X114216198Y-96454300D01*
X114265167Y-96384366D01*
X114344366Y-96271257D01*
X114347523Y-96266749D01*
X114349846Y-96261767D01*
X114349849Y-96261762D01*
X114441961Y-96064225D01*
X114441961Y-96064224D01*
X114444284Y-96059243D01*
X114503543Y-95838087D01*
X114523498Y-95610000D01*
X114503543Y-95381913D01*
X114444284Y-95160757D01*
X114441961Y-95155775D01*
X114349849Y-94958238D01*
X114349846Y-94958233D01*
X114347523Y-94953251D01*
X114274098Y-94848389D01*
X114219357Y-94770211D01*
X114219355Y-94770208D01*
X114216198Y-94765700D01*
X114054300Y-94603802D01*
X114049789Y-94600643D01*
X114045576Y-94597108D01*
X114046388Y-94596140D01*
X114005910Y-94545506D01*
X113998596Y-94474887D01*
X114030624Y-94411524D01*
X114091823Y-94375536D01*
X114108901Y-94372480D01*
X114112352Y-94372105D01*
X114127604Y-94368479D01*
X114248054Y-94323324D01*
X114263649Y-94314786D01*
X114365724Y-94238285D01*
X114378285Y-94225724D01*
X114454786Y-94123649D01*
X114463324Y-94108054D01*
X114508478Y-93987606D01*
X114512105Y-93972351D01*
X114517631Y-93921486D01*
X114518000Y-93914672D01*
X114518000Y-93342115D01*
X114513525Y-93326876D01*
X114512135Y-93325671D01*
X114504452Y-93324000D01*
X111920116Y-93324000D01*
X111904877Y-93328475D01*
X111903672Y-93329865D01*
X111902001Y-93337548D01*
X111902001Y-93914669D01*
X111902371Y-93921490D01*
X111907895Y-93972352D01*
X111911521Y-93987604D01*
X111956676Y-94108054D01*
X111965214Y-94123649D01*
X112041715Y-94225724D01*
X112054276Y-94238285D01*
X112156351Y-94314786D01*
X112171946Y-94323324D01*
X112292394Y-94368478D01*
X112307643Y-94372104D01*
X112311096Y-94372479D01*
X112313606Y-94373522D01*
X112315331Y-94373932D01*
X112315265Y-94374211D01*
X112376659Y-94399719D01*
X112417088Y-94458080D01*
X112419546Y-94529034D01*
X112383253Y-94590054D01*
X112371760Y-94599344D01*
X112370214Y-94600641D01*
X112365700Y-94603802D01*
X112203802Y-94765700D01*
X112200645Y-94770208D01*
X112200643Y-94770211D01*
X112145902Y-94848389D01*
X112072477Y-94953251D01*
X112070154Y-94958233D01*
X112070151Y-94958238D01*
X111978039Y-95155775D01*
X111975716Y-95160757D01*
X111916457Y-95381913D01*
X111896502Y-95610000D01*
X111916457Y-95838087D01*
X111975716Y-96059243D01*
X111978039Y-96064224D01*
X111978039Y-96064225D01*
X112070151Y-96261762D01*
X112070154Y-96261767D01*
X112072477Y-96266749D01*
X112075634Y-96271257D01*
X112154834Y-96384366D01*
X112203802Y-96454300D01*
X112365700Y-96616198D01*
X112370208Y-96619355D01*
X112370211Y-96619357D01*
X112448389Y-96674098D01*
X112553251Y-96747523D01*
X112558233Y-96749846D01*
X112558238Y-96749849D01*
X112592457Y-96765805D01*
X112645742Y-96812722D01*
X112665203Y-96880999D01*
X112644661Y-96948959D01*
X112592457Y-96994195D01*
X112558238Y-97010151D01*
X112558233Y-97010154D01*
X112553251Y-97012477D01*
X112448389Y-97085902D01*
X112370211Y-97140643D01*
X112370208Y-97140645D01*
X112365700Y-97143802D01*
X112203802Y-97305700D01*
X112072477Y-97493251D01*
X112070154Y-97498233D01*
X112070151Y-97498238D01*
X112025052Y-97594955D01*
X111975716Y-97700757D01*
X111916457Y-97921913D01*
X111896502Y-98150000D01*
X111916457Y-98378087D01*
X111917881Y-98383400D01*
X111917881Y-98383402D01*
X111957279Y-98530434D01*
X111975716Y-98599243D01*
X111978039Y-98604224D01*
X111978039Y-98604225D01*
X112070151Y-98801762D01*
X112070154Y-98801767D01*
X112072477Y-98806749D01*
X112203802Y-98994300D01*
X112365700Y-99156198D01*
X112370208Y-99159355D01*
X112370211Y-99159357D01*
X112448389Y-99214098D01*
X112553251Y-99287523D01*
X112558233Y-99289846D01*
X112558238Y-99289849D01*
X112592457Y-99305805D01*
X112645742Y-99352722D01*
X112665203Y-99420999D01*
X112644661Y-99488959D01*
X112592457Y-99534195D01*
X112558238Y-99550151D01*
X112558233Y-99550154D01*
X112553251Y-99552477D01*
X112459976Y-99617789D01*
X112370211Y-99680643D01*
X112370208Y-99680645D01*
X112365700Y-99683802D01*
X112203802Y-99845700D01*
X112200645Y-99850208D01*
X112200643Y-99850211D01*
X112175416Y-99886239D01*
X112072477Y-100033251D01*
X112070154Y-100038233D01*
X112070151Y-100038238D01*
X112037904Y-100107393D01*
X111975716Y-100240757D01*
X111974294Y-100246065D01*
X111974293Y-100246067D01*
X111951803Y-100330000D01*
X111916457Y-100461913D01*
X111896502Y-100690000D01*
X99060000Y-100690000D01*
X99060000Y-96498918D01*
X101491917Y-96498918D01*
X101507682Y-96772320D01*
X101508507Y-96776525D01*
X101508508Y-96776533D01*
X101533243Y-96902606D01*
X101560405Y-97041053D01*
X101561792Y-97045103D01*
X101561793Y-97045108D01*
X101646666Y-97293000D01*
X101649112Y-97300144D01*
X101772160Y-97544799D01*
X101774586Y-97548328D01*
X101774589Y-97548334D01*
X101882997Y-97706067D01*
X101927274Y-97770490D01*
X101930161Y-97773663D01*
X101930162Y-97773664D01*
X102070044Y-97927393D01*
X102111582Y-97973043D01*
X102321675Y-98148707D01*
X102325316Y-98150991D01*
X102550024Y-98291951D01*
X102550028Y-98291953D01*
X102553664Y-98294234D01*
X102621544Y-98324883D01*
X102799345Y-98405164D01*
X102799349Y-98405166D01*
X102803257Y-98406930D01*
X102807377Y-98408150D01*
X102807376Y-98408150D01*
X103061723Y-98483491D01*
X103061727Y-98483492D01*
X103065836Y-98484709D01*
X103070070Y-98485357D01*
X103070075Y-98485358D01*
X103332298Y-98525483D01*
X103332300Y-98525483D01*
X103336540Y-98526132D01*
X103475912Y-98528322D01*
X103606071Y-98530367D01*
X103606077Y-98530367D01*
X103610362Y-98530434D01*
X103882235Y-98497534D01*
X104147127Y-98428041D01*
X104151087Y-98426401D01*
X104151092Y-98426399D01*
X104280956Y-98372607D01*
X104400136Y-98323241D01*
X104636582Y-98185073D01*
X104852089Y-98016094D01*
X104893809Y-97973043D01*
X105039686Y-97822509D01*
X105042669Y-97819431D01*
X105045202Y-97815983D01*
X105045206Y-97815978D01*
X105202257Y-97602178D01*
X105204795Y-97598723D01*
X105232154Y-97548334D01*
X105333418Y-97361830D01*
X105333419Y-97361828D01*
X105335468Y-97358054D01*
X105412844Y-97153285D01*
X105430751Y-97105895D01*
X105430752Y-97105891D01*
X105432269Y-97101877D01*
X105477908Y-96902606D01*
X105492449Y-96839117D01*
X105492450Y-96839113D01*
X105493407Y-96834933D01*
X105495390Y-96812722D01*
X105517531Y-96564627D01*
X105517531Y-96564625D01*
X105517751Y-96562161D01*
X105518193Y-96520000D01*
X105513407Y-96449789D01*
X105499859Y-96251055D01*
X105499858Y-96251049D01*
X105499567Y-96246778D01*
X105444032Y-95978612D01*
X105352617Y-95720465D01*
X105227013Y-95477112D01*
X105217040Y-95462921D01*
X105072008Y-95256562D01*
X105069545Y-95253057D01*
X105066704Y-95250000D01*
X108541502Y-95250000D01*
X108561457Y-95478087D01*
X108562881Y-95483400D01*
X108562881Y-95483402D01*
X108601660Y-95628124D01*
X108620716Y-95699243D01*
X108623039Y-95704224D01*
X108623039Y-95704225D01*
X108715151Y-95901762D01*
X108715154Y-95901767D01*
X108717477Y-95906749D01*
X108764969Y-95974574D01*
X108820537Y-96053933D01*
X108848802Y-96094300D01*
X109010700Y-96256198D01*
X109015208Y-96259355D01*
X109015211Y-96259357D01*
X109018646Y-96261762D01*
X109198251Y-96387523D01*
X109203233Y-96389846D01*
X109203238Y-96389849D01*
X109400775Y-96481961D01*
X109405757Y-96484284D01*
X109411065Y-96485706D01*
X109411067Y-96485707D01*
X109621598Y-96542119D01*
X109621600Y-96542119D01*
X109626913Y-96543543D01*
X109855000Y-96563498D01*
X110083087Y-96543543D01*
X110088400Y-96542119D01*
X110088402Y-96542119D01*
X110298933Y-96485707D01*
X110298935Y-96485706D01*
X110304243Y-96484284D01*
X110309225Y-96481961D01*
X110506762Y-96389849D01*
X110506767Y-96389846D01*
X110511749Y-96387523D01*
X110691354Y-96261762D01*
X110694789Y-96259357D01*
X110694792Y-96259355D01*
X110699300Y-96256198D01*
X110861198Y-96094300D01*
X110889464Y-96053933D01*
X110945031Y-95974574D01*
X110992523Y-95906749D01*
X110994846Y-95901767D01*
X110994849Y-95901762D01*
X111086961Y-95704225D01*
X111086961Y-95704224D01*
X111089284Y-95699243D01*
X111108341Y-95628124D01*
X111147119Y-95483402D01*
X111147119Y-95483400D01*
X111148543Y-95478087D01*
X111168498Y-95250000D01*
X111148543Y-95021913D01*
X111126682Y-94940328D01*
X111090707Y-94806067D01*
X111090706Y-94806065D01*
X111089284Y-94800757D01*
X111060088Y-94738145D01*
X110994849Y-94598238D01*
X110994846Y-94598233D01*
X110992523Y-94593251D01*
X110919098Y-94488389D01*
X110864357Y-94410211D01*
X110864355Y-94410208D01*
X110861198Y-94405700D01*
X110699300Y-94243802D01*
X110694792Y-94240645D01*
X110694789Y-94240643D01*
X110527704Y-94123649D01*
X110511749Y-94112477D01*
X110506767Y-94110154D01*
X110506762Y-94110151D01*
X110309225Y-94018039D01*
X110309224Y-94018039D01*
X110304243Y-94015716D01*
X110298935Y-94014294D01*
X110298933Y-94014293D01*
X110088402Y-93957881D01*
X110088400Y-93957881D01*
X110083087Y-93956457D01*
X109855000Y-93936502D01*
X109626913Y-93956457D01*
X109621600Y-93957881D01*
X109621598Y-93957881D01*
X109411067Y-94014293D01*
X109411065Y-94014294D01*
X109405757Y-94015716D01*
X109400776Y-94018039D01*
X109400775Y-94018039D01*
X109203238Y-94110151D01*
X109203233Y-94110154D01*
X109198251Y-94112477D01*
X109182296Y-94123649D01*
X109015211Y-94240643D01*
X109015208Y-94240645D01*
X109010700Y-94243802D01*
X108848802Y-94405700D01*
X108845645Y-94410208D01*
X108845643Y-94410211D01*
X108790902Y-94488389D01*
X108717477Y-94593251D01*
X108715154Y-94598233D01*
X108715151Y-94598238D01*
X108649912Y-94738145D01*
X108620716Y-94800757D01*
X108619294Y-94806065D01*
X108619293Y-94806067D01*
X108583318Y-94940328D01*
X108561457Y-95021913D01*
X108541502Y-95250000D01*
X105066704Y-95250000D01*
X104883125Y-95052445D01*
X104879810Y-95049731D01*
X104879806Y-95049728D01*
X104674523Y-94881706D01*
X104671205Y-94878990D01*
X104437704Y-94735901D01*
X104427339Y-94731351D01*
X104190873Y-94627549D01*
X104190869Y-94627548D01*
X104186945Y-94625825D01*
X103923566Y-94550800D01*
X103919324Y-94550196D01*
X103919318Y-94550195D01*
X103718834Y-94521662D01*
X103652443Y-94512213D01*
X103508589Y-94511460D01*
X103382877Y-94510802D01*
X103382871Y-94510802D01*
X103378591Y-94510780D01*
X103374347Y-94511339D01*
X103374343Y-94511339D01*
X103255302Y-94527011D01*
X103107078Y-94546525D01*
X103102938Y-94547658D01*
X103102936Y-94547658D01*
X103061510Y-94558991D01*
X102842928Y-94618788D01*
X102838980Y-94620472D01*
X102594982Y-94724546D01*
X102594978Y-94724548D01*
X102591030Y-94726232D01*
X102517546Y-94770211D01*
X102359725Y-94864664D01*
X102359721Y-94864667D01*
X102356043Y-94866868D01*
X102142318Y-95038094D01*
X101953808Y-95236742D01*
X101794002Y-95459136D01*
X101665857Y-95701161D01*
X101664385Y-95705184D01*
X101664383Y-95705188D01*
X101592447Y-95901762D01*
X101571743Y-95958337D01*
X101513404Y-96225907D01*
X101491917Y-96498918D01*
X99060000Y-96498918D01*
X99060000Y-92984669D01*
X101497001Y-92984669D01*
X101497371Y-92991490D01*
X101502895Y-93042352D01*
X101506521Y-93057604D01*
X101551676Y-93178054D01*
X101560214Y-93193649D01*
X101636715Y-93295724D01*
X101649276Y-93308285D01*
X101751351Y-93384786D01*
X101766946Y-93393324D01*
X101887394Y-93438478D01*
X101902649Y-93442105D01*
X101953514Y-93447631D01*
X101960328Y-93448000D01*
X103232885Y-93448000D01*
X103248124Y-93443525D01*
X103249329Y-93442135D01*
X103251000Y-93434452D01*
X103251000Y-93429884D01*
X103759000Y-93429884D01*
X103763475Y-93445123D01*
X103764865Y-93446328D01*
X103772548Y-93447999D01*
X105049669Y-93447999D01*
X105056490Y-93447629D01*
X105107352Y-93442105D01*
X105122604Y-93438479D01*
X105243054Y-93393324D01*
X105258649Y-93384786D01*
X105360724Y-93308285D01*
X105373285Y-93295724D01*
X105449786Y-93193649D01*
X105458324Y-93178054D01*
X105503478Y-93057606D01*
X105507105Y-93042351D01*
X105512631Y-92991486D01*
X105513000Y-92984672D01*
X105513000Y-92797885D01*
X111902000Y-92797885D01*
X111906475Y-92813124D01*
X111907865Y-92814329D01*
X111915548Y-92816000D01*
X112937885Y-92816000D01*
X112953124Y-92811525D01*
X112954329Y-92810135D01*
X112956000Y-92802452D01*
X112956000Y-92797885D01*
X113464000Y-92797885D01*
X113468475Y-92813124D01*
X113469865Y-92814329D01*
X113477548Y-92816000D01*
X114499884Y-92816000D01*
X114515123Y-92811525D01*
X114516328Y-92810135D01*
X114517999Y-92802452D01*
X114517999Y-92225331D01*
X114517629Y-92218510D01*
X114512105Y-92167648D01*
X114508479Y-92152396D01*
X114463324Y-92031946D01*
X114454786Y-92016351D01*
X114378285Y-91914276D01*
X114365724Y-91901715D01*
X114263649Y-91825214D01*
X114248054Y-91816676D01*
X114127606Y-91771522D01*
X114112351Y-91767895D01*
X114061486Y-91762369D01*
X114054672Y-91762000D01*
X113482115Y-91762000D01*
X113466876Y-91766475D01*
X113465671Y-91767865D01*
X113464000Y-91775548D01*
X113464000Y-92797885D01*
X112956000Y-92797885D01*
X112956000Y-91780116D01*
X112951525Y-91764877D01*
X112950135Y-91763672D01*
X112942452Y-91762001D01*
X112365331Y-91762001D01*
X112358510Y-91762371D01*
X112307648Y-91767895D01*
X112292396Y-91771521D01*
X112171946Y-91816676D01*
X112156351Y-91825214D01*
X112054276Y-91901715D01*
X112041715Y-91914276D01*
X111965214Y-92016351D01*
X111956676Y-92031946D01*
X111911522Y-92152394D01*
X111907895Y-92167649D01*
X111902369Y-92218514D01*
X111902000Y-92225328D01*
X111902000Y-92797885D01*
X105513000Y-92797885D01*
X105513000Y-91712115D01*
X105508525Y-91696876D01*
X105507135Y-91695671D01*
X105499452Y-91694000D01*
X103777115Y-91694000D01*
X103761876Y-91698475D01*
X103760671Y-91699865D01*
X103759000Y-91707548D01*
X103759000Y-93429884D01*
X103251000Y-93429884D01*
X103251000Y-91712115D01*
X103246525Y-91696876D01*
X103245135Y-91695671D01*
X103237452Y-91694000D01*
X101515116Y-91694000D01*
X101499877Y-91698475D01*
X101498672Y-91699865D01*
X101497001Y-91707548D01*
X101497001Y-92984669D01*
X99060000Y-92984669D01*
X99060000Y-91167885D01*
X101497000Y-91167885D01*
X101501475Y-91183124D01*
X101502865Y-91184329D01*
X101510548Y-91186000D01*
X103232885Y-91186000D01*
X103248124Y-91181525D01*
X103249329Y-91180135D01*
X103251000Y-91172452D01*
X103251000Y-91167885D01*
X103759000Y-91167885D01*
X103763475Y-91183124D01*
X103764865Y-91184329D01*
X103772548Y-91186000D01*
X105494884Y-91186000D01*
X105510123Y-91181525D01*
X105511328Y-91180135D01*
X105512999Y-91172452D01*
X105512999Y-89895331D01*
X105512629Y-89888510D01*
X105507105Y-89837648D01*
X105503479Y-89822396D01*
X105458324Y-89701946D01*
X105449786Y-89686351D01*
X105373285Y-89584276D01*
X105360724Y-89571715D01*
X105258649Y-89495214D01*
X105243054Y-89486676D01*
X105122606Y-89441522D01*
X105107351Y-89437895D01*
X105056486Y-89432369D01*
X105049672Y-89432000D01*
X103777115Y-89432000D01*
X103761876Y-89436475D01*
X103760671Y-89437865D01*
X103759000Y-89445548D01*
X103759000Y-91167885D01*
X103251000Y-91167885D01*
X103251000Y-89450116D01*
X103246525Y-89434877D01*
X103245135Y-89433672D01*
X103237452Y-89432001D01*
X101960331Y-89432001D01*
X101953510Y-89432371D01*
X101902648Y-89437895D01*
X101887396Y-89441521D01*
X101766946Y-89486676D01*
X101751351Y-89495214D01*
X101649276Y-89571715D01*
X101636715Y-89584276D01*
X101560214Y-89686351D01*
X101551676Y-89701946D01*
X101506522Y-89822394D01*
X101502895Y-89837649D01*
X101497369Y-89888514D01*
X101497000Y-89895328D01*
X101497000Y-91167885D01*
X99060000Y-91167885D01*
X99060000Y-88900000D01*
X111716502Y-88900000D01*
X111736457Y-89128087D01*
X111795716Y-89349243D01*
X111798039Y-89354224D01*
X111798039Y-89354225D01*
X111890151Y-89551762D01*
X111890154Y-89551767D01*
X111892477Y-89556749D01*
X111911752Y-89584276D01*
X111983226Y-89686351D01*
X112023802Y-89744300D01*
X112185700Y-89906198D01*
X112190208Y-89909355D01*
X112190211Y-89909357D01*
X112268389Y-89964098D01*
X112373251Y-90037523D01*
X112378233Y-90039846D01*
X112378238Y-90039849D01*
X112575775Y-90131961D01*
X112580757Y-90134284D01*
X112586065Y-90135706D01*
X112586067Y-90135707D01*
X112796598Y-90192119D01*
X112796600Y-90192119D01*
X112801913Y-90193543D01*
X113030000Y-90213498D01*
X113258087Y-90193543D01*
X113263400Y-90192119D01*
X113263402Y-90192119D01*
X113473933Y-90135707D01*
X113473935Y-90135706D01*
X113479243Y-90134284D01*
X113484225Y-90131961D01*
X113681762Y-90039849D01*
X113681767Y-90039846D01*
X113686749Y-90037523D01*
X113791611Y-89964098D01*
X113869789Y-89909357D01*
X113869792Y-89909355D01*
X113874300Y-89906198D01*
X114036198Y-89744300D01*
X114076775Y-89686351D01*
X114148248Y-89584276D01*
X114167523Y-89556749D01*
X114169846Y-89551767D01*
X114169849Y-89551762D01*
X114261961Y-89354225D01*
X114261961Y-89354224D01*
X114264284Y-89349243D01*
X114323543Y-89128087D01*
X114343498Y-88900000D01*
X121876502Y-88900000D01*
X121896457Y-89128087D01*
X121955716Y-89349243D01*
X121958039Y-89354224D01*
X121958039Y-89354225D01*
X122050151Y-89551762D01*
X122050154Y-89551767D01*
X122052477Y-89556749D01*
X122071752Y-89584276D01*
X122143226Y-89686351D01*
X122183802Y-89744300D01*
X122345700Y-89906198D01*
X122350208Y-89909355D01*
X122350211Y-89909357D01*
X122428389Y-89964098D01*
X122533251Y-90037523D01*
X122538233Y-90039846D01*
X122538238Y-90039849D01*
X122735775Y-90131961D01*
X122740757Y-90134284D01*
X122746065Y-90135706D01*
X122746067Y-90135707D01*
X122956598Y-90192119D01*
X122956600Y-90192119D01*
X122961913Y-90193543D01*
X123190000Y-90213498D01*
X123418087Y-90193543D01*
X123423400Y-90192119D01*
X123423402Y-90192119D01*
X123633933Y-90135707D01*
X123633935Y-90135706D01*
X123639243Y-90134284D01*
X123644225Y-90131961D01*
X123841762Y-90039849D01*
X123841767Y-90039846D01*
X123846749Y-90037523D01*
X123951611Y-89964098D01*
X124029789Y-89909357D01*
X124029792Y-89909355D01*
X124034300Y-89906198D01*
X124196198Y-89744300D01*
X124236775Y-89686351D01*
X124308248Y-89584276D01*
X124327523Y-89556749D01*
X124329846Y-89551767D01*
X124329849Y-89551762D01*
X124421961Y-89354225D01*
X124421961Y-89354224D01*
X124424284Y-89349243D01*
X124483543Y-89128087D01*
X124503498Y-88900000D01*
X124483543Y-88671913D01*
X124424284Y-88450757D01*
X124421961Y-88445775D01*
X124329849Y-88248238D01*
X124329846Y-88248233D01*
X124327523Y-88243251D01*
X124196198Y-88055700D01*
X124034300Y-87893802D01*
X124029792Y-87890645D01*
X124029789Y-87890643D01*
X123951611Y-87835902D01*
X123846749Y-87762477D01*
X123841767Y-87760154D01*
X123841762Y-87760151D01*
X123644225Y-87668039D01*
X123644224Y-87668039D01*
X123639243Y-87665716D01*
X123633935Y-87664294D01*
X123633933Y-87664293D01*
X123423402Y-87607881D01*
X123423400Y-87607881D01*
X123418087Y-87606457D01*
X123190000Y-87586502D01*
X122961913Y-87606457D01*
X122956600Y-87607881D01*
X122956598Y-87607881D01*
X122746067Y-87664293D01*
X122746065Y-87664294D01*
X122740757Y-87665716D01*
X122735776Y-87668039D01*
X122735775Y-87668039D01*
X122538238Y-87760151D01*
X122538233Y-87760154D01*
X122533251Y-87762477D01*
X122428389Y-87835902D01*
X122350211Y-87890643D01*
X122350208Y-87890645D01*
X122345700Y-87893802D01*
X122183802Y-88055700D01*
X122052477Y-88243251D01*
X122050154Y-88248233D01*
X122050151Y-88248238D01*
X121958039Y-88445775D01*
X121955716Y-88450757D01*
X121896457Y-88671913D01*
X121876502Y-88900000D01*
X114343498Y-88900000D01*
X114323543Y-88671913D01*
X114264284Y-88450757D01*
X114261961Y-88445775D01*
X114169849Y-88248238D01*
X114169846Y-88248233D01*
X114167523Y-88243251D01*
X114036198Y-88055700D01*
X113874300Y-87893802D01*
X113869792Y-87890645D01*
X113869789Y-87890643D01*
X113791611Y-87835902D01*
X113686749Y-87762477D01*
X113681767Y-87760154D01*
X113681762Y-87760151D01*
X113484225Y-87668039D01*
X113484224Y-87668039D01*
X113479243Y-87665716D01*
X113473935Y-87664294D01*
X113473933Y-87664293D01*
X113263402Y-87607881D01*
X113263400Y-87607881D01*
X113258087Y-87606457D01*
X113030000Y-87586502D01*
X112801913Y-87606457D01*
X112796600Y-87607881D01*
X112796598Y-87607881D01*
X112586067Y-87664293D01*
X112586065Y-87664294D01*
X112580757Y-87665716D01*
X112575776Y-87668039D01*
X112575775Y-87668039D01*
X112378238Y-87760151D01*
X112378233Y-87760154D01*
X112373251Y-87762477D01*
X112268389Y-87835902D01*
X112190211Y-87890643D01*
X112190208Y-87890645D01*
X112185700Y-87893802D01*
X112023802Y-88055700D01*
X111892477Y-88243251D01*
X111890154Y-88248233D01*
X111890151Y-88248238D01*
X111798039Y-88445775D01*
X111795716Y-88450757D01*
X111736457Y-88671913D01*
X111716502Y-88900000D01*
X99060000Y-88900000D01*
X99060000Y-85090000D01*
X108541502Y-85090000D01*
X108561457Y-85318087D01*
X108620716Y-85539243D01*
X108623039Y-85544224D01*
X108623039Y-85544225D01*
X108715151Y-85741762D01*
X108715154Y-85741767D01*
X108717477Y-85746749D01*
X108848802Y-85934300D01*
X109010700Y-86096198D01*
X109015208Y-86099355D01*
X109015211Y-86099357D01*
X109093389Y-86154098D01*
X109198251Y-86227523D01*
X109203233Y-86229846D01*
X109203238Y-86229849D01*
X109400775Y-86321961D01*
X109405757Y-86324284D01*
X109411065Y-86325706D01*
X109411067Y-86325707D01*
X109621598Y-86382119D01*
X109621600Y-86382119D01*
X109626913Y-86383543D01*
X109855000Y-86403498D01*
X110083087Y-86383543D01*
X110088400Y-86382119D01*
X110088402Y-86382119D01*
X110298933Y-86325707D01*
X110298935Y-86325706D01*
X110304243Y-86324284D01*
X110309225Y-86321961D01*
X110506762Y-86229849D01*
X110506767Y-86229846D01*
X110511749Y-86227523D01*
X110616611Y-86154098D01*
X110694789Y-86099357D01*
X110694792Y-86099355D01*
X110699300Y-86096198D01*
X110861198Y-85934300D01*
X110992523Y-85746749D01*
X110994846Y-85741767D01*
X110994849Y-85741762D01*
X111086961Y-85544225D01*
X111086961Y-85544224D01*
X111089284Y-85539243D01*
X111148543Y-85318087D01*
X111168498Y-85090000D01*
X111716502Y-85090000D01*
X111736457Y-85318087D01*
X111795716Y-85539243D01*
X111798039Y-85544224D01*
X111798039Y-85544225D01*
X111890151Y-85741762D01*
X111890154Y-85741767D01*
X111892477Y-85746749D01*
X112023802Y-85934300D01*
X112185700Y-86096198D01*
X112190208Y-86099355D01*
X112190211Y-86099357D01*
X112268389Y-86154098D01*
X112373251Y-86227523D01*
X112378233Y-86229846D01*
X112378238Y-86229849D01*
X112575775Y-86321961D01*
X112580757Y-86324284D01*
X112586065Y-86325706D01*
X112586067Y-86325707D01*
X112796598Y-86382119D01*
X112796600Y-86382119D01*
X112801913Y-86383543D01*
X113030000Y-86403498D01*
X113258087Y-86383543D01*
X113263400Y-86382119D01*
X113263402Y-86382119D01*
X113473933Y-86325707D01*
X113473935Y-86325706D01*
X113479243Y-86324284D01*
X113484225Y-86321961D01*
X113681762Y-86229849D01*
X113681767Y-86229846D01*
X113686749Y-86227523D01*
X113791611Y-86154098D01*
X113869789Y-86099357D01*
X113869792Y-86099355D01*
X113874300Y-86096198D01*
X114036198Y-85934300D01*
X114167523Y-85746749D01*
X114169846Y-85741767D01*
X114169849Y-85741762D01*
X114261961Y-85544225D01*
X114261961Y-85544224D01*
X114264284Y-85539243D01*
X114323543Y-85318087D01*
X114343498Y-85090000D01*
X121876502Y-85090000D01*
X121896457Y-85318087D01*
X121955716Y-85539243D01*
X121958039Y-85544224D01*
X121958039Y-85544225D01*
X122050151Y-85741762D01*
X122050154Y-85741767D01*
X122052477Y-85746749D01*
X122183802Y-85934300D01*
X122345700Y-86096198D01*
X122350208Y-86099355D01*
X122350211Y-86099357D01*
X122428389Y-86154098D01*
X122533251Y-86227523D01*
X122538233Y-86229846D01*
X122538238Y-86229849D01*
X122735775Y-86321961D01*
X122740757Y-86324284D01*
X122746065Y-86325706D01*
X122746067Y-86325707D01*
X122956598Y-86382119D01*
X122956600Y-86382119D01*
X122961913Y-86383543D01*
X123190000Y-86403498D01*
X123418087Y-86383543D01*
X123423400Y-86382119D01*
X123423402Y-86382119D01*
X123633933Y-86325707D01*
X123633935Y-86325706D01*
X123639243Y-86324284D01*
X123644225Y-86321961D01*
X123841762Y-86229849D01*
X123841767Y-86229846D01*
X123846749Y-86227523D01*
X123951611Y-86154098D01*
X124029789Y-86099357D01*
X124029792Y-86099355D01*
X124034300Y-86096198D01*
X124196198Y-85934300D01*
X124327523Y-85746749D01*
X124329846Y-85741767D01*
X124329849Y-85741762D01*
X124421961Y-85544225D01*
X124421961Y-85544224D01*
X124424284Y-85539243D01*
X124483543Y-85318087D01*
X124503498Y-85090000D01*
X124483543Y-84861913D01*
X124424284Y-84640757D01*
X124395037Y-84578036D01*
X124329849Y-84438238D01*
X124329846Y-84438233D01*
X124327523Y-84433251D01*
X124196198Y-84245700D01*
X124034300Y-84083802D01*
X124029792Y-84080645D01*
X124029789Y-84080643D01*
X123951611Y-84025902D01*
X123846749Y-83952477D01*
X123841767Y-83950154D01*
X123841762Y-83950151D01*
X123644225Y-83858039D01*
X123644224Y-83858039D01*
X123639243Y-83855716D01*
X123633935Y-83854294D01*
X123633933Y-83854293D01*
X123423402Y-83797881D01*
X123423400Y-83797881D01*
X123418087Y-83796457D01*
X123190000Y-83776502D01*
X122961913Y-83796457D01*
X122956600Y-83797881D01*
X122956598Y-83797881D01*
X122746067Y-83854293D01*
X122746065Y-83854294D01*
X122740757Y-83855716D01*
X122735776Y-83858039D01*
X122735775Y-83858039D01*
X122538238Y-83950151D01*
X122538233Y-83950154D01*
X122533251Y-83952477D01*
X122428389Y-84025902D01*
X122350211Y-84080643D01*
X122350208Y-84080645D01*
X122345700Y-84083802D01*
X122183802Y-84245700D01*
X122052477Y-84433251D01*
X122050154Y-84438233D01*
X122050151Y-84438238D01*
X121984963Y-84578036D01*
X121955716Y-84640757D01*
X121896457Y-84861913D01*
X121876502Y-85090000D01*
X114343498Y-85090000D01*
X114323543Y-84861913D01*
X114264284Y-84640757D01*
X114235037Y-84578036D01*
X114169849Y-84438238D01*
X114169846Y-84438233D01*
X114167523Y-84433251D01*
X114036198Y-84245700D01*
X113874300Y-84083802D01*
X113869792Y-84080645D01*
X113869789Y-84080643D01*
X113791611Y-84025902D01*
X113686749Y-83952477D01*
X113681767Y-83950154D01*
X113681762Y-83950151D01*
X113484225Y-83858039D01*
X113484224Y-83858039D01*
X113479243Y-83855716D01*
X113473935Y-83854294D01*
X113473933Y-83854293D01*
X113263402Y-83797881D01*
X113263400Y-83797881D01*
X113258087Y-83796457D01*
X113030000Y-83776502D01*
X112801913Y-83796457D01*
X112796600Y-83797881D01*
X112796598Y-83797881D01*
X112586067Y-83854293D01*
X112586065Y-83854294D01*
X112580757Y-83855716D01*
X112575776Y-83858039D01*
X112575775Y-83858039D01*
X112378238Y-83950151D01*
X112378233Y-83950154D01*
X112373251Y-83952477D01*
X112268389Y-84025902D01*
X112190211Y-84080643D01*
X112190208Y-84080645D01*
X112185700Y-84083802D01*
X112023802Y-84245700D01*
X111892477Y-84433251D01*
X111890154Y-84438233D01*
X111890151Y-84438238D01*
X111824963Y-84578036D01*
X111795716Y-84640757D01*
X111736457Y-84861913D01*
X111716502Y-85090000D01*
X111168498Y-85090000D01*
X111148543Y-84861913D01*
X111089284Y-84640757D01*
X111060037Y-84578036D01*
X110994849Y-84438238D01*
X110994846Y-84438233D01*
X110992523Y-84433251D01*
X110861198Y-84245700D01*
X110699300Y-84083802D01*
X110694792Y-84080645D01*
X110694789Y-84080643D01*
X110616611Y-84025902D01*
X110511749Y-83952477D01*
X110506767Y-83950154D01*
X110506762Y-83950151D01*
X110309225Y-83858039D01*
X110309224Y-83858039D01*
X110304243Y-83855716D01*
X110298935Y-83854294D01*
X110298933Y-83854293D01*
X110088402Y-83797881D01*
X110088400Y-83797881D01*
X110083087Y-83796457D01*
X109855000Y-83776502D01*
X109626913Y-83796457D01*
X109621600Y-83797881D01*
X109621598Y-83797881D01*
X109411067Y-83854293D01*
X109411065Y-83854294D01*
X109405757Y-83855716D01*
X109400776Y-83858039D01*
X109400775Y-83858039D01*
X109203238Y-83950151D01*
X109203233Y-83950154D01*
X109198251Y-83952477D01*
X109093389Y-84025902D01*
X109015211Y-84080643D01*
X109015208Y-84080645D01*
X109010700Y-84083802D01*
X108848802Y-84245700D01*
X108717477Y-84433251D01*
X108715154Y-84438233D01*
X108715151Y-84438238D01*
X108649963Y-84578036D01*
X108620716Y-84640757D01*
X108561457Y-84861913D01*
X108541502Y-85090000D01*
X99060000Y-85090000D01*
X99060000Y-82682703D01*
X101395743Y-82682703D01*
X101433268Y-82967734D01*
X101509129Y-83245036D01*
X101621923Y-83509476D01*
X101769561Y-83756161D01*
X101949313Y-83980528D01*
X102157851Y-84178423D01*
X102391317Y-84346186D01*
X102395112Y-84348195D01*
X102395113Y-84348196D01*
X102416869Y-84359715D01*
X102645392Y-84480712D01*
X102915373Y-84579511D01*
X103196264Y-84640755D01*
X103224841Y-84643004D01*
X103419282Y-84658307D01*
X103419291Y-84658307D01*
X103421739Y-84658500D01*
X103577271Y-84658500D01*
X103579407Y-84658354D01*
X103579418Y-84658354D01*
X103787548Y-84644165D01*
X103787554Y-84644164D01*
X103791825Y-84643873D01*
X103796020Y-84643004D01*
X103796022Y-84643004D01*
X103932584Y-84614723D01*
X104073342Y-84585574D01*
X104344343Y-84489607D01*
X104599812Y-84357750D01*
X104603313Y-84355289D01*
X104603317Y-84355287D01*
X104717418Y-84275095D01*
X104835023Y-84192441D01*
X105045622Y-83996740D01*
X105227713Y-83774268D01*
X105377927Y-83529142D01*
X105493483Y-83265898D01*
X105572244Y-82989406D01*
X105612751Y-82704784D01*
X105612845Y-82686951D01*
X105612867Y-82682703D01*
X128700743Y-82682703D01*
X128738268Y-82967734D01*
X128814129Y-83245036D01*
X128926923Y-83509476D01*
X129074561Y-83756161D01*
X129254313Y-83980528D01*
X129462851Y-84178423D01*
X129696317Y-84346186D01*
X129700112Y-84348195D01*
X129700113Y-84348196D01*
X129721869Y-84359715D01*
X129950392Y-84480712D01*
X130220373Y-84579511D01*
X130501264Y-84640755D01*
X130529841Y-84643004D01*
X130724282Y-84658307D01*
X130724291Y-84658307D01*
X130726739Y-84658500D01*
X130882271Y-84658500D01*
X130884407Y-84658354D01*
X130884418Y-84658354D01*
X131092548Y-84644165D01*
X131092554Y-84644164D01*
X131096825Y-84643873D01*
X131101020Y-84643004D01*
X131101022Y-84643004D01*
X131237584Y-84614723D01*
X131378342Y-84585574D01*
X131649343Y-84489607D01*
X131904812Y-84357750D01*
X131908313Y-84355289D01*
X131908317Y-84355287D01*
X132022418Y-84275095D01*
X132140023Y-84192441D01*
X132350622Y-83996740D01*
X132532713Y-83774268D01*
X132682927Y-83529142D01*
X132798483Y-83265898D01*
X132877244Y-82989406D01*
X132917751Y-82704784D01*
X132917845Y-82686951D01*
X132919235Y-82421583D01*
X132919235Y-82421576D01*
X132919257Y-82417297D01*
X132881732Y-82132266D01*
X132805871Y-81854964D01*
X132693077Y-81590524D01*
X132545439Y-81343839D01*
X132365687Y-81119472D01*
X132157149Y-80921577D01*
X131923683Y-80753814D01*
X131901843Y-80742250D01*
X131878654Y-80729972D01*
X131669608Y-80619288D01*
X131399627Y-80520489D01*
X131118736Y-80459245D01*
X131087685Y-80456801D01*
X130895718Y-80441693D01*
X130895709Y-80441693D01*
X130893261Y-80441500D01*
X130737729Y-80441500D01*
X130735593Y-80441646D01*
X130735582Y-80441646D01*
X130527452Y-80455835D01*
X130527446Y-80455836D01*
X130523175Y-80456127D01*
X130518980Y-80456996D01*
X130518978Y-80456996D01*
X130382416Y-80485277D01*
X130241658Y-80514426D01*
X129970657Y-80610393D01*
X129715188Y-80742250D01*
X129711687Y-80744711D01*
X129711683Y-80744713D01*
X129701594Y-80751804D01*
X129479977Y-80907559D01*
X129269378Y-81103260D01*
X129087287Y-81325732D01*
X128937073Y-81570858D01*
X128821517Y-81834102D01*
X128742756Y-82110594D01*
X128702249Y-82395216D01*
X128702227Y-82399505D01*
X128702226Y-82399512D01*
X128700765Y-82678417D01*
X128700743Y-82682703D01*
X105612867Y-82682703D01*
X105614235Y-82421583D01*
X105614235Y-82421576D01*
X105614257Y-82417297D01*
X105576732Y-82132266D01*
X105500871Y-81854964D01*
X105388077Y-81590524D01*
X105240439Y-81343839D01*
X105060687Y-81119472D01*
X104852149Y-80921577D01*
X104618683Y-80753814D01*
X104596843Y-80742250D01*
X104573654Y-80729972D01*
X104364608Y-80619288D01*
X104094627Y-80520489D01*
X103813736Y-80459245D01*
X103782685Y-80456801D01*
X103590718Y-80441693D01*
X103590709Y-80441693D01*
X103588261Y-80441500D01*
X103432729Y-80441500D01*
X103430593Y-80441646D01*
X103430582Y-80441646D01*
X103222452Y-80455835D01*
X103222446Y-80455836D01*
X103218175Y-80456127D01*
X103213980Y-80456996D01*
X103213978Y-80456996D01*
X103077416Y-80485277D01*
X102936658Y-80514426D01*
X102665657Y-80610393D01*
X102410188Y-80742250D01*
X102406687Y-80744711D01*
X102406683Y-80744713D01*
X102396594Y-80751804D01*
X102174977Y-80907559D01*
X101964378Y-81103260D01*
X101782287Y-81325732D01*
X101632073Y-81570858D01*
X101516517Y-81834102D01*
X101437756Y-82110594D01*
X101397249Y-82395216D01*
X101397227Y-82399505D01*
X101397226Y-82399512D01*
X101395765Y-82678417D01*
X101395743Y-82682703D01*
X99060000Y-82682703D01*
X99060000Y-79501000D01*
X99080002Y-79432879D01*
X99133658Y-79386386D01*
X99186000Y-79375000D01*
X135129000Y-79375000D01*
X135197121Y-79395002D01*
G37*
%TD.AperFunction*%
%TD*%
M02*
