%TF.GenerationSoftware,KiCad,Pcbnew,6.0.2+dfsg-1*%
%TF.CreationDate,2022-08-31T22:20:19-04:00*%
%TF.ProjectId,68hc11,36386863-3131-42e6-9b69-6361645f7063,1.03*%
%TF.SameCoordinates,Original*%
%TF.FileFunction,Legend,Top*%
%TF.FilePolarity,Positive*%
%FSLAX46Y46*%
G04 Gerber Fmt 4.6, Leading zero omitted, Abs format (unit mm)*
G04 Created by KiCad (PCBNEW 6.0.2+dfsg-1) date 2022-08-31 22:20:19*
%MOMM*%
%LPD*%
G01*
G04 APERTURE LIST*
%ADD10C,0.150000*%
%ADD11C,0.120000*%
%ADD12C,0.100000*%
G04 APERTURE END LIST*
D10*
X180499333Y-89114380D02*
X180832666Y-90114380D01*
X181166000Y-89114380D01*
X181880285Y-90066761D02*
X181785047Y-90114380D01*
X181594571Y-90114380D01*
X181499333Y-90066761D01*
X181451714Y-89971523D01*
X181451714Y-89590571D01*
X181499333Y-89495333D01*
X181594571Y-89447714D01*
X181785047Y-89447714D01*
X181880285Y-89495333D01*
X181927904Y-89590571D01*
X181927904Y-89685809D01*
X181451714Y-89781047D01*
X182356476Y-90114380D02*
X182356476Y-89447714D01*
X182356476Y-89638190D02*
X182404095Y-89542952D01*
X182451714Y-89495333D01*
X182546952Y-89447714D01*
X182642190Y-89447714D01*
X182927904Y-90066761D02*
X183023142Y-90114380D01*
X183213619Y-90114380D01*
X183308857Y-90066761D01*
X183356476Y-89971523D01*
X183356476Y-89923904D01*
X183308857Y-89828666D01*
X183213619Y-89781047D01*
X183070761Y-89781047D01*
X182975523Y-89733428D01*
X182927904Y-89638190D01*
X182927904Y-89590571D01*
X182975523Y-89495333D01*
X183070761Y-89447714D01*
X183213619Y-89447714D01*
X183308857Y-89495333D01*
X183785047Y-90114380D02*
X183785047Y-89447714D01*
X183785047Y-89114380D02*
X183737428Y-89162000D01*
X183785047Y-89209619D01*
X183832666Y-89162000D01*
X183785047Y-89114380D01*
X183785047Y-89209619D01*
X184404095Y-90114380D02*
X184308857Y-90066761D01*
X184261238Y-90019142D01*
X184213619Y-89923904D01*
X184213619Y-89638190D01*
X184261238Y-89542952D01*
X184308857Y-89495333D01*
X184404095Y-89447714D01*
X184546952Y-89447714D01*
X184642190Y-89495333D01*
X184689809Y-89542952D01*
X184737428Y-89638190D01*
X184737428Y-89923904D01*
X184689809Y-90019142D01*
X184642190Y-90066761D01*
X184546952Y-90114380D01*
X184404095Y-90114380D01*
X185166000Y-89447714D02*
X185166000Y-90114380D01*
X185166000Y-89542952D02*
X185213619Y-89495333D01*
X185308857Y-89447714D01*
X185451714Y-89447714D01*
X185546952Y-89495333D01*
X185594571Y-89590571D01*
X185594571Y-90114380D01*
X187356476Y-90114380D02*
X186785047Y-90114380D01*
X187070761Y-90114380D02*
X187070761Y-89114380D01*
X186975523Y-89257238D01*
X186880285Y-89352476D01*
X186785047Y-89400095D01*
X187785047Y-90019142D02*
X187832666Y-90066761D01*
X187785047Y-90114380D01*
X187737428Y-90066761D01*
X187785047Y-90019142D01*
X187785047Y-90114380D01*
X188451714Y-89114380D02*
X188546952Y-89114380D01*
X188642190Y-89162000D01*
X188689809Y-89209619D01*
X188737428Y-89304857D01*
X188785047Y-89495333D01*
X188785047Y-89733428D01*
X188737428Y-89923904D01*
X188689809Y-90019142D01*
X188642190Y-90066761D01*
X188546952Y-90114380D01*
X188451714Y-90114380D01*
X188356476Y-90066761D01*
X188308857Y-90019142D01*
X188261238Y-89923904D01*
X188213619Y-89733428D01*
X188213619Y-89495333D01*
X188261238Y-89304857D01*
X188308857Y-89209619D01*
X188356476Y-89162000D01*
X188451714Y-89114380D01*
X189118380Y-89114380D02*
X189737428Y-89114380D01*
X189404095Y-89495333D01*
X189546952Y-89495333D01*
X189642190Y-89542952D01*
X189689809Y-89590571D01*
X189737428Y-89685809D01*
X189737428Y-89923904D01*
X189689809Y-90019142D01*
X189642190Y-90066761D01*
X189546952Y-90114380D01*
X189261238Y-90114380D01*
X189166000Y-90066761D01*
X189118380Y-90019142D01*
X179158095Y-87574380D02*
X179158095Y-86574380D01*
X179491428Y-87288666D01*
X179824761Y-86574380D01*
X179824761Y-87574380D01*
X180729523Y-87574380D02*
X180729523Y-87050571D01*
X180681904Y-86955333D01*
X180586666Y-86907714D01*
X180396190Y-86907714D01*
X180300952Y-86955333D01*
X180729523Y-87526761D02*
X180634285Y-87574380D01*
X180396190Y-87574380D01*
X180300952Y-87526761D01*
X180253333Y-87431523D01*
X180253333Y-87336285D01*
X180300952Y-87241047D01*
X180396190Y-87193428D01*
X180634285Y-87193428D01*
X180729523Y-87145809D01*
X181205714Y-87574380D02*
X181205714Y-86907714D01*
X181205714Y-87098190D02*
X181253333Y-87002952D01*
X181300952Y-86955333D01*
X181396190Y-86907714D01*
X181491428Y-86907714D01*
X181777142Y-87526761D02*
X181872380Y-87574380D01*
X182062857Y-87574380D01*
X182158095Y-87526761D01*
X182205714Y-87431523D01*
X182205714Y-87383904D01*
X182158095Y-87288666D01*
X182062857Y-87241047D01*
X181920000Y-87241047D01*
X181824761Y-87193428D01*
X181777142Y-87098190D01*
X181777142Y-87050571D01*
X181824761Y-86955333D01*
X181920000Y-86907714D01*
X182062857Y-86907714D01*
X182158095Y-86955333D01*
X182634285Y-87574380D02*
X182634285Y-86574380D01*
X183062857Y-87574380D02*
X183062857Y-87050571D01*
X183015238Y-86955333D01*
X182920000Y-86907714D01*
X182777142Y-86907714D01*
X182681904Y-86955333D01*
X182634285Y-87002952D01*
X183967619Y-87574380D02*
X183967619Y-87050571D01*
X183920000Y-86955333D01*
X183824761Y-86907714D01*
X183634285Y-86907714D01*
X183539047Y-86955333D01*
X183967619Y-87526761D02*
X183872380Y-87574380D01*
X183634285Y-87574380D01*
X183539047Y-87526761D01*
X183491428Y-87431523D01*
X183491428Y-87336285D01*
X183539047Y-87241047D01*
X183634285Y-87193428D01*
X183872380Y-87193428D01*
X183967619Y-87145809D01*
X184586666Y-87574380D02*
X184491428Y-87526761D01*
X184443809Y-87431523D01*
X184443809Y-86574380D01*
X185110476Y-87574380D02*
X185015238Y-87526761D01*
X184967619Y-87431523D01*
X184967619Y-86574380D01*
X186777142Y-86622000D02*
X186681904Y-86574380D01*
X186539047Y-86574380D01*
X186396190Y-86622000D01*
X186300952Y-86717238D01*
X186253333Y-86812476D01*
X186205714Y-87002952D01*
X186205714Y-87145809D01*
X186253333Y-87336285D01*
X186300952Y-87431523D01*
X186396190Y-87526761D01*
X186539047Y-87574380D01*
X186634285Y-87574380D01*
X186777142Y-87526761D01*
X186824761Y-87479142D01*
X186824761Y-87145809D01*
X186634285Y-87145809D01*
X188539047Y-86622000D02*
X188443809Y-86574380D01*
X188300952Y-86574380D01*
X188158095Y-86622000D01*
X188062857Y-86717238D01*
X188015238Y-86812476D01*
X187967619Y-87002952D01*
X187967619Y-87145809D01*
X188015238Y-87336285D01*
X188062857Y-87431523D01*
X188158095Y-87526761D01*
X188300952Y-87574380D01*
X188396190Y-87574380D01*
X188539047Y-87526761D01*
X188586666Y-87479142D01*
X188586666Y-87145809D01*
X188396190Y-87145809D01*
X189443809Y-87574380D02*
X189443809Y-87050571D01*
X189396190Y-86955333D01*
X189300952Y-86907714D01*
X189110476Y-86907714D01*
X189015238Y-86955333D01*
X189443809Y-87526761D02*
X189348571Y-87574380D01*
X189110476Y-87574380D01*
X189015238Y-87526761D01*
X188967619Y-87431523D01*
X188967619Y-87336285D01*
X189015238Y-87241047D01*
X189110476Y-87193428D01*
X189348571Y-87193428D01*
X189443809Y-87145809D01*
X189777142Y-86907714D02*
X190158095Y-86907714D01*
X189920000Y-86574380D02*
X189920000Y-87431523D01*
X189967619Y-87526761D01*
X190062857Y-87574380D01*
X190158095Y-87574380D01*
X190872380Y-87526761D02*
X190777142Y-87574380D01*
X190586666Y-87574380D01*
X190491428Y-87526761D01*
X190443809Y-87431523D01*
X190443809Y-87050571D01*
X190491428Y-86955333D01*
X190586666Y-86907714D01*
X190777142Y-86907714D01*
X190872380Y-86955333D01*
X190920000Y-87050571D01*
X190920000Y-87145809D01*
X190443809Y-87241047D01*
X191300952Y-87526761D02*
X191396190Y-87574380D01*
X191586666Y-87574380D01*
X191681904Y-87526761D01*
X191729523Y-87431523D01*
X191729523Y-87383904D01*
X191681904Y-87288666D01*
X191586666Y-87241047D01*
X191443809Y-87241047D01*
X191348571Y-87193428D01*
X191300952Y-87098190D01*
X191300952Y-87050571D01*
X191348571Y-86955333D01*
X191443809Y-86907714D01*
X191586666Y-86907714D01*
X191681904Y-86955333D01*
X176658000Y-85034380D02*
X176658000Y-84034380D01*
X176991333Y-84748666D01*
X177324666Y-84034380D01*
X177324666Y-85034380D01*
X178372285Y-84939142D02*
X178324666Y-84986761D01*
X178181809Y-85034380D01*
X178086571Y-85034380D01*
X177943714Y-84986761D01*
X177848476Y-84891523D01*
X177800857Y-84796285D01*
X177753238Y-84605809D01*
X177753238Y-84462952D01*
X177800857Y-84272476D01*
X177848476Y-84177238D01*
X177943714Y-84082000D01*
X178086571Y-84034380D01*
X178181809Y-84034380D01*
X178324666Y-84082000D01*
X178372285Y-84129619D01*
X179229428Y-84034380D02*
X179038952Y-84034380D01*
X178943714Y-84082000D01*
X178896095Y-84129619D01*
X178800857Y-84272476D01*
X178753238Y-84462952D01*
X178753238Y-84843904D01*
X178800857Y-84939142D01*
X178848476Y-84986761D01*
X178943714Y-85034380D01*
X179134190Y-85034380D01*
X179229428Y-84986761D01*
X179277047Y-84939142D01*
X179324666Y-84843904D01*
X179324666Y-84605809D01*
X179277047Y-84510571D01*
X179229428Y-84462952D01*
X179134190Y-84415333D01*
X178943714Y-84415333D01*
X178848476Y-84462952D01*
X178800857Y-84510571D01*
X178753238Y-84605809D01*
X179896095Y-84462952D02*
X179800857Y-84415333D01*
X179753238Y-84367714D01*
X179705619Y-84272476D01*
X179705619Y-84224857D01*
X179753238Y-84129619D01*
X179800857Y-84082000D01*
X179896095Y-84034380D01*
X180086571Y-84034380D01*
X180181809Y-84082000D01*
X180229428Y-84129619D01*
X180277047Y-84224857D01*
X180277047Y-84272476D01*
X180229428Y-84367714D01*
X180181809Y-84415333D01*
X180086571Y-84462952D01*
X179896095Y-84462952D01*
X179800857Y-84510571D01*
X179753238Y-84558190D01*
X179705619Y-84653428D01*
X179705619Y-84843904D01*
X179753238Y-84939142D01*
X179800857Y-84986761D01*
X179896095Y-85034380D01*
X180086571Y-85034380D01*
X180181809Y-84986761D01*
X180229428Y-84939142D01*
X180277047Y-84843904D01*
X180277047Y-84653428D01*
X180229428Y-84558190D01*
X180181809Y-84510571D01*
X180086571Y-84462952D01*
X180705619Y-85034380D02*
X180705619Y-84034380D01*
X180705619Y-84510571D02*
X181277047Y-84510571D01*
X181277047Y-85034380D02*
X181277047Y-84034380D01*
X182324666Y-84939142D02*
X182277047Y-84986761D01*
X182134190Y-85034380D01*
X182038952Y-85034380D01*
X181896095Y-84986761D01*
X181800857Y-84891523D01*
X181753238Y-84796285D01*
X181705619Y-84605809D01*
X181705619Y-84462952D01*
X181753238Y-84272476D01*
X181800857Y-84177238D01*
X181896095Y-84082000D01*
X182038952Y-84034380D01*
X182134190Y-84034380D01*
X182277047Y-84082000D01*
X182324666Y-84129619D01*
X183277047Y-85034380D02*
X182705619Y-85034380D01*
X182991333Y-85034380D02*
X182991333Y-84034380D01*
X182896095Y-84177238D01*
X182800857Y-84272476D01*
X182705619Y-84320095D01*
X184229428Y-85034380D02*
X183658000Y-85034380D01*
X183943714Y-85034380D02*
X183943714Y-84034380D01*
X183848476Y-84177238D01*
X183753238Y-84272476D01*
X183658000Y-84320095D01*
X185419904Y-85034380D02*
X185419904Y-84034380D01*
X185658000Y-84034380D01*
X185800857Y-84082000D01*
X185896095Y-84177238D01*
X185943714Y-84272476D01*
X185991333Y-84462952D01*
X185991333Y-84605809D01*
X185943714Y-84796285D01*
X185896095Y-84891523D01*
X185800857Y-84986761D01*
X185658000Y-85034380D01*
X185419904Y-85034380D01*
X186800857Y-84986761D02*
X186705619Y-85034380D01*
X186515142Y-85034380D01*
X186419904Y-84986761D01*
X186372285Y-84891523D01*
X186372285Y-84510571D01*
X186419904Y-84415333D01*
X186515142Y-84367714D01*
X186705619Y-84367714D01*
X186800857Y-84415333D01*
X186848476Y-84510571D01*
X186848476Y-84605809D01*
X186372285Y-84701047D01*
X187181809Y-84367714D02*
X187419904Y-85034380D01*
X187658000Y-84367714D01*
X189134190Y-84510571D02*
X189277047Y-84558190D01*
X189324666Y-84605809D01*
X189372285Y-84701047D01*
X189372285Y-84843904D01*
X189324666Y-84939142D01*
X189277047Y-84986761D01*
X189181809Y-85034380D01*
X188800857Y-85034380D01*
X188800857Y-84034380D01*
X189134190Y-84034380D01*
X189229428Y-84082000D01*
X189277047Y-84129619D01*
X189324666Y-84224857D01*
X189324666Y-84320095D01*
X189277047Y-84415333D01*
X189229428Y-84462952D01*
X189134190Y-84510571D01*
X188800857Y-84510571D01*
X189943714Y-85034380D02*
X189848476Y-84986761D01*
X189800857Y-84939142D01*
X189753238Y-84843904D01*
X189753238Y-84558190D01*
X189800857Y-84462952D01*
X189848476Y-84415333D01*
X189943714Y-84367714D01*
X190086571Y-84367714D01*
X190181809Y-84415333D01*
X190229428Y-84462952D01*
X190277047Y-84558190D01*
X190277047Y-84843904D01*
X190229428Y-84939142D01*
X190181809Y-84986761D01*
X190086571Y-85034380D01*
X189943714Y-85034380D01*
X191134190Y-85034380D02*
X191134190Y-84510571D01*
X191086571Y-84415333D01*
X190991333Y-84367714D01*
X190800857Y-84367714D01*
X190705619Y-84415333D01*
X191134190Y-84986761D02*
X191038952Y-85034380D01*
X190800857Y-85034380D01*
X190705619Y-84986761D01*
X190658000Y-84891523D01*
X190658000Y-84796285D01*
X190705619Y-84701047D01*
X190800857Y-84653428D01*
X191038952Y-84653428D01*
X191134190Y-84605809D01*
X191610380Y-85034380D02*
X191610380Y-84367714D01*
X191610380Y-84558190D02*
X191658000Y-84462952D01*
X191705619Y-84415333D01*
X191800857Y-84367714D01*
X191896095Y-84367714D01*
X192658000Y-85034380D02*
X192658000Y-84034380D01*
X192658000Y-84986761D02*
X192562761Y-85034380D01*
X192372285Y-85034380D01*
X192277047Y-84986761D01*
X192229428Y-84939142D01*
X192181809Y-84843904D01*
X192181809Y-84558190D01*
X192229428Y-84462952D01*
X192277047Y-84415333D01*
X192372285Y-84367714D01*
X192562761Y-84367714D01*
X192658000Y-84415333D01*
%TO.C,H4*%
X34036095Y-143256380D02*
X34036095Y-142256380D01*
X34036095Y-142732571D02*
X34607523Y-142732571D01*
X34607523Y-143256380D02*
X34607523Y-142256380D01*
X35512285Y-142589714D02*
X35512285Y-143256380D01*
X35274190Y-142208761D02*
X35036095Y-142923047D01*
X35655142Y-142923047D01*
%TO.C,H3*%
X213614095Y-143510380D02*
X213614095Y-142510380D01*
X213614095Y-142986571D02*
X214185523Y-142986571D01*
X214185523Y-143510380D02*
X214185523Y-142510380D01*
X214566476Y-142510380D02*
X215185523Y-142510380D01*
X214852190Y-142891333D01*
X214995047Y-142891333D01*
X215090285Y-142938952D01*
X215137904Y-142986571D01*
X215185523Y-143081809D01*
X215185523Y-143319904D01*
X215137904Y-143415142D01*
X215090285Y-143462761D01*
X214995047Y-143510380D01*
X214709333Y-143510380D01*
X214614095Y-143462761D01*
X214566476Y-143415142D01*
%TO.C,H2*%
X213868095Y-25908380D02*
X213868095Y-24908380D01*
X213868095Y-25384571D02*
X214439523Y-25384571D01*
X214439523Y-25908380D02*
X214439523Y-24908380D01*
X214868095Y-25003619D02*
X214915714Y-24956000D01*
X215010952Y-24908380D01*
X215249047Y-24908380D01*
X215344285Y-24956000D01*
X215391904Y-25003619D01*
X215439523Y-25098857D01*
X215439523Y-25194095D01*
X215391904Y-25336952D01*
X214820476Y-25908380D01*
X215439523Y-25908380D01*
%TO.C,H1*%
X34290095Y-25908380D02*
X34290095Y-24908380D01*
X34290095Y-25384571D02*
X34861523Y-25384571D01*
X34861523Y-25908380D02*
X34861523Y-24908380D01*
X35861523Y-25908380D02*
X35290095Y-25908380D01*
X35575809Y-25908380D02*
X35575809Y-24908380D01*
X35480571Y-25051238D01*
X35385333Y-25146476D01*
X35290095Y-25194095D01*
%TO.C,C23*%
X43157142Y-143907142D02*
X43109523Y-143954761D01*
X42966666Y-144002380D01*
X42871428Y-144002380D01*
X42728571Y-143954761D01*
X42633333Y-143859523D01*
X42585714Y-143764285D01*
X42538095Y-143573809D01*
X42538095Y-143430952D01*
X42585714Y-143240476D01*
X42633333Y-143145238D01*
X42728571Y-143050000D01*
X42871428Y-143002380D01*
X42966666Y-143002380D01*
X43109523Y-143050000D01*
X43157142Y-143097619D01*
X43538095Y-143097619D02*
X43585714Y-143050000D01*
X43680952Y-143002380D01*
X43919047Y-143002380D01*
X44014285Y-143050000D01*
X44061904Y-143097619D01*
X44109523Y-143192857D01*
X44109523Y-143288095D01*
X44061904Y-143430952D01*
X43490476Y-144002380D01*
X44109523Y-144002380D01*
X44442857Y-143002380D02*
X45061904Y-143002380D01*
X44728571Y-143383333D01*
X44871428Y-143383333D01*
X44966666Y-143430952D01*
X45014285Y-143478571D01*
X45061904Y-143573809D01*
X45061904Y-143811904D01*
X45014285Y-143907142D01*
X44966666Y-143954761D01*
X44871428Y-144002380D01*
X44585714Y-144002380D01*
X44490476Y-143954761D01*
X44442857Y-143907142D01*
%TO.C,U8*%
X134058095Y-91922380D02*
X134058095Y-92731904D01*
X134105714Y-92827142D01*
X134153333Y-92874761D01*
X134248571Y-92922380D01*
X134439047Y-92922380D01*
X134534285Y-92874761D01*
X134581904Y-92827142D01*
X134629523Y-92731904D01*
X134629523Y-91922380D01*
X135248571Y-92350952D02*
X135153333Y-92303333D01*
X135105714Y-92255714D01*
X135058095Y-92160476D01*
X135058095Y-92112857D01*
X135105714Y-92017619D01*
X135153333Y-91970000D01*
X135248571Y-91922380D01*
X135439047Y-91922380D01*
X135534285Y-91970000D01*
X135581904Y-92017619D01*
X135629523Y-92112857D01*
X135629523Y-92160476D01*
X135581904Y-92255714D01*
X135534285Y-92303333D01*
X135439047Y-92350952D01*
X135248571Y-92350952D01*
X135153333Y-92398571D01*
X135105714Y-92446190D01*
X135058095Y-92541428D01*
X135058095Y-92731904D01*
X135105714Y-92827142D01*
X135153333Y-92874761D01*
X135248571Y-92922380D01*
X135439047Y-92922380D01*
X135534285Y-92874761D01*
X135581904Y-92827142D01*
X135629523Y-92731904D01*
X135629523Y-92541428D01*
X135581904Y-92446190D01*
X135534285Y-92398571D01*
X135439047Y-92350952D01*
%TO.C,C12*%
X178607142Y-32307142D02*
X178559523Y-32354761D01*
X178416666Y-32402380D01*
X178321428Y-32402380D01*
X178178571Y-32354761D01*
X178083333Y-32259523D01*
X178035714Y-32164285D01*
X177988095Y-31973809D01*
X177988095Y-31830952D01*
X178035714Y-31640476D01*
X178083333Y-31545238D01*
X178178571Y-31450000D01*
X178321428Y-31402380D01*
X178416666Y-31402380D01*
X178559523Y-31450000D01*
X178607142Y-31497619D01*
X179559523Y-32402380D02*
X178988095Y-32402380D01*
X179273809Y-32402380D02*
X179273809Y-31402380D01*
X179178571Y-31545238D01*
X179083333Y-31640476D01*
X178988095Y-31688095D01*
X179940476Y-31497619D02*
X179988095Y-31450000D01*
X180083333Y-31402380D01*
X180321428Y-31402380D01*
X180416666Y-31450000D01*
X180464285Y-31497619D01*
X180511904Y-31592857D01*
X180511904Y-31688095D01*
X180464285Y-31830952D01*
X179892857Y-32402380D01*
X180511904Y-32402380D01*
%TO.C,JP4*%
X188922380Y-44833333D02*
X189636666Y-44833333D01*
X189779523Y-44880952D01*
X189874761Y-44976190D01*
X189922380Y-45119047D01*
X189922380Y-45214285D01*
X189922380Y-44357142D02*
X188922380Y-44357142D01*
X188922380Y-43976190D01*
X188970000Y-43880952D01*
X189017619Y-43833333D01*
X189112857Y-43785714D01*
X189255714Y-43785714D01*
X189350952Y-43833333D01*
X189398571Y-43880952D01*
X189446190Y-43976190D01*
X189446190Y-44357142D01*
X189255714Y-42928571D02*
X189922380Y-42928571D01*
X188874761Y-43166666D02*
X189589047Y-43404761D01*
X189589047Y-42785714D01*
X192278285Y-46410571D02*
X192421142Y-46458190D01*
X192468761Y-46505809D01*
X192516380Y-46601047D01*
X192516380Y-46743904D01*
X192468761Y-46839142D01*
X192421142Y-46886761D01*
X192325904Y-46934380D01*
X191944952Y-46934380D01*
X191944952Y-45934380D01*
X192278285Y-45934380D01*
X192373523Y-45982000D01*
X192421142Y-46029619D01*
X192468761Y-46124857D01*
X192468761Y-46220095D01*
X192421142Y-46315333D01*
X192373523Y-46362952D01*
X192278285Y-46410571D01*
X191944952Y-46410571D01*
X193087809Y-46934380D02*
X192992571Y-46886761D01*
X192944952Y-46839142D01*
X192897333Y-46743904D01*
X192897333Y-46458190D01*
X192944952Y-46362952D01*
X192992571Y-46315333D01*
X193087809Y-46267714D01*
X193230666Y-46267714D01*
X193325904Y-46315333D01*
X193373523Y-46362952D01*
X193421142Y-46458190D01*
X193421142Y-46743904D01*
X193373523Y-46839142D01*
X193325904Y-46886761D01*
X193230666Y-46934380D01*
X193087809Y-46934380D01*
X193992571Y-46934380D02*
X193897333Y-46886761D01*
X193849714Y-46839142D01*
X193802095Y-46743904D01*
X193802095Y-46458190D01*
X193849714Y-46362952D01*
X193897333Y-46315333D01*
X193992571Y-46267714D01*
X194135428Y-46267714D01*
X194230666Y-46315333D01*
X194278285Y-46362952D01*
X194325904Y-46458190D01*
X194325904Y-46743904D01*
X194278285Y-46839142D01*
X194230666Y-46886761D01*
X194135428Y-46934380D01*
X193992571Y-46934380D01*
X194611619Y-46267714D02*
X194992571Y-46267714D01*
X194754476Y-45934380D02*
X194754476Y-46791523D01*
X194802095Y-46886761D01*
X194897333Y-46934380D01*
X194992571Y-46934380D01*
X195278285Y-46886761D02*
X195421142Y-46934380D01*
X195659238Y-46934380D01*
X195754476Y-46886761D01*
X195802095Y-46839142D01*
X195849714Y-46743904D01*
X195849714Y-46648666D01*
X195802095Y-46553428D01*
X195754476Y-46505809D01*
X195659238Y-46458190D01*
X195468761Y-46410571D01*
X195373523Y-46362952D01*
X195325904Y-46315333D01*
X195278285Y-46220095D01*
X195278285Y-46124857D01*
X195325904Y-46029619D01*
X195373523Y-45982000D01*
X195468761Y-45934380D01*
X195706857Y-45934380D01*
X195849714Y-45982000D01*
X196659238Y-46886761D02*
X196564000Y-46934380D01*
X196373523Y-46934380D01*
X196278285Y-46886761D01*
X196230666Y-46791523D01*
X196230666Y-46410571D01*
X196278285Y-46315333D01*
X196373523Y-46267714D01*
X196564000Y-46267714D01*
X196659238Y-46315333D01*
X196706857Y-46410571D01*
X196706857Y-46505809D01*
X196230666Y-46601047D01*
X197278285Y-46934380D02*
X197183047Y-46886761D01*
X197135428Y-46791523D01*
X197135428Y-45934380D01*
%TO.C,C5*%
X184033333Y-46107142D02*
X183985714Y-46154761D01*
X183842857Y-46202380D01*
X183747619Y-46202380D01*
X183604761Y-46154761D01*
X183509523Y-46059523D01*
X183461904Y-45964285D01*
X183414285Y-45773809D01*
X183414285Y-45630952D01*
X183461904Y-45440476D01*
X183509523Y-45345238D01*
X183604761Y-45250000D01*
X183747619Y-45202380D01*
X183842857Y-45202380D01*
X183985714Y-45250000D01*
X184033333Y-45297619D01*
X184938095Y-45202380D02*
X184461904Y-45202380D01*
X184414285Y-45678571D01*
X184461904Y-45630952D01*
X184557142Y-45583333D01*
X184795238Y-45583333D01*
X184890476Y-45630952D01*
X184938095Y-45678571D01*
X184985714Y-45773809D01*
X184985714Y-46011904D01*
X184938095Y-46107142D01*
X184890476Y-46154761D01*
X184795238Y-46202380D01*
X184557142Y-46202380D01*
X184461904Y-46154761D01*
X184414285Y-46107142D01*
%TO.C,U7*%
X114058095Y-91922380D02*
X114058095Y-92731904D01*
X114105714Y-92827142D01*
X114153333Y-92874761D01*
X114248571Y-92922380D01*
X114439047Y-92922380D01*
X114534285Y-92874761D01*
X114581904Y-92827142D01*
X114629523Y-92731904D01*
X114629523Y-91922380D01*
X115010476Y-91922380D02*
X115677142Y-91922380D01*
X115248571Y-92922380D01*
%TO.C,J11*%
X96362380Y-140809523D02*
X97076666Y-140809523D01*
X97219523Y-140857142D01*
X97314761Y-140952380D01*
X97362380Y-141095238D01*
X97362380Y-141190476D01*
X97362380Y-139809523D02*
X97362380Y-140380952D01*
X97362380Y-140095238D02*
X96362380Y-140095238D01*
X96505238Y-140190476D01*
X96600476Y-140285714D01*
X96648095Y-140380952D01*
X97362380Y-138857142D02*
X97362380Y-139428571D01*
X97362380Y-139142857D02*
X96362380Y-139142857D01*
X96505238Y-139238095D01*
X96600476Y-139333333D01*
X96648095Y-139428571D01*
X118253428Y-143422666D02*
X118729619Y-143422666D01*
X118158190Y-143708380D02*
X118491523Y-142708380D01*
X118824857Y-143708380D01*
X119586761Y-143708380D02*
X119586761Y-142708380D01*
X119586761Y-143660761D02*
X119491523Y-143708380D01*
X119301047Y-143708380D01*
X119205809Y-143660761D01*
X119158190Y-143613142D01*
X119110571Y-143517904D01*
X119110571Y-143232190D01*
X119158190Y-143136952D01*
X119205809Y-143089333D01*
X119301047Y-143041714D01*
X119491523Y-143041714D01*
X119586761Y-143089333D01*
X120491523Y-143708380D02*
X120491523Y-142708380D01*
X120491523Y-143660761D02*
X120396285Y-143708380D01*
X120205809Y-143708380D01*
X120110571Y-143660761D01*
X120062952Y-143613142D01*
X120015333Y-143517904D01*
X120015333Y-143232190D01*
X120062952Y-143136952D01*
X120110571Y-143089333D01*
X120205809Y-143041714D01*
X120396285Y-143041714D01*
X120491523Y-143089333D01*
X120967714Y-143708380D02*
X120967714Y-143041714D01*
X120967714Y-143232190D02*
X121015333Y-143136952D01*
X121062952Y-143089333D01*
X121158190Y-143041714D01*
X121253428Y-143041714D01*
X121967714Y-143660761D02*
X121872476Y-143708380D01*
X121682000Y-143708380D01*
X121586761Y-143660761D01*
X121539142Y-143565523D01*
X121539142Y-143184571D01*
X121586761Y-143089333D01*
X121682000Y-143041714D01*
X121872476Y-143041714D01*
X121967714Y-143089333D01*
X122015333Y-143184571D01*
X122015333Y-143279809D01*
X121539142Y-143375047D01*
X122396285Y-143660761D02*
X122491523Y-143708380D01*
X122682000Y-143708380D01*
X122777238Y-143660761D01*
X122824857Y-143565523D01*
X122824857Y-143517904D01*
X122777238Y-143422666D01*
X122682000Y-143375047D01*
X122539142Y-143375047D01*
X122443904Y-143327428D01*
X122396285Y-143232190D01*
X122396285Y-143184571D01*
X122443904Y-143089333D01*
X122539142Y-143041714D01*
X122682000Y-143041714D01*
X122777238Y-143089333D01*
X123205809Y-143660761D02*
X123301047Y-143708380D01*
X123491523Y-143708380D01*
X123586761Y-143660761D01*
X123634380Y-143565523D01*
X123634380Y-143517904D01*
X123586761Y-143422666D01*
X123491523Y-143375047D01*
X123348666Y-143375047D01*
X123253428Y-143327428D01*
X123205809Y-143232190D01*
X123205809Y-143184571D01*
X123253428Y-143089333D01*
X123348666Y-143041714D01*
X123491523Y-143041714D01*
X123586761Y-143089333D01*
X125158190Y-143184571D02*
X125301047Y-143232190D01*
X125348666Y-143279809D01*
X125396285Y-143375047D01*
X125396285Y-143517904D01*
X125348666Y-143613142D01*
X125301047Y-143660761D01*
X125205809Y-143708380D01*
X124824857Y-143708380D01*
X124824857Y-142708380D01*
X125158190Y-142708380D01*
X125253428Y-142756000D01*
X125301047Y-142803619D01*
X125348666Y-142898857D01*
X125348666Y-142994095D01*
X125301047Y-143089333D01*
X125253428Y-143136952D01*
X125158190Y-143184571D01*
X124824857Y-143184571D01*
X126253428Y-143041714D02*
X126253428Y-143708380D01*
X125824857Y-143041714D02*
X125824857Y-143565523D01*
X125872476Y-143660761D01*
X125967714Y-143708380D01*
X126110571Y-143708380D01*
X126205809Y-143660761D01*
X126253428Y-143613142D01*
X126682000Y-143660761D02*
X126777238Y-143708380D01*
X126967714Y-143708380D01*
X127062952Y-143660761D01*
X127110571Y-143565523D01*
X127110571Y-143517904D01*
X127062952Y-143422666D01*
X126967714Y-143375047D01*
X126824857Y-143375047D01*
X126729619Y-143327428D01*
X126682000Y-143232190D01*
X126682000Y-143184571D01*
X126729619Y-143089333D01*
X126824857Y-143041714D01*
X126967714Y-143041714D01*
X127062952Y-143089333D01*
%TO.C,C4*%
X83683333Y-27707142D02*
X83635714Y-27754761D01*
X83492857Y-27802380D01*
X83397619Y-27802380D01*
X83254761Y-27754761D01*
X83159523Y-27659523D01*
X83111904Y-27564285D01*
X83064285Y-27373809D01*
X83064285Y-27230952D01*
X83111904Y-27040476D01*
X83159523Y-26945238D01*
X83254761Y-26850000D01*
X83397619Y-26802380D01*
X83492857Y-26802380D01*
X83635714Y-26850000D01*
X83683333Y-26897619D01*
X84540476Y-27135714D02*
X84540476Y-27802380D01*
X84302380Y-26754761D02*
X84064285Y-27469047D01*
X84683333Y-27469047D01*
%TO.C,C19*%
X117757142Y-59707142D02*
X117709523Y-59754761D01*
X117566666Y-59802380D01*
X117471428Y-59802380D01*
X117328571Y-59754761D01*
X117233333Y-59659523D01*
X117185714Y-59564285D01*
X117138095Y-59373809D01*
X117138095Y-59230952D01*
X117185714Y-59040476D01*
X117233333Y-58945238D01*
X117328571Y-58850000D01*
X117471428Y-58802380D01*
X117566666Y-58802380D01*
X117709523Y-58850000D01*
X117757142Y-58897619D01*
X118709523Y-59802380D02*
X118138095Y-59802380D01*
X118423809Y-59802380D02*
X118423809Y-58802380D01*
X118328571Y-58945238D01*
X118233333Y-59040476D01*
X118138095Y-59088095D01*
X119185714Y-59802380D02*
X119376190Y-59802380D01*
X119471428Y-59754761D01*
X119519047Y-59707142D01*
X119614285Y-59564285D01*
X119661904Y-59373809D01*
X119661904Y-58992857D01*
X119614285Y-58897619D01*
X119566666Y-58850000D01*
X119471428Y-58802380D01*
X119280952Y-58802380D01*
X119185714Y-58850000D01*
X119138095Y-58897619D01*
X119090476Y-58992857D01*
X119090476Y-59230952D01*
X119138095Y-59326190D01*
X119185714Y-59373809D01*
X119280952Y-59421428D01*
X119471428Y-59421428D01*
X119566666Y-59373809D01*
X119614285Y-59326190D01*
X119661904Y-59230952D01*
%TO.C,C10*%
X103357142Y-28107142D02*
X103309523Y-28154761D01*
X103166666Y-28202380D01*
X103071428Y-28202380D01*
X102928571Y-28154761D01*
X102833333Y-28059523D01*
X102785714Y-27964285D01*
X102738095Y-27773809D01*
X102738095Y-27630952D01*
X102785714Y-27440476D01*
X102833333Y-27345238D01*
X102928571Y-27250000D01*
X103071428Y-27202380D01*
X103166666Y-27202380D01*
X103309523Y-27250000D01*
X103357142Y-27297619D01*
X104309523Y-28202380D02*
X103738095Y-28202380D01*
X104023809Y-28202380D02*
X104023809Y-27202380D01*
X103928571Y-27345238D01*
X103833333Y-27440476D01*
X103738095Y-27488095D01*
X104928571Y-27202380D02*
X105023809Y-27202380D01*
X105119047Y-27250000D01*
X105166666Y-27297619D01*
X105214285Y-27392857D01*
X105261904Y-27583333D01*
X105261904Y-27821428D01*
X105214285Y-28011904D01*
X105166666Y-28107142D01*
X105119047Y-28154761D01*
X105023809Y-28202380D01*
X104928571Y-28202380D01*
X104833333Y-28154761D01*
X104785714Y-28107142D01*
X104738095Y-28011904D01*
X104690476Y-27821428D01*
X104690476Y-27583333D01*
X104738095Y-27392857D01*
X104785714Y-27297619D01*
X104833333Y-27250000D01*
X104928571Y-27202380D01*
%TO.C,C9*%
X191233333Y-104307142D02*
X191185714Y-104354761D01*
X191042857Y-104402380D01*
X190947619Y-104402380D01*
X190804761Y-104354761D01*
X190709523Y-104259523D01*
X190661904Y-104164285D01*
X190614285Y-103973809D01*
X190614285Y-103830952D01*
X190661904Y-103640476D01*
X190709523Y-103545238D01*
X190804761Y-103450000D01*
X190947619Y-103402380D01*
X191042857Y-103402380D01*
X191185714Y-103450000D01*
X191233333Y-103497619D01*
X191709523Y-104402380D02*
X191900000Y-104402380D01*
X191995238Y-104354761D01*
X192042857Y-104307142D01*
X192138095Y-104164285D01*
X192185714Y-103973809D01*
X192185714Y-103592857D01*
X192138095Y-103497619D01*
X192090476Y-103450000D01*
X191995238Y-103402380D01*
X191804761Y-103402380D01*
X191709523Y-103450000D01*
X191661904Y-103497619D01*
X191614285Y-103592857D01*
X191614285Y-103830952D01*
X191661904Y-103926190D01*
X191709523Y-103973809D01*
X191804761Y-104021428D01*
X191995238Y-104021428D01*
X192090476Y-103973809D01*
X192138095Y-103926190D01*
X192185714Y-103830952D01*
%TO.C,U12*%
X111371904Y-32697380D02*
X111371904Y-33506904D01*
X111419523Y-33602142D01*
X111467142Y-33649761D01*
X111562380Y-33697380D01*
X111752857Y-33697380D01*
X111848095Y-33649761D01*
X111895714Y-33602142D01*
X111943333Y-33506904D01*
X111943333Y-32697380D01*
X112943333Y-33697380D02*
X112371904Y-33697380D01*
X112657619Y-33697380D02*
X112657619Y-32697380D01*
X112562380Y-32840238D01*
X112467142Y-32935476D01*
X112371904Y-32983095D01*
X113324285Y-32792619D02*
X113371904Y-32745000D01*
X113467142Y-32697380D01*
X113705238Y-32697380D01*
X113800476Y-32745000D01*
X113848095Y-32792619D01*
X113895714Y-32887857D01*
X113895714Y-32983095D01*
X113848095Y-33125952D01*
X113276666Y-33697380D01*
X113895714Y-33697380D01*
%TO.C,R2*%
X175833333Y-48372380D02*
X175500000Y-47896190D01*
X175261904Y-48372380D02*
X175261904Y-47372380D01*
X175642857Y-47372380D01*
X175738095Y-47420000D01*
X175785714Y-47467619D01*
X175833333Y-47562857D01*
X175833333Y-47705714D01*
X175785714Y-47800952D01*
X175738095Y-47848571D01*
X175642857Y-47896190D01*
X175261904Y-47896190D01*
X176214285Y-47467619D02*
X176261904Y-47420000D01*
X176357142Y-47372380D01*
X176595238Y-47372380D01*
X176690476Y-47420000D01*
X176738095Y-47467619D01*
X176785714Y-47562857D01*
X176785714Y-47658095D01*
X176738095Y-47800952D01*
X176166666Y-48372380D01*
X176785714Y-48372380D01*
%TO.C,C21*%
X117157142Y-28107142D02*
X117109523Y-28154761D01*
X116966666Y-28202380D01*
X116871428Y-28202380D01*
X116728571Y-28154761D01*
X116633333Y-28059523D01*
X116585714Y-27964285D01*
X116538095Y-27773809D01*
X116538095Y-27630952D01*
X116585714Y-27440476D01*
X116633333Y-27345238D01*
X116728571Y-27250000D01*
X116871428Y-27202380D01*
X116966666Y-27202380D01*
X117109523Y-27250000D01*
X117157142Y-27297619D01*
X117538095Y-27297619D02*
X117585714Y-27250000D01*
X117680952Y-27202380D01*
X117919047Y-27202380D01*
X118014285Y-27250000D01*
X118061904Y-27297619D01*
X118109523Y-27392857D01*
X118109523Y-27488095D01*
X118061904Y-27630952D01*
X117490476Y-28202380D01*
X118109523Y-28202380D01*
X119061904Y-28202380D02*
X118490476Y-28202380D01*
X118776190Y-28202380D02*
X118776190Y-27202380D01*
X118680952Y-27345238D01*
X118585714Y-27440476D01*
X118490476Y-27488095D01*
%TO.C,C18*%
X102937142Y-59707142D02*
X102889523Y-59754761D01*
X102746666Y-59802380D01*
X102651428Y-59802380D01*
X102508571Y-59754761D01*
X102413333Y-59659523D01*
X102365714Y-59564285D01*
X102318095Y-59373809D01*
X102318095Y-59230952D01*
X102365714Y-59040476D01*
X102413333Y-58945238D01*
X102508571Y-58850000D01*
X102651428Y-58802380D01*
X102746666Y-58802380D01*
X102889523Y-58850000D01*
X102937142Y-58897619D01*
X103889523Y-59802380D02*
X103318095Y-59802380D01*
X103603809Y-59802380D02*
X103603809Y-58802380D01*
X103508571Y-58945238D01*
X103413333Y-59040476D01*
X103318095Y-59088095D01*
X104460952Y-59230952D02*
X104365714Y-59183333D01*
X104318095Y-59135714D01*
X104270476Y-59040476D01*
X104270476Y-58992857D01*
X104318095Y-58897619D01*
X104365714Y-58850000D01*
X104460952Y-58802380D01*
X104651428Y-58802380D01*
X104746666Y-58850000D01*
X104794285Y-58897619D01*
X104841904Y-58992857D01*
X104841904Y-59040476D01*
X104794285Y-59135714D01*
X104746666Y-59183333D01*
X104651428Y-59230952D01*
X104460952Y-59230952D01*
X104365714Y-59278571D01*
X104318095Y-59326190D01*
X104270476Y-59421428D01*
X104270476Y-59611904D01*
X104318095Y-59707142D01*
X104365714Y-59754761D01*
X104460952Y-59802380D01*
X104651428Y-59802380D01*
X104746666Y-59754761D01*
X104794285Y-59707142D01*
X104841904Y-59611904D01*
X104841904Y-59421428D01*
X104794285Y-59326190D01*
X104746666Y-59278571D01*
X104651428Y-59230952D01*
%TO.C,C6*%
X71433333Y-89307142D02*
X71385714Y-89354761D01*
X71242857Y-89402380D01*
X71147619Y-89402380D01*
X71004761Y-89354761D01*
X70909523Y-89259523D01*
X70861904Y-89164285D01*
X70814285Y-88973809D01*
X70814285Y-88830952D01*
X70861904Y-88640476D01*
X70909523Y-88545238D01*
X71004761Y-88450000D01*
X71147619Y-88402380D01*
X71242857Y-88402380D01*
X71385714Y-88450000D01*
X71433333Y-88497619D01*
X72290476Y-88402380D02*
X72100000Y-88402380D01*
X72004761Y-88450000D01*
X71957142Y-88497619D01*
X71861904Y-88640476D01*
X71814285Y-88830952D01*
X71814285Y-89211904D01*
X71861904Y-89307142D01*
X71909523Y-89354761D01*
X72004761Y-89402380D01*
X72195238Y-89402380D01*
X72290476Y-89354761D01*
X72338095Y-89307142D01*
X72385714Y-89211904D01*
X72385714Y-88973809D01*
X72338095Y-88878571D01*
X72290476Y-88830952D01*
X72195238Y-88783333D01*
X72004761Y-88783333D01*
X71909523Y-88830952D01*
X71861904Y-88878571D01*
X71814285Y-88973809D01*
%TO.C,U9*%
X185248095Y-106847380D02*
X185248095Y-107656904D01*
X185295714Y-107752142D01*
X185343333Y-107799761D01*
X185438571Y-107847380D01*
X185629047Y-107847380D01*
X185724285Y-107799761D01*
X185771904Y-107752142D01*
X185819523Y-107656904D01*
X185819523Y-106847380D01*
X186343333Y-107847380D02*
X186533809Y-107847380D01*
X186629047Y-107799761D01*
X186676666Y-107752142D01*
X186771904Y-107609285D01*
X186819523Y-107418809D01*
X186819523Y-107037857D01*
X186771904Y-106942619D01*
X186724285Y-106895000D01*
X186629047Y-106847380D01*
X186438571Y-106847380D01*
X186343333Y-106895000D01*
X186295714Y-106942619D01*
X186248095Y-107037857D01*
X186248095Y-107275952D01*
X186295714Y-107371190D01*
X186343333Y-107418809D01*
X186438571Y-107466428D01*
X186629047Y-107466428D01*
X186724285Y-107418809D01*
X186771904Y-107371190D01*
X186819523Y-107275952D01*
%TO.C,C13*%
X200107142Y-114042857D02*
X200154761Y-114090476D01*
X200202380Y-114233333D01*
X200202380Y-114328571D01*
X200154761Y-114471428D01*
X200059523Y-114566666D01*
X199964285Y-114614285D01*
X199773809Y-114661904D01*
X199630952Y-114661904D01*
X199440476Y-114614285D01*
X199345238Y-114566666D01*
X199250000Y-114471428D01*
X199202380Y-114328571D01*
X199202380Y-114233333D01*
X199250000Y-114090476D01*
X199297619Y-114042857D01*
X200202380Y-113090476D02*
X200202380Y-113661904D01*
X200202380Y-113376190D02*
X199202380Y-113376190D01*
X199345238Y-113471428D01*
X199440476Y-113566666D01*
X199488095Y-113661904D01*
X199202380Y-112757142D02*
X199202380Y-112138095D01*
X199583333Y-112471428D01*
X199583333Y-112328571D01*
X199630952Y-112233333D01*
X199678571Y-112185714D01*
X199773809Y-112138095D01*
X200011904Y-112138095D01*
X200107142Y-112185714D01*
X200154761Y-112233333D01*
X200202380Y-112328571D01*
X200202380Y-112614285D01*
X200154761Y-112709523D01*
X200107142Y-112757142D01*
%TO.C,RN1*%
X164052380Y-59430476D02*
X163576190Y-59763809D01*
X164052380Y-60001904D02*
X163052380Y-60001904D01*
X163052380Y-59620952D01*
X163100000Y-59525714D01*
X163147619Y-59478095D01*
X163242857Y-59430476D01*
X163385714Y-59430476D01*
X163480952Y-59478095D01*
X163528571Y-59525714D01*
X163576190Y-59620952D01*
X163576190Y-60001904D01*
X164052380Y-59001904D02*
X163052380Y-59001904D01*
X164052380Y-58430476D01*
X163052380Y-58430476D01*
X164052380Y-57430476D02*
X164052380Y-58001904D01*
X164052380Y-57716190D02*
X163052380Y-57716190D01*
X163195238Y-57811428D01*
X163290476Y-57906666D01*
X163338095Y-58001904D01*
%TO.C,C1*%
X171833333Y-127607142D02*
X171785714Y-127654761D01*
X171642857Y-127702380D01*
X171547619Y-127702380D01*
X171404761Y-127654761D01*
X171309523Y-127559523D01*
X171261904Y-127464285D01*
X171214285Y-127273809D01*
X171214285Y-127130952D01*
X171261904Y-126940476D01*
X171309523Y-126845238D01*
X171404761Y-126750000D01*
X171547619Y-126702380D01*
X171642857Y-126702380D01*
X171785714Y-126750000D01*
X171833333Y-126797619D01*
X172785714Y-127702380D02*
X172214285Y-127702380D01*
X172500000Y-127702380D02*
X172500000Y-126702380D01*
X172404761Y-126845238D01*
X172309523Y-126940476D01*
X172214285Y-126988095D01*
%TO.C,J1*%
X174666666Y-139702380D02*
X174666666Y-140416666D01*
X174619047Y-140559523D01*
X174523809Y-140654761D01*
X174380952Y-140702380D01*
X174285714Y-140702380D01*
X175666666Y-140702380D02*
X175095238Y-140702380D01*
X175380952Y-140702380D02*
X175380952Y-139702380D01*
X175285714Y-139845238D01*
X175190476Y-139940476D01*
X175095238Y-139988095D01*
%TO.C,C15*%
X199707142Y-122087757D02*
X199754761Y-122135376D01*
X199802380Y-122278233D01*
X199802380Y-122373471D01*
X199754761Y-122516328D01*
X199659523Y-122611566D01*
X199564285Y-122659185D01*
X199373809Y-122706804D01*
X199230952Y-122706804D01*
X199040476Y-122659185D01*
X198945238Y-122611566D01*
X198850000Y-122516328D01*
X198802380Y-122373471D01*
X198802380Y-122278233D01*
X198850000Y-122135376D01*
X198897619Y-122087757D01*
X199802380Y-121135376D02*
X199802380Y-121706804D01*
X199802380Y-121421090D02*
X198802380Y-121421090D01*
X198945238Y-121516328D01*
X199040476Y-121611566D01*
X199088095Y-121706804D01*
X198802380Y-120230614D02*
X198802380Y-120706804D01*
X199278571Y-120754423D01*
X199230952Y-120706804D01*
X199183333Y-120611566D01*
X199183333Y-120373471D01*
X199230952Y-120278233D01*
X199278571Y-120230614D01*
X199373809Y-120182995D01*
X199611904Y-120182995D01*
X199707142Y-120230614D01*
X199754761Y-120278233D01*
X199802380Y-120373471D01*
X199802380Y-120611566D01*
X199754761Y-120706804D01*
X199707142Y-120754423D01*
%TO.C,U1*%
X184238095Y-50512380D02*
X184238095Y-51321904D01*
X184285714Y-51417142D01*
X184333333Y-51464761D01*
X184428571Y-51512380D01*
X184619047Y-51512380D01*
X184714285Y-51464761D01*
X184761904Y-51417142D01*
X184809523Y-51321904D01*
X184809523Y-50512380D01*
X185809523Y-51512380D02*
X185238095Y-51512380D01*
X185523809Y-51512380D02*
X185523809Y-50512380D01*
X185428571Y-50655238D01*
X185333333Y-50750476D01*
X185238095Y-50798095D01*
%TO.C,C22*%
X89757142Y-89307142D02*
X89709523Y-89354761D01*
X89566666Y-89402380D01*
X89471428Y-89402380D01*
X89328571Y-89354761D01*
X89233333Y-89259523D01*
X89185714Y-89164285D01*
X89138095Y-88973809D01*
X89138095Y-88830952D01*
X89185714Y-88640476D01*
X89233333Y-88545238D01*
X89328571Y-88450000D01*
X89471428Y-88402380D01*
X89566666Y-88402380D01*
X89709523Y-88450000D01*
X89757142Y-88497619D01*
X90138095Y-88497619D02*
X90185714Y-88450000D01*
X90280952Y-88402380D01*
X90519047Y-88402380D01*
X90614285Y-88450000D01*
X90661904Y-88497619D01*
X90709523Y-88592857D01*
X90709523Y-88688095D01*
X90661904Y-88830952D01*
X90090476Y-89402380D01*
X90709523Y-89402380D01*
X91090476Y-88497619D02*
X91138095Y-88450000D01*
X91233333Y-88402380D01*
X91471428Y-88402380D01*
X91566666Y-88450000D01*
X91614285Y-88497619D01*
X91661904Y-88592857D01*
X91661904Y-88688095D01*
X91614285Y-88830952D01*
X91042857Y-89402380D01*
X91661904Y-89402380D01*
%TO.C,C2*%
X43433333Y-86107142D02*
X43385714Y-86154761D01*
X43242857Y-86202380D01*
X43147619Y-86202380D01*
X43004761Y-86154761D01*
X42909523Y-86059523D01*
X42861904Y-85964285D01*
X42814285Y-85773809D01*
X42814285Y-85630952D01*
X42861904Y-85440476D01*
X42909523Y-85345238D01*
X43004761Y-85250000D01*
X43147619Y-85202380D01*
X43242857Y-85202380D01*
X43385714Y-85250000D01*
X43433333Y-85297619D01*
X43814285Y-85297619D02*
X43861904Y-85250000D01*
X43957142Y-85202380D01*
X44195238Y-85202380D01*
X44290476Y-85250000D01*
X44338095Y-85297619D01*
X44385714Y-85392857D01*
X44385714Y-85488095D01*
X44338095Y-85630952D01*
X43766666Y-86202380D01*
X44385714Y-86202380D01*
%TO.C,U3*%
X77628095Y-61497380D02*
X77628095Y-62306904D01*
X77675714Y-62402142D01*
X77723333Y-62449761D01*
X77818571Y-62497380D01*
X78009047Y-62497380D01*
X78104285Y-62449761D01*
X78151904Y-62402142D01*
X78199523Y-62306904D01*
X78199523Y-61497380D01*
X78580476Y-61497380D02*
X79199523Y-61497380D01*
X78866190Y-61878333D01*
X79009047Y-61878333D01*
X79104285Y-61925952D01*
X79151904Y-61973571D01*
X79199523Y-62068809D01*
X79199523Y-62306904D01*
X79151904Y-62402142D01*
X79104285Y-62449761D01*
X79009047Y-62497380D01*
X78723333Y-62497380D01*
X78628095Y-62449761D01*
X78580476Y-62402142D01*
%TO.C,C20*%
X132157142Y-59907142D02*
X132109523Y-59954761D01*
X131966666Y-60002380D01*
X131871428Y-60002380D01*
X131728571Y-59954761D01*
X131633333Y-59859523D01*
X131585714Y-59764285D01*
X131538095Y-59573809D01*
X131538095Y-59430952D01*
X131585714Y-59240476D01*
X131633333Y-59145238D01*
X131728571Y-59050000D01*
X131871428Y-59002380D01*
X131966666Y-59002380D01*
X132109523Y-59050000D01*
X132157142Y-59097619D01*
X132538095Y-59097619D02*
X132585714Y-59050000D01*
X132680952Y-59002380D01*
X132919047Y-59002380D01*
X133014285Y-59050000D01*
X133061904Y-59097619D01*
X133109523Y-59192857D01*
X133109523Y-59288095D01*
X133061904Y-59430952D01*
X132490476Y-60002380D01*
X133109523Y-60002380D01*
X133728571Y-59002380D02*
X133823809Y-59002380D01*
X133919047Y-59050000D01*
X133966666Y-59097619D01*
X134014285Y-59192857D01*
X134061904Y-59383333D01*
X134061904Y-59621428D01*
X134014285Y-59811904D01*
X133966666Y-59907142D01*
X133919047Y-59954761D01*
X133823809Y-60002380D01*
X133728571Y-60002380D01*
X133633333Y-59954761D01*
X133585714Y-59907142D01*
X133538095Y-59811904D01*
X133490476Y-59621428D01*
X133490476Y-59383333D01*
X133538095Y-59192857D01*
X133585714Y-59097619D01*
X133633333Y-59050000D01*
X133728571Y-59002380D01*
%TO.C,C14*%
X179507142Y-112642857D02*
X179554761Y-112690476D01*
X179602380Y-112833333D01*
X179602380Y-112928571D01*
X179554761Y-113071428D01*
X179459523Y-113166666D01*
X179364285Y-113214285D01*
X179173809Y-113261904D01*
X179030952Y-113261904D01*
X178840476Y-113214285D01*
X178745238Y-113166666D01*
X178650000Y-113071428D01*
X178602380Y-112928571D01*
X178602380Y-112833333D01*
X178650000Y-112690476D01*
X178697619Y-112642857D01*
X179602380Y-111690476D02*
X179602380Y-112261904D01*
X179602380Y-111976190D02*
X178602380Y-111976190D01*
X178745238Y-112071428D01*
X178840476Y-112166666D01*
X178888095Y-112261904D01*
X178935714Y-110833333D02*
X179602380Y-110833333D01*
X178554761Y-111071428D02*
X179269047Y-111309523D01*
X179269047Y-110690476D01*
%TO.C,SW1*%
X186066666Y-140354761D02*
X186209523Y-140402380D01*
X186447619Y-140402380D01*
X186542857Y-140354761D01*
X186590476Y-140307142D01*
X186638095Y-140211904D01*
X186638095Y-140116666D01*
X186590476Y-140021428D01*
X186542857Y-139973809D01*
X186447619Y-139926190D01*
X186257142Y-139878571D01*
X186161904Y-139830952D01*
X186114285Y-139783333D01*
X186066666Y-139688095D01*
X186066666Y-139592857D01*
X186114285Y-139497619D01*
X186161904Y-139450000D01*
X186257142Y-139402380D01*
X186495238Y-139402380D01*
X186638095Y-139450000D01*
X186971428Y-139402380D02*
X187209523Y-140402380D01*
X187400000Y-139688095D01*
X187590476Y-140402380D01*
X187828571Y-139402380D01*
X188733333Y-140402380D02*
X188161904Y-140402380D01*
X188447619Y-140402380D02*
X188447619Y-139402380D01*
X188352380Y-139545238D01*
X188257142Y-139640476D01*
X188161904Y-139688095D01*
X186661904Y-149102380D02*
X186328571Y-148626190D01*
X186090476Y-149102380D02*
X186090476Y-148102380D01*
X186471428Y-148102380D01*
X186566666Y-148150000D01*
X186614285Y-148197619D01*
X186661904Y-148292857D01*
X186661904Y-148435714D01*
X186614285Y-148530952D01*
X186566666Y-148578571D01*
X186471428Y-148626190D01*
X186090476Y-148626190D01*
X187471428Y-149054761D02*
X187376190Y-149102380D01*
X187185714Y-149102380D01*
X187090476Y-149054761D01*
X187042857Y-148959523D01*
X187042857Y-148578571D01*
X187090476Y-148483333D01*
X187185714Y-148435714D01*
X187376190Y-148435714D01*
X187471428Y-148483333D01*
X187519047Y-148578571D01*
X187519047Y-148673809D01*
X187042857Y-148769047D01*
X187900000Y-149054761D02*
X187995238Y-149102380D01*
X188185714Y-149102380D01*
X188280952Y-149054761D01*
X188328571Y-148959523D01*
X188328571Y-148911904D01*
X188280952Y-148816666D01*
X188185714Y-148769047D01*
X188042857Y-148769047D01*
X187947619Y-148721428D01*
X187900000Y-148626190D01*
X187900000Y-148578571D01*
X187947619Y-148483333D01*
X188042857Y-148435714D01*
X188185714Y-148435714D01*
X188280952Y-148483333D01*
X189138095Y-149054761D02*
X189042857Y-149102380D01*
X188852380Y-149102380D01*
X188757142Y-149054761D01*
X188709523Y-148959523D01*
X188709523Y-148578571D01*
X188757142Y-148483333D01*
X188852380Y-148435714D01*
X189042857Y-148435714D01*
X189138095Y-148483333D01*
X189185714Y-148578571D01*
X189185714Y-148673809D01*
X188709523Y-148769047D01*
X189471428Y-148435714D02*
X189852380Y-148435714D01*
X189614285Y-148102380D02*
X189614285Y-148959523D01*
X189661904Y-149054761D01*
X189757142Y-149102380D01*
X189852380Y-149102380D01*
%TO.C,J5*%
X34691666Y-32582380D02*
X34691666Y-33296666D01*
X34644047Y-33439523D01*
X34548809Y-33534761D01*
X34405952Y-33582380D01*
X34310714Y-33582380D01*
X35644047Y-32582380D02*
X35167857Y-32582380D01*
X35120238Y-33058571D01*
X35167857Y-33010952D01*
X35263095Y-32963333D01*
X35501190Y-32963333D01*
X35596428Y-33010952D01*
X35644047Y-33058571D01*
X35691666Y-33153809D01*
X35691666Y-33391904D01*
X35644047Y-33487142D01*
X35596428Y-33534761D01*
X35501190Y-33582380D01*
X35263095Y-33582380D01*
X35167857Y-33534761D01*
X35120238Y-33487142D01*
X39060380Y-70539619D02*
X38060380Y-70539619D01*
X38060380Y-70158666D01*
X38108000Y-70063428D01*
X38155619Y-70015809D01*
X38250857Y-69968190D01*
X38393714Y-69968190D01*
X38488952Y-70015809D01*
X38536571Y-70063428D01*
X38584190Y-70158666D01*
X38584190Y-70539619D01*
X39060380Y-69539619D02*
X38060380Y-69539619D01*
X38774666Y-69111047D02*
X38774666Y-68634857D01*
X39060380Y-69206285D02*
X38060380Y-68872952D01*
X39060380Y-68539619D01*
X39060380Y-66920571D02*
X39060380Y-67492000D01*
X39060380Y-67206285D02*
X38060380Y-67206285D01*
X38203238Y-67301523D01*
X38298476Y-67396761D01*
X38346095Y-67492000D01*
X39060380Y-65730095D02*
X38060380Y-65730095D01*
X38060380Y-65349142D01*
X38108000Y-65253904D01*
X38155619Y-65206285D01*
X38250857Y-65158666D01*
X38393714Y-65158666D01*
X38488952Y-65206285D01*
X38536571Y-65253904D01*
X38584190Y-65349142D01*
X38584190Y-65730095D01*
X39060380Y-64587238D02*
X39012761Y-64682476D01*
X38965142Y-64730095D01*
X38869904Y-64777714D01*
X38584190Y-64777714D01*
X38488952Y-64730095D01*
X38441333Y-64682476D01*
X38393714Y-64587238D01*
X38393714Y-64444380D01*
X38441333Y-64349142D01*
X38488952Y-64301523D01*
X38584190Y-64253904D01*
X38869904Y-64253904D01*
X38965142Y-64301523D01*
X39012761Y-64349142D01*
X39060380Y-64444380D01*
X39060380Y-64587238D01*
X39060380Y-63825333D02*
X38393714Y-63825333D01*
X38584190Y-63825333D02*
X38488952Y-63777714D01*
X38441333Y-63730095D01*
X38393714Y-63634857D01*
X38393714Y-63539619D01*
X38393714Y-63349142D02*
X38393714Y-62968190D01*
X38060380Y-63206285D02*
X38917523Y-63206285D01*
X39012761Y-63158666D01*
X39060380Y-63063428D01*
X39060380Y-62968190D01*
X39012761Y-62682476D02*
X39060380Y-62587238D01*
X39060380Y-62396761D01*
X39012761Y-62301523D01*
X38917523Y-62253904D01*
X38869904Y-62253904D01*
X38774666Y-62301523D01*
X38727047Y-62396761D01*
X38727047Y-62539619D01*
X38679428Y-62634857D01*
X38584190Y-62682476D01*
X38536571Y-62682476D01*
X38441333Y-62634857D01*
X38393714Y-62539619D01*
X38393714Y-62396761D01*
X38441333Y-62301523D01*
X38774666Y-61111047D02*
X38774666Y-60634857D01*
X39060380Y-61206285D02*
X38060380Y-60872952D01*
X39060380Y-60539619D01*
X39060380Y-59015809D02*
X38536571Y-59015809D01*
X38441333Y-59063428D01*
X38393714Y-59158666D01*
X38393714Y-59349142D01*
X38441333Y-59444380D01*
X39012761Y-59015809D02*
X39060380Y-59111047D01*
X39060380Y-59349142D01*
X39012761Y-59444380D01*
X38917523Y-59492000D01*
X38822285Y-59492000D01*
X38727047Y-59444380D01*
X38679428Y-59349142D01*
X38679428Y-59111047D01*
X38631809Y-59015809D01*
X38393714Y-58539619D02*
X39060380Y-58539619D01*
X38488952Y-58539619D02*
X38441333Y-58492000D01*
X38393714Y-58396761D01*
X38393714Y-58253904D01*
X38441333Y-58158666D01*
X38536571Y-58111047D01*
X39060380Y-58111047D01*
X39060380Y-57206285D02*
X38060380Y-57206285D01*
X39012761Y-57206285D02*
X39060380Y-57301523D01*
X39060380Y-57492000D01*
X39012761Y-57587238D01*
X38965142Y-57634857D01*
X38869904Y-57682476D01*
X38584190Y-57682476D01*
X38488952Y-57634857D01*
X38441333Y-57587238D01*
X38393714Y-57492000D01*
X38393714Y-57301523D01*
X38441333Y-57206285D01*
X38536571Y-55634857D02*
X38584190Y-55492000D01*
X38631809Y-55444380D01*
X38727047Y-55396761D01*
X38869904Y-55396761D01*
X38965142Y-55444380D01*
X39012761Y-55492000D01*
X39060380Y-55587238D01*
X39060380Y-55968190D01*
X38060380Y-55968190D01*
X38060380Y-55634857D01*
X38108000Y-55539619D01*
X38155619Y-55492000D01*
X38250857Y-55444380D01*
X38346095Y-55444380D01*
X38441333Y-55492000D01*
X38488952Y-55539619D01*
X38536571Y-55634857D01*
X38536571Y-55968190D01*
%TO.C,J4*%
X209641666Y-91322380D02*
X209641666Y-92036666D01*
X209594047Y-92179523D01*
X209498809Y-92274761D01*
X209355952Y-92322380D01*
X209260714Y-92322380D01*
X210546428Y-91655714D02*
X210546428Y-92322380D01*
X210308333Y-91274761D02*
X210070238Y-91989047D01*
X210689285Y-91989047D01*
X214066380Y-68087238D02*
X213066380Y-68087238D01*
X213066380Y-67706285D01*
X213114000Y-67611047D01*
X213161619Y-67563428D01*
X213256857Y-67515809D01*
X213399714Y-67515809D01*
X213494952Y-67563428D01*
X213542571Y-67611047D01*
X213590190Y-67706285D01*
X213590190Y-68087238D01*
X214066380Y-66944380D02*
X214018761Y-67039619D01*
X213971142Y-67087238D01*
X213875904Y-67134857D01*
X213590190Y-67134857D01*
X213494952Y-67087238D01*
X213447333Y-67039619D01*
X213399714Y-66944380D01*
X213399714Y-66801523D01*
X213447333Y-66706285D01*
X213494952Y-66658666D01*
X213590190Y-66611047D01*
X213875904Y-66611047D01*
X213971142Y-66658666D01*
X214018761Y-66706285D01*
X214066380Y-66801523D01*
X214066380Y-66944380D01*
X214066380Y-66182476D02*
X213399714Y-66182476D01*
X213590190Y-66182476D02*
X213494952Y-66134857D01*
X213447333Y-66087238D01*
X213399714Y-65992000D01*
X213399714Y-65896761D01*
X213399714Y-65706285D02*
X213399714Y-65325333D01*
X213066380Y-65563428D02*
X213923523Y-65563428D01*
X214018761Y-65515809D01*
X214066380Y-65420571D01*
X214066380Y-65325333D01*
X214018761Y-65039619D02*
X214066380Y-64944380D01*
X214066380Y-64753904D01*
X214018761Y-64658666D01*
X213923523Y-64611047D01*
X213875904Y-64611047D01*
X213780666Y-64658666D01*
X213733047Y-64753904D01*
X213733047Y-64896761D01*
X213685428Y-64992000D01*
X213590190Y-65039619D01*
X213542571Y-65039619D01*
X213447333Y-64992000D01*
X213399714Y-64896761D01*
X213399714Y-64753904D01*
X213447333Y-64658666D01*
X213780666Y-63468190D02*
X213780666Y-62992000D01*
X214066380Y-63563428D02*
X213066380Y-63230095D01*
X214066380Y-62896761D01*
X214066380Y-61372952D02*
X213542571Y-61372952D01*
X213447333Y-61420571D01*
X213399714Y-61515809D01*
X213399714Y-61706285D01*
X213447333Y-61801523D01*
X214018761Y-61372952D02*
X214066380Y-61468190D01*
X214066380Y-61706285D01*
X214018761Y-61801523D01*
X213923523Y-61849142D01*
X213828285Y-61849142D01*
X213733047Y-61801523D01*
X213685428Y-61706285D01*
X213685428Y-61468190D01*
X213637809Y-61372952D01*
X213399714Y-60896761D02*
X214066380Y-60896761D01*
X213494952Y-60896761D02*
X213447333Y-60849142D01*
X213399714Y-60753904D01*
X213399714Y-60611047D01*
X213447333Y-60515809D01*
X213542571Y-60468190D01*
X214066380Y-60468190D01*
X214066380Y-59563428D02*
X213066380Y-59563428D01*
X214018761Y-59563428D02*
X214066380Y-59658666D01*
X214066380Y-59849142D01*
X214018761Y-59944380D01*
X213971142Y-59992000D01*
X213875904Y-60039619D01*
X213590190Y-60039619D01*
X213494952Y-59992000D01*
X213447333Y-59944380D01*
X213399714Y-59849142D01*
X213399714Y-59658666D01*
X213447333Y-59563428D01*
X213542571Y-58325333D02*
X213542571Y-57992000D01*
X214066380Y-57849142D02*
X214066380Y-58325333D01*
X213066380Y-58325333D01*
X213066380Y-57849142D01*
%TO.C,J2*%
X200247080Y-120343333D02*
X200961366Y-120343333D01*
X201104223Y-120390952D01*
X201199461Y-120486190D01*
X201247080Y-120629047D01*
X201247080Y-120724285D01*
X200342319Y-119914761D02*
X200294700Y-119867142D01*
X200247080Y-119771904D01*
X200247080Y-119533809D01*
X200294700Y-119438571D01*
X200342319Y-119390952D01*
X200437557Y-119343333D01*
X200532795Y-119343333D01*
X200675652Y-119390952D01*
X201247080Y-119962380D01*
X201247080Y-119343333D01*
%TO.C,U11*%
X126371904Y-32447380D02*
X126371904Y-33256904D01*
X126419523Y-33352142D01*
X126467142Y-33399761D01*
X126562380Y-33447380D01*
X126752857Y-33447380D01*
X126848095Y-33399761D01*
X126895714Y-33352142D01*
X126943333Y-33256904D01*
X126943333Y-32447380D01*
X127943333Y-33447380D02*
X127371904Y-33447380D01*
X127657619Y-33447380D02*
X127657619Y-32447380D01*
X127562380Y-32590238D01*
X127467142Y-32685476D01*
X127371904Y-32733095D01*
X128895714Y-33447380D02*
X128324285Y-33447380D01*
X128610000Y-33447380D02*
X128610000Y-32447380D01*
X128514761Y-32590238D01*
X128419523Y-32685476D01*
X128324285Y-32733095D01*
%TO.C,C17*%
X131957142Y-28107142D02*
X131909523Y-28154761D01*
X131766666Y-28202380D01*
X131671428Y-28202380D01*
X131528571Y-28154761D01*
X131433333Y-28059523D01*
X131385714Y-27964285D01*
X131338095Y-27773809D01*
X131338095Y-27630952D01*
X131385714Y-27440476D01*
X131433333Y-27345238D01*
X131528571Y-27250000D01*
X131671428Y-27202380D01*
X131766666Y-27202380D01*
X131909523Y-27250000D01*
X131957142Y-27297619D01*
X132909523Y-28202380D02*
X132338095Y-28202380D01*
X132623809Y-28202380D02*
X132623809Y-27202380D01*
X132528571Y-27345238D01*
X132433333Y-27440476D01*
X132338095Y-27488095D01*
X133242857Y-27202380D02*
X133909523Y-27202380D01*
X133480952Y-28202380D01*
%TO.C,J8*%
X34666666Y-89042380D02*
X34666666Y-89756666D01*
X34619047Y-89899523D01*
X34523809Y-89994761D01*
X34380952Y-90042380D01*
X34285714Y-90042380D01*
X35285714Y-89470952D02*
X35190476Y-89423333D01*
X35142857Y-89375714D01*
X35095238Y-89280476D01*
X35095238Y-89232857D01*
X35142857Y-89137619D01*
X35190476Y-89090000D01*
X35285714Y-89042380D01*
X35476190Y-89042380D01*
X35571428Y-89090000D01*
X35619047Y-89137619D01*
X35666666Y-89232857D01*
X35666666Y-89280476D01*
X35619047Y-89375714D01*
X35571428Y-89423333D01*
X35476190Y-89470952D01*
X35285714Y-89470952D01*
X35190476Y-89518571D01*
X35142857Y-89566190D01*
X35095238Y-89661428D01*
X35095238Y-89851904D01*
X35142857Y-89947142D01*
X35190476Y-89994761D01*
X35285714Y-90042380D01*
X35476190Y-90042380D01*
X35571428Y-89994761D01*
X35619047Y-89947142D01*
X35666666Y-89851904D01*
X35666666Y-89661428D01*
X35619047Y-89566190D01*
X35571428Y-89518571D01*
X35476190Y-89470952D01*
X39314380Y-124133619D02*
X38314380Y-124133619D01*
X38314380Y-123752666D01*
X38362000Y-123657428D01*
X38409619Y-123609809D01*
X38504857Y-123562190D01*
X38647714Y-123562190D01*
X38742952Y-123609809D01*
X38790571Y-123657428D01*
X38838190Y-123752666D01*
X38838190Y-124133619D01*
X39314380Y-123133619D02*
X38314380Y-123133619D01*
X39028666Y-122705047D02*
X39028666Y-122228857D01*
X39314380Y-122800285D02*
X38314380Y-122466952D01*
X39314380Y-122133619D01*
X38409619Y-121086000D02*
X38362000Y-121038380D01*
X38314380Y-120943142D01*
X38314380Y-120705047D01*
X38362000Y-120609809D01*
X38409619Y-120562190D01*
X38504857Y-120514571D01*
X38600095Y-120514571D01*
X38742952Y-120562190D01*
X39314380Y-121133619D01*
X39314380Y-120514571D01*
X39314380Y-119324095D02*
X38314380Y-119324095D01*
X38314380Y-118943142D01*
X38362000Y-118847904D01*
X38409619Y-118800285D01*
X38504857Y-118752666D01*
X38647714Y-118752666D01*
X38742952Y-118800285D01*
X38790571Y-118847904D01*
X38838190Y-118943142D01*
X38838190Y-119324095D01*
X39314380Y-118181238D02*
X39266761Y-118276476D01*
X39219142Y-118324095D01*
X39123904Y-118371714D01*
X38838190Y-118371714D01*
X38742952Y-118324095D01*
X38695333Y-118276476D01*
X38647714Y-118181238D01*
X38647714Y-118038380D01*
X38695333Y-117943142D01*
X38742952Y-117895523D01*
X38838190Y-117847904D01*
X39123904Y-117847904D01*
X39219142Y-117895523D01*
X39266761Y-117943142D01*
X39314380Y-118038380D01*
X39314380Y-118181238D01*
X39314380Y-117419333D02*
X38647714Y-117419333D01*
X38838190Y-117419333D02*
X38742952Y-117371714D01*
X38695333Y-117324095D01*
X38647714Y-117228857D01*
X38647714Y-117133619D01*
X38647714Y-116943142D02*
X38647714Y-116562190D01*
X38314380Y-116800285D02*
X39171523Y-116800285D01*
X39266761Y-116752666D01*
X39314380Y-116657428D01*
X39314380Y-116562190D01*
X39266761Y-116276476D02*
X39314380Y-116181238D01*
X39314380Y-115990761D01*
X39266761Y-115895523D01*
X39171523Y-115847904D01*
X39123904Y-115847904D01*
X39028666Y-115895523D01*
X38981047Y-115990761D01*
X38981047Y-116133619D01*
X38933428Y-116228857D01*
X38838190Y-116276476D01*
X38790571Y-116276476D01*
X38695333Y-116228857D01*
X38647714Y-116133619D01*
X38647714Y-115990761D01*
X38695333Y-115895523D01*
X39028666Y-114705047D02*
X39028666Y-114228857D01*
X39314380Y-114800285D02*
X38314380Y-114466952D01*
X39314380Y-114133619D01*
X39314380Y-112609809D02*
X38790571Y-112609809D01*
X38695333Y-112657428D01*
X38647714Y-112752666D01*
X38647714Y-112943142D01*
X38695333Y-113038380D01*
X39266761Y-112609809D02*
X39314380Y-112705047D01*
X39314380Y-112943142D01*
X39266761Y-113038380D01*
X39171523Y-113086000D01*
X39076285Y-113086000D01*
X38981047Y-113038380D01*
X38933428Y-112943142D01*
X38933428Y-112705047D01*
X38885809Y-112609809D01*
X38647714Y-112133619D02*
X39314380Y-112133619D01*
X38742952Y-112133619D02*
X38695333Y-112086000D01*
X38647714Y-111990761D01*
X38647714Y-111847904D01*
X38695333Y-111752666D01*
X38790571Y-111705047D01*
X39314380Y-111705047D01*
X39314380Y-110800285D02*
X38314380Y-110800285D01*
X39266761Y-110800285D02*
X39314380Y-110895523D01*
X39314380Y-111086000D01*
X39266761Y-111181238D01*
X39219142Y-111228857D01*
X39123904Y-111276476D01*
X38838190Y-111276476D01*
X38742952Y-111228857D01*
X38695333Y-111181238D01*
X38647714Y-111086000D01*
X38647714Y-110895523D01*
X38695333Y-110800285D01*
X38790571Y-109228857D02*
X38838190Y-109086000D01*
X38885809Y-109038380D01*
X38981047Y-108990761D01*
X39123904Y-108990761D01*
X39219142Y-109038380D01*
X39266761Y-109086000D01*
X39314380Y-109181238D01*
X39314380Y-109562190D01*
X38314380Y-109562190D01*
X38314380Y-109228857D01*
X38362000Y-109133619D01*
X38409619Y-109086000D01*
X38504857Y-109038380D01*
X38600095Y-109038380D01*
X38695333Y-109086000D01*
X38742952Y-109133619D01*
X38790571Y-109228857D01*
X38790571Y-109562190D01*
%TO.C,C8*%
X143433333Y-88307142D02*
X143385714Y-88354761D01*
X143242857Y-88402380D01*
X143147619Y-88402380D01*
X143004761Y-88354761D01*
X142909523Y-88259523D01*
X142861904Y-88164285D01*
X142814285Y-87973809D01*
X142814285Y-87830952D01*
X142861904Y-87640476D01*
X142909523Y-87545238D01*
X143004761Y-87450000D01*
X143147619Y-87402380D01*
X143242857Y-87402380D01*
X143385714Y-87450000D01*
X143433333Y-87497619D01*
X144004761Y-87830952D02*
X143909523Y-87783333D01*
X143861904Y-87735714D01*
X143814285Y-87640476D01*
X143814285Y-87592857D01*
X143861904Y-87497619D01*
X143909523Y-87450000D01*
X144004761Y-87402380D01*
X144195238Y-87402380D01*
X144290476Y-87450000D01*
X144338095Y-87497619D01*
X144385714Y-87592857D01*
X144385714Y-87640476D01*
X144338095Y-87735714D01*
X144290476Y-87783333D01*
X144195238Y-87830952D01*
X144004761Y-87830952D01*
X143909523Y-87878571D01*
X143861904Y-87926190D01*
X143814285Y-88021428D01*
X143814285Y-88211904D01*
X143861904Y-88307142D01*
X143909523Y-88354761D01*
X144004761Y-88402380D01*
X144195238Y-88402380D01*
X144290476Y-88354761D01*
X144338095Y-88307142D01*
X144385714Y-88211904D01*
X144385714Y-88021428D01*
X144338095Y-87926190D01*
X144290476Y-87878571D01*
X144195238Y-87830952D01*
%TO.C,U16*%
X95181904Y-91922380D02*
X95181904Y-92731904D01*
X95229523Y-92827142D01*
X95277142Y-92874761D01*
X95372380Y-92922380D01*
X95562857Y-92922380D01*
X95658095Y-92874761D01*
X95705714Y-92827142D01*
X95753333Y-92731904D01*
X95753333Y-91922380D01*
X96753333Y-92922380D02*
X96181904Y-92922380D01*
X96467619Y-92922380D02*
X96467619Y-91922380D01*
X96372380Y-92065238D01*
X96277142Y-92160476D01*
X96181904Y-92208095D01*
X97610476Y-91922380D02*
X97420000Y-91922380D01*
X97324761Y-91970000D01*
X97277142Y-92017619D01*
X97181904Y-92160476D01*
X97134285Y-92350952D01*
X97134285Y-92731904D01*
X97181904Y-92827142D01*
X97229523Y-92874761D01*
X97324761Y-92922380D01*
X97515238Y-92922380D01*
X97610476Y-92874761D01*
X97658095Y-92827142D01*
X97705714Y-92731904D01*
X97705714Y-92493809D01*
X97658095Y-92398571D01*
X97610476Y-92350952D01*
X97515238Y-92303333D01*
X97324761Y-92303333D01*
X97229523Y-92350952D01*
X97181904Y-92398571D01*
X97134285Y-92493809D01*
%TO.C,U6*%
X77258095Y-92372380D02*
X77258095Y-93181904D01*
X77305714Y-93277142D01*
X77353333Y-93324761D01*
X77448571Y-93372380D01*
X77639047Y-93372380D01*
X77734285Y-93324761D01*
X77781904Y-93277142D01*
X77829523Y-93181904D01*
X77829523Y-92372380D01*
X78734285Y-92372380D02*
X78543809Y-92372380D01*
X78448571Y-92420000D01*
X78400952Y-92467619D01*
X78305714Y-92610476D01*
X78258095Y-92800952D01*
X78258095Y-93181904D01*
X78305714Y-93277142D01*
X78353333Y-93324761D01*
X78448571Y-93372380D01*
X78639047Y-93372380D01*
X78734285Y-93324761D01*
X78781904Y-93277142D01*
X78829523Y-93181904D01*
X78829523Y-92943809D01*
X78781904Y-92848571D01*
X78734285Y-92800952D01*
X78639047Y-92753333D01*
X78448571Y-92753333D01*
X78353333Y-92800952D01*
X78305714Y-92848571D01*
X78258095Y-92943809D01*
%TO.C,U4*%
X77648095Y-30082380D02*
X77648095Y-30891904D01*
X77695714Y-30987142D01*
X77743333Y-31034761D01*
X77838571Y-31082380D01*
X78029047Y-31082380D01*
X78124285Y-31034761D01*
X78171904Y-30987142D01*
X78219523Y-30891904D01*
X78219523Y-30082380D01*
X79124285Y-30415714D02*
X79124285Y-31082380D01*
X78886190Y-30034761D02*
X78648095Y-30749047D01*
X79267142Y-30749047D01*
%TO.C,U17*%
X48756904Y-90597380D02*
X48756904Y-91406904D01*
X48804523Y-91502142D01*
X48852142Y-91549761D01*
X48947380Y-91597380D01*
X49137857Y-91597380D01*
X49233095Y-91549761D01*
X49280714Y-91502142D01*
X49328333Y-91406904D01*
X49328333Y-90597380D01*
X50328333Y-91597380D02*
X49756904Y-91597380D01*
X50042619Y-91597380D02*
X50042619Y-90597380D01*
X49947380Y-90740238D01*
X49852142Y-90835476D01*
X49756904Y-90883095D01*
X50661666Y-90597380D02*
X51328333Y-90597380D01*
X50899761Y-91597380D01*
%TO.C,C16*%
X178907142Y-122287757D02*
X178954761Y-122335376D01*
X179002380Y-122478233D01*
X179002380Y-122573471D01*
X178954761Y-122716328D01*
X178859523Y-122811566D01*
X178764285Y-122859185D01*
X178573809Y-122906804D01*
X178430952Y-122906804D01*
X178240476Y-122859185D01*
X178145238Y-122811566D01*
X178050000Y-122716328D01*
X178002380Y-122573471D01*
X178002380Y-122478233D01*
X178050000Y-122335376D01*
X178097619Y-122287757D01*
X179002380Y-121335376D02*
X179002380Y-121906804D01*
X179002380Y-121621090D02*
X178002380Y-121621090D01*
X178145238Y-121716328D01*
X178240476Y-121811566D01*
X178288095Y-121906804D01*
X178002380Y-120478233D02*
X178002380Y-120668709D01*
X178050000Y-120763947D01*
X178097619Y-120811566D01*
X178240476Y-120906804D01*
X178430952Y-120954423D01*
X178811904Y-120954423D01*
X178907142Y-120906804D01*
X178954761Y-120859185D01*
X179002380Y-120763947D01*
X179002380Y-120573471D01*
X178954761Y-120478233D01*
X178907142Y-120430614D01*
X178811904Y-120382995D01*
X178573809Y-120382995D01*
X178478571Y-120430614D01*
X178430952Y-120478233D01*
X178383333Y-120573471D01*
X178383333Y-120763947D01*
X178430952Y-120859185D01*
X178478571Y-120906804D01*
X178573809Y-120954423D01*
%TO.C,C3*%
X83433333Y-59307142D02*
X83385714Y-59354761D01*
X83242857Y-59402380D01*
X83147619Y-59402380D01*
X83004761Y-59354761D01*
X82909523Y-59259523D01*
X82861904Y-59164285D01*
X82814285Y-58973809D01*
X82814285Y-58830952D01*
X82861904Y-58640476D01*
X82909523Y-58545238D01*
X83004761Y-58450000D01*
X83147619Y-58402380D01*
X83242857Y-58402380D01*
X83385714Y-58450000D01*
X83433333Y-58497619D01*
X83766666Y-58402380D02*
X84385714Y-58402380D01*
X84052380Y-58783333D01*
X84195238Y-58783333D01*
X84290476Y-58830952D01*
X84338095Y-58878571D01*
X84385714Y-58973809D01*
X84385714Y-59211904D01*
X84338095Y-59307142D01*
X84290476Y-59354761D01*
X84195238Y-59402380D01*
X83909523Y-59402380D01*
X83814285Y-59354761D01*
X83766666Y-59307142D01*
%TO.C,R1*%
X168833333Y-135932380D02*
X168500000Y-135456190D01*
X168261904Y-135932380D02*
X168261904Y-134932380D01*
X168642857Y-134932380D01*
X168738095Y-134980000D01*
X168785714Y-135027619D01*
X168833333Y-135122857D01*
X168833333Y-135265714D01*
X168785714Y-135360952D01*
X168738095Y-135408571D01*
X168642857Y-135456190D01*
X168261904Y-135456190D01*
X169785714Y-135932380D02*
X169214285Y-135932380D01*
X169500000Y-135932380D02*
X169500000Y-134932380D01*
X169404761Y-135075238D01*
X169309523Y-135170476D01*
X169214285Y-135218095D01*
%TO.C,C7*%
X108433333Y-89307142D02*
X108385714Y-89354761D01*
X108242857Y-89402380D01*
X108147619Y-89402380D01*
X108004761Y-89354761D01*
X107909523Y-89259523D01*
X107861904Y-89164285D01*
X107814285Y-88973809D01*
X107814285Y-88830952D01*
X107861904Y-88640476D01*
X107909523Y-88545238D01*
X108004761Y-88450000D01*
X108147619Y-88402380D01*
X108242857Y-88402380D01*
X108385714Y-88450000D01*
X108433333Y-88497619D01*
X108766666Y-88402380D02*
X109433333Y-88402380D01*
X109004761Y-89402380D01*
%TO.C,Y1*%
X175083809Y-35451190D02*
X175083809Y-35927380D01*
X174750476Y-34927380D02*
X175083809Y-35451190D01*
X175417142Y-34927380D01*
X176274285Y-35927380D02*
X175702857Y-35927380D01*
X175988571Y-35927380D02*
X175988571Y-34927380D01*
X175893333Y-35070238D01*
X175798095Y-35165476D01*
X175702857Y-35213095D01*
%TO.C,C11*%
X171107142Y-36407142D02*
X171059523Y-36454761D01*
X170916666Y-36502380D01*
X170821428Y-36502380D01*
X170678571Y-36454761D01*
X170583333Y-36359523D01*
X170535714Y-36264285D01*
X170488095Y-36073809D01*
X170488095Y-35930952D01*
X170535714Y-35740476D01*
X170583333Y-35645238D01*
X170678571Y-35550000D01*
X170821428Y-35502380D01*
X170916666Y-35502380D01*
X171059523Y-35550000D01*
X171107142Y-35597619D01*
X172059523Y-36502380D02*
X171488095Y-36502380D01*
X171773809Y-36502380D02*
X171773809Y-35502380D01*
X171678571Y-35645238D01*
X171583333Y-35740476D01*
X171488095Y-35788095D01*
X173011904Y-36502380D02*
X172440476Y-36502380D01*
X172726190Y-36502380D02*
X172726190Y-35502380D01*
X172630952Y-35645238D01*
X172535714Y-35740476D01*
X172440476Y-35788095D01*
%TO.C,J7*%
X93622380Y-140358333D02*
X94336666Y-140358333D01*
X94479523Y-140405952D01*
X94574761Y-140501190D01*
X94622380Y-140644047D01*
X94622380Y-140739285D01*
X93622380Y-139977380D02*
X93622380Y-139310714D01*
X94622380Y-139739285D01*
X75803523Y-143962380D02*
X75803523Y-142962380D01*
X76041619Y-142962380D01*
X76184476Y-143010000D01*
X76279714Y-143105238D01*
X76327333Y-143200476D01*
X76374952Y-143390952D01*
X76374952Y-143533809D01*
X76327333Y-143724285D01*
X76279714Y-143819523D01*
X76184476Y-143914761D01*
X76041619Y-143962380D01*
X75803523Y-143962380D01*
X77232095Y-143962380D02*
X77232095Y-143438571D01*
X77184476Y-143343333D01*
X77089238Y-143295714D01*
X76898761Y-143295714D01*
X76803523Y-143343333D01*
X77232095Y-143914761D02*
X77136857Y-143962380D01*
X76898761Y-143962380D01*
X76803523Y-143914761D01*
X76755904Y-143819523D01*
X76755904Y-143724285D01*
X76803523Y-143629047D01*
X76898761Y-143581428D01*
X77136857Y-143581428D01*
X77232095Y-143533809D01*
X77565428Y-143295714D02*
X77946380Y-143295714D01*
X77708285Y-142962380D02*
X77708285Y-143819523D01*
X77755904Y-143914761D01*
X77851142Y-143962380D01*
X77946380Y-143962380D01*
X78708285Y-143962380D02*
X78708285Y-143438571D01*
X78660666Y-143343333D01*
X78565428Y-143295714D01*
X78374952Y-143295714D01*
X78279714Y-143343333D01*
X78708285Y-143914761D02*
X78613047Y-143962380D01*
X78374952Y-143962380D01*
X78279714Y-143914761D01*
X78232095Y-143819523D01*
X78232095Y-143724285D01*
X78279714Y-143629047D01*
X78374952Y-143581428D01*
X78613047Y-143581428D01*
X78708285Y-143533809D01*
X80279714Y-143438571D02*
X80422571Y-143486190D01*
X80470190Y-143533809D01*
X80517809Y-143629047D01*
X80517809Y-143771904D01*
X80470190Y-143867142D01*
X80422571Y-143914761D01*
X80327333Y-143962380D01*
X79946380Y-143962380D01*
X79946380Y-142962380D01*
X80279714Y-142962380D01*
X80374952Y-143010000D01*
X80422571Y-143057619D01*
X80470190Y-143152857D01*
X80470190Y-143248095D01*
X80422571Y-143343333D01*
X80374952Y-143390952D01*
X80279714Y-143438571D01*
X79946380Y-143438571D01*
X81374952Y-143295714D02*
X81374952Y-143962380D01*
X80946380Y-143295714D02*
X80946380Y-143819523D01*
X80994000Y-143914761D01*
X81089238Y-143962380D01*
X81232095Y-143962380D01*
X81327333Y-143914761D01*
X81374952Y-143867142D01*
X81803523Y-143914761D02*
X81898761Y-143962380D01*
X82089238Y-143962380D01*
X82184476Y-143914761D01*
X82232095Y-143819523D01*
X82232095Y-143771904D01*
X82184476Y-143676666D01*
X82089238Y-143629047D01*
X81946380Y-143629047D01*
X81851142Y-143581428D01*
X81803523Y-143486190D01*
X81803523Y-143438571D01*
X81851142Y-143343333D01*
X81946380Y-143295714D01*
X82089238Y-143295714D01*
X82184476Y-143343333D01*
%TO.C,U2*%
X49233095Y-32997380D02*
X49233095Y-33806904D01*
X49280714Y-33902142D01*
X49328333Y-33949761D01*
X49423571Y-33997380D01*
X49614047Y-33997380D01*
X49709285Y-33949761D01*
X49756904Y-33902142D01*
X49804523Y-33806904D01*
X49804523Y-32997380D01*
X50233095Y-33092619D02*
X50280714Y-33045000D01*
X50375952Y-32997380D01*
X50614047Y-32997380D01*
X50709285Y-33045000D01*
X50756904Y-33092619D01*
X50804523Y-33187857D01*
X50804523Y-33283095D01*
X50756904Y-33425952D01*
X50185476Y-33997380D01*
X50804523Y-33997380D01*
%TO.C,U13*%
X97151904Y-62297380D02*
X97151904Y-63106904D01*
X97199523Y-63202142D01*
X97247142Y-63249761D01*
X97342380Y-63297380D01*
X97532857Y-63297380D01*
X97628095Y-63249761D01*
X97675714Y-63202142D01*
X97723333Y-63106904D01*
X97723333Y-62297380D01*
X98723333Y-63297380D02*
X98151904Y-63297380D01*
X98437619Y-63297380D02*
X98437619Y-62297380D01*
X98342380Y-62440238D01*
X98247142Y-62535476D01*
X98151904Y-62583095D01*
X99056666Y-62297380D02*
X99675714Y-62297380D01*
X99342380Y-62678333D01*
X99485238Y-62678333D01*
X99580476Y-62725952D01*
X99628095Y-62773571D01*
X99675714Y-62868809D01*
X99675714Y-63106904D01*
X99628095Y-63202142D01*
X99580476Y-63249761D01*
X99485238Y-63297380D01*
X99199523Y-63297380D01*
X99104285Y-63249761D01*
X99056666Y-63202142D01*
%TO.C,U15*%
X126151904Y-63182380D02*
X126151904Y-63991904D01*
X126199523Y-64087142D01*
X126247142Y-64134761D01*
X126342380Y-64182380D01*
X126532857Y-64182380D01*
X126628095Y-64134761D01*
X126675714Y-64087142D01*
X126723333Y-63991904D01*
X126723333Y-63182380D01*
X127723333Y-64182380D02*
X127151904Y-64182380D01*
X127437619Y-64182380D02*
X127437619Y-63182380D01*
X127342380Y-63325238D01*
X127247142Y-63420476D01*
X127151904Y-63468095D01*
X128628095Y-63182380D02*
X128151904Y-63182380D01*
X128104285Y-63658571D01*
X128151904Y-63610952D01*
X128247142Y-63563333D01*
X128485238Y-63563333D01*
X128580476Y-63610952D01*
X128628095Y-63658571D01*
X128675714Y-63753809D01*
X128675714Y-63991904D01*
X128628095Y-64087142D01*
X128580476Y-64134761D01*
X128485238Y-64182380D01*
X128247142Y-64182380D01*
X128151904Y-64134761D01*
X128104285Y-64087142D01*
%TO.C,U10*%
X176831904Y-130092380D02*
X176831904Y-130901904D01*
X176879523Y-130997142D01*
X176927142Y-131044761D01*
X177022380Y-131092380D01*
X177212857Y-131092380D01*
X177308095Y-131044761D01*
X177355714Y-130997142D01*
X177403333Y-130901904D01*
X177403333Y-130092380D01*
X178403333Y-131092380D02*
X177831904Y-131092380D01*
X178117619Y-131092380D02*
X178117619Y-130092380D01*
X178022380Y-130235238D01*
X177927142Y-130330476D01*
X177831904Y-130378095D01*
X179022380Y-130092380D02*
X179117619Y-130092380D01*
X179212857Y-130140000D01*
X179260476Y-130187619D01*
X179308095Y-130282857D01*
X179355714Y-130473333D01*
X179355714Y-130711428D01*
X179308095Y-130901904D01*
X179260476Y-130997142D01*
X179212857Y-131044761D01*
X179117619Y-131092380D01*
X179022380Y-131092380D01*
X178927142Y-131044761D01*
X178879523Y-130997142D01*
X178831904Y-130901904D01*
X178784285Y-130711428D01*
X178784285Y-130473333D01*
X178831904Y-130282857D01*
X178879523Y-130187619D01*
X178927142Y-130140000D01*
X179022380Y-130092380D01*
%TO.C,D1*%
X164256904Y-140692380D02*
X164256904Y-139692380D01*
X164495000Y-139692380D01*
X164637857Y-139740000D01*
X164733095Y-139835238D01*
X164780714Y-139930476D01*
X164828333Y-140120952D01*
X164828333Y-140263809D01*
X164780714Y-140454285D01*
X164733095Y-140549523D01*
X164637857Y-140644761D01*
X164495000Y-140692380D01*
X164256904Y-140692380D01*
X165780714Y-140692380D02*
X165209285Y-140692380D01*
X165495000Y-140692380D02*
X165495000Y-139692380D01*
X165399761Y-139835238D01*
X165304523Y-139930476D01*
X165209285Y-139978095D01*
%TO.C,U14*%
X111951904Y-62697380D02*
X111951904Y-63506904D01*
X111999523Y-63602142D01*
X112047142Y-63649761D01*
X112142380Y-63697380D01*
X112332857Y-63697380D01*
X112428095Y-63649761D01*
X112475714Y-63602142D01*
X112523333Y-63506904D01*
X112523333Y-62697380D01*
X113523333Y-63697380D02*
X112951904Y-63697380D01*
X113237619Y-63697380D02*
X113237619Y-62697380D01*
X113142380Y-62840238D01*
X113047142Y-62935476D01*
X112951904Y-62983095D01*
X114380476Y-63030714D02*
X114380476Y-63697380D01*
X114142380Y-62649761D02*
X113904285Y-63364047D01*
X114523333Y-63364047D01*
%TO.C,U5*%
X97848095Y-32447380D02*
X97848095Y-33256904D01*
X97895714Y-33352142D01*
X97943333Y-33399761D01*
X98038571Y-33447380D01*
X98229047Y-33447380D01*
X98324285Y-33399761D01*
X98371904Y-33352142D01*
X98419523Y-33256904D01*
X98419523Y-32447380D01*
X99371904Y-32447380D02*
X98895714Y-32447380D01*
X98848095Y-32923571D01*
X98895714Y-32875952D01*
X98990952Y-32828333D01*
X99229047Y-32828333D01*
X99324285Y-32875952D01*
X99371904Y-32923571D01*
X99419523Y-33018809D01*
X99419523Y-33256904D01*
X99371904Y-33352142D01*
X99324285Y-33399761D01*
X99229047Y-33447380D01*
X98990952Y-33447380D01*
X98895714Y-33399761D01*
X98848095Y-33352142D01*
D11*
%TO.C,C23*%
X42180000Y-144680000D02*
X42180000Y-144745000D01*
X42180000Y-146920000D02*
X45420000Y-146920000D01*
X42180000Y-144680000D02*
X45420000Y-144680000D01*
X45420000Y-144680000D02*
X45420000Y-144745000D01*
X42180000Y-146855000D02*
X42180000Y-146920000D01*
X45420000Y-146855000D02*
X45420000Y-146920000D01*
%TO.C,U8*%
X128360000Y-93470000D02*
X128360000Y-129150000D01*
X133820000Y-93470000D02*
X128360000Y-93470000D01*
X141280000Y-129150000D02*
X141280000Y-93470000D01*
X128360000Y-129150000D02*
X141280000Y-129150000D01*
X141280000Y-93470000D02*
X135820000Y-93470000D01*
X133820000Y-93470000D02*
G75*
G03*
X135820000Y-93470000I1000000J0D01*
G01*
%TO.C,C12*%
X178621000Y-33080000D02*
X179879000Y-33080000D01*
X178621000Y-34920000D02*
X179879000Y-34920000D01*
%TO.C,JP4*%
X193070000Y-45330000D02*
X193070000Y-42670000D01*
X191800000Y-45330000D02*
X190470000Y-45330000D01*
X193070000Y-42670000D02*
X198210000Y-42670000D01*
X193070000Y-45330000D02*
X198210000Y-45330000D01*
X190470000Y-45330000D02*
X190470000Y-44000000D01*
X198210000Y-45330000D02*
X198210000Y-42670000D01*
%TO.C,C5*%
X185820000Y-49055000D02*
X185820000Y-49120000D01*
X182580000Y-46880000D02*
X182580000Y-46945000D01*
X185820000Y-46880000D02*
X185820000Y-46945000D01*
X182580000Y-49055000D02*
X182580000Y-49120000D01*
X182580000Y-49120000D02*
X185820000Y-49120000D01*
X182580000Y-46880000D02*
X185820000Y-46880000D01*
%TO.C,U7*%
X113820000Y-93470000D02*
X108360000Y-93470000D01*
X108360000Y-129150000D02*
X121280000Y-129150000D01*
X108360000Y-93470000D02*
X108360000Y-129150000D01*
X121280000Y-93470000D02*
X115820000Y-93470000D01*
X121280000Y-129150000D02*
X121280000Y-93470000D01*
X113820000Y-93470000D02*
G75*
G03*
X115820000Y-93470000I1000000J0D01*
G01*
%TO.C,J11*%
X100950000Y-141330000D02*
X149270000Y-141330000D01*
X149270000Y-141330000D02*
X149270000Y-138670000D01*
X98350000Y-138670000D02*
X99680000Y-138670000D01*
X100950000Y-141330000D02*
X100950000Y-138670000D01*
X100950000Y-138670000D02*
X149270000Y-138670000D01*
X98350000Y-140000000D02*
X98350000Y-138670000D01*
%TO.C,C4*%
X82230000Y-28480000D02*
X85470000Y-28480000D01*
X82230000Y-28480000D02*
X82230000Y-28545000D01*
X82230000Y-30655000D02*
X82230000Y-30720000D01*
X85470000Y-30655000D02*
X85470000Y-30720000D01*
X85470000Y-28480000D02*
X85470000Y-28545000D01*
X82230000Y-30720000D02*
X85470000Y-30720000D01*
%TO.C,C19*%
X120020000Y-62655000D02*
X120020000Y-62720000D01*
X116780000Y-60480000D02*
X116780000Y-60545000D01*
X116780000Y-60480000D02*
X120020000Y-60480000D01*
X116780000Y-62655000D02*
X116780000Y-62720000D01*
X116780000Y-62720000D02*
X120020000Y-62720000D01*
X120020000Y-60480000D02*
X120020000Y-60545000D01*
%TO.C,C10*%
X105620000Y-28880000D02*
X105620000Y-28945000D01*
X102380000Y-31120000D02*
X105620000Y-31120000D01*
X105620000Y-31055000D02*
X105620000Y-31120000D01*
X102380000Y-28880000D02*
X105620000Y-28880000D01*
X102380000Y-31055000D02*
X102380000Y-31120000D01*
X102380000Y-28880000D02*
X102380000Y-28945000D01*
%TO.C,C9*%
X189780000Y-105080000D02*
X193020000Y-105080000D01*
X189780000Y-107255000D02*
X189780000Y-107320000D01*
X193020000Y-107255000D02*
X193020000Y-107320000D01*
X193020000Y-105080000D02*
X193020000Y-105145000D01*
X189780000Y-107320000D02*
X193020000Y-107320000D01*
X189780000Y-105080000D02*
X189780000Y-105145000D01*
%TO.C,U12*%
X111610000Y-34245000D02*
X109960000Y-34245000D01*
X109960000Y-52145000D02*
X115260000Y-52145000D01*
X115260000Y-34245000D02*
X113610000Y-34245000D01*
X109960000Y-34245000D02*
X109960000Y-52145000D01*
X115260000Y-52145000D02*
X115260000Y-34245000D01*
X111610000Y-34245000D02*
G75*
G03*
X113610000Y-34245000I1000000J0D01*
G01*
%TO.C,R2*%
X177920000Y-45080000D02*
X174080000Y-45080000D01*
X177920000Y-46920000D02*
X174080000Y-46920000D01*
%TO.C,C21*%
X116180000Y-28880000D02*
X119420000Y-28880000D01*
X116180000Y-31120000D02*
X119420000Y-31120000D01*
X119420000Y-28880000D02*
X119420000Y-28945000D01*
X119420000Y-31055000D02*
X119420000Y-31120000D01*
X116180000Y-31055000D02*
X116180000Y-31120000D01*
X116180000Y-28880000D02*
X116180000Y-28945000D01*
%TO.C,C18*%
X105200000Y-62655000D02*
X105200000Y-62720000D01*
X101960000Y-60480000D02*
X105200000Y-60480000D01*
X101960000Y-62720000D02*
X105200000Y-62720000D01*
X101960000Y-60480000D02*
X101960000Y-60545000D01*
X101960000Y-62655000D02*
X101960000Y-62720000D01*
X105200000Y-60480000D02*
X105200000Y-60545000D01*
%TO.C,C6*%
X69980000Y-92320000D02*
X73220000Y-92320000D01*
X69980000Y-90080000D02*
X69980000Y-90145000D01*
X73220000Y-92255000D02*
X73220000Y-92320000D01*
X69980000Y-92255000D02*
X69980000Y-92320000D01*
X69980000Y-90080000D02*
X73220000Y-90080000D01*
X73220000Y-90080000D02*
X73220000Y-90145000D01*
%TO.C,U9*%
X188660000Y-108395000D02*
X187010000Y-108395000D01*
X188660000Y-128835000D02*
X188660000Y-108395000D01*
X183360000Y-128835000D02*
X188660000Y-128835000D01*
X183360000Y-108395000D02*
X183360000Y-128835000D01*
X185010000Y-108395000D02*
X183360000Y-108395000D01*
X185010000Y-108395000D02*
G75*
G03*
X187010000Y-108395000I1000000J0D01*
G01*
%TO.C,C13*%
X194960000Y-113800000D02*
X193450000Y-113800000D01*
X198149000Y-114841000D02*
X197040000Y-114841000D01*
X198268000Y-114641000D02*
X197040000Y-114641000D01*
X194960000Y-114601000D02*
X193710000Y-114601000D01*
X198122000Y-114881000D02*
X197040000Y-114881000D01*
X194960000Y-114921000D02*
X193905000Y-114921000D01*
X198329000Y-114521000D02*
X197040000Y-114521000D01*
X197901000Y-115161000D02*
X197040000Y-115161000D01*
X194960000Y-114681000D02*
X193753000Y-114681000D01*
X194960000Y-114481000D02*
X193652000Y-114481000D01*
X198348000Y-114481000D02*
X197040000Y-114481000D01*
X196518000Y-115961000D02*
X195482000Y-115961000D01*
X194960000Y-115041000D02*
X193996000Y-115041000D01*
X197605000Y-115441000D02*
X194395000Y-115441000D01*
X197178000Y-115721000D02*
X194822000Y-115721000D01*
X194960000Y-114841000D02*
X193851000Y-114841000D01*
X198468000Y-114161000D02*
X197040000Y-114161000D01*
X197251000Y-115681000D02*
X194749000Y-115681000D01*
X198520000Y-113960000D02*
X197040000Y-113960000D01*
X194960000Y-114721000D02*
X193776000Y-114721000D01*
X194960000Y-115361000D02*
X194301000Y-115361000D01*
X197653000Y-115401000D02*
X197040000Y-115401000D01*
X198382000Y-114401000D02*
X197040000Y-114401000D01*
X194960000Y-114281000D02*
X193572000Y-114281000D01*
X194960000Y-114761000D02*
X193800000Y-114761000D01*
X194960000Y-114881000D02*
X193878000Y-114881000D01*
X198528000Y-113920000D02*
X197040000Y-113920000D01*
X198580000Y-113400000D02*
X197040000Y-113400000D01*
X198247000Y-114681000D02*
X197040000Y-114681000D01*
X194960000Y-114321000D02*
X193586000Y-114321000D01*
X194960000Y-113960000D02*
X193480000Y-113960000D01*
X194960000Y-115081000D02*
X194029000Y-115081000D01*
X194960000Y-113680000D02*
X193435000Y-113680000D01*
X194960000Y-114201000D02*
X193545000Y-114201000D01*
X196284000Y-116001000D02*
X195716000Y-116001000D01*
X194960000Y-113720000D02*
X193439000Y-113720000D01*
X198310000Y-114561000D02*
X197040000Y-114561000D01*
X194960000Y-114121000D02*
X193520000Y-114121000D01*
X198543000Y-113840000D02*
X197040000Y-113840000D01*
X198035000Y-115001000D02*
X197040000Y-115001000D01*
X198511000Y-114000000D02*
X197040000Y-114000000D01*
X198569000Y-113640000D02*
X197040000Y-113640000D01*
X197699000Y-115361000D02*
X197040000Y-115361000D01*
X194960000Y-114441000D02*
X193635000Y-114441000D01*
X197443000Y-115561000D02*
X194557000Y-115561000D01*
X194960000Y-114080000D02*
X193509000Y-114080000D01*
X197971000Y-115081000D02*
X197040000Y-115081000D01*
X194960000Y-114801000D02*
X193825000Y-114801000D01*
X198455000Y-114201000D02*
X197040000Y-114201000D01*
X198578000Y-113520000D02*
X197040000Y-113520000D01*
X197554000Y-115481000D02*
X194446000Y-115481000D01*
X194960000Y-115121000D02*
X194063000Y-115121000D01*
X194960000Y-115321000D02*
X194257000Y-115321000D01*
X197383000Y-115601000D02*
X194617000Y-115601000D01*
X197319000Y-115641000D02*
X194681000Y-115641000D01*
X198536000Y-113880000D02*
X197040000Y-113880000D01*
X196677000Y-115921000D02*
X195323000Y-115921000D01*
X194960000Y-115281000D02*
X194215000Y-115281000D01*
X194960000Y-114401000D02*
X193618000Y-114401000D01*
X194960000Y-114241000D02*
X193558000Y-114241000D01*
X194960000Y-113840000D02*
X193457000Y-113840000D01*
X194960000Y-115001000D02*
X193965000Y-115001000D01*
X197500000Y-115521000D02*
X194500000Y-115521000D01*
X194960000Y-114521000D02*
X193671000Y-114521000D01*
X194960000Y-114361000D02*
X193602000Y-114361000D01*
X198573000Y-113600000D02*
X197040000Y-113600000D01*
X196805000Y-115881000D02*
X195195000Y-115881000D01*
X198224000Y-114721000D02*
X197040000Y-114721000D01*
X197475000Y-110595225D02*
X197475000Y-111095225D01*
X198365000Y-114441000D02*
X197040000Y-114441000D01*
X194960000Y-115401000D02*
X194347000Y-115401000D01*
X198095000Y-114921000D02*
X197040000Y-114921000D01*
X198175000Y-114801000D02*
X197040000Y-114801000D01*
X198561000Y-113720000D02*
X197040000Y-113720000D01*
X197011000Y-115801000D02*
X194989000Y-115801000D01*
X198290000Y-114601000D02*
X197040000Y-114601000D01*
X197743000Y-115321000D02*
X197040000Y-115321000D01*
X196915000Y-115841000D02*
X195085000Y-115841000D01*
X194960000Y-114961000D02*
X193935000Y-114961000D01*
X194960000Y-113440000D02*
X193420000Y-113440000D01*
X194960000Y-113760000D02*
X193444000Y-113760000D01*
X198200000Y-114761000D02*
X197040000Y-114761000D01*
X198579000Y-113480000D02*
X197040000Y-113480000D01*
X197098000Y-115761000D02*
X194902000Y-115761000D01*
X194960000Y-113880000D02*
X193464000Y-113880000D01*
X194960000Y-115241000D02*
X194174000Y-115241000D01*
X194960000Y-114040000D02*
X193499000Y-114040000D01*
X194960000Y-114161000D02*
X193532000Y-114161000D01*
X198428000Y-114281000D02*
X197040000Y-114281000D01*
X198501000Y-114040000D02*
X197040000Y-114040000D01*
X197785000Y-115281000D02*
X197040000Y-115281000D01*
X198442000Y-114241000D02*
X197040000Y-114241000D01*
X198414000Y-114321000D02*
X197040000Y-114321000D01*
X198398000Y-114361000D02*
X197040000Y-114361000D01*
X194960000Y-113920000D02*
X193472000Y-113920000D01*
X194960000Y-115161000D02*
X194099000Y-115161000D01*
X198580000Y-113440000D02*
X197040000Y-113440000D01*
X194960000Y-113520000D02*
X193422000Y-113520000D01*
X194960000Y-113640000D02*
X193431000Y-113640000D01*
X198065000Y-114961000D02*
X197040000Y-114961000D01*
X197725000Y-110845225D02*
X197225000Y-110845225D01*
X198576000Y-113560000D02*
X197040000Y-113560000D01*
X198480000Y-114121000D02*
X197040000Y-114121000D01*
X194960000Y-113400000D02*
X193420000Y-113400000D01*
X198565000Y-113680000D02*
X197040000Y-113680000D01*
X198556000Y-113760000D02*
X197040000Y-113760000D01*
X198491000Y-114080000D02*
X197040000Y-114080000D01*
X197937000Y-115121000D02*
X197040000Y-115121000D01*
X194960000Y-115201000D02*
X194136000Y-115201000D01*
X194960000Y-114000000D02*
X193489000Y-114000000D01*
X194960000Y-114561000D02*
X193690000Y-114561000D01*
X198004000Y-115041000D02*
X197040000Y-115041000D01*
X198550000Y-113800000D02*
X197040000Y-113800000D01*
X194960000Y-114641000D02*
X193732000Y-114641000D01*
X197826000Y-115241000D02*
X197040000Y-115241000D01*
X194960000Y-113560000D02*
X193424000Y-113560000D01*
X197864000Y-115201000D02*
X197040000Y-115201000D01*
X194960000Y-113480000D02*
X193421000Y-113480000D01*
X194960000Y-113600000D02*
X193427000Y-113600000D01*
X198620000Y-113400000D02*
G75*
G03*
X198620000Y-113400000I-2620000J0D01*
G01*
%TO.C,RN1*%
X164600000Y-49680000D02*
X164600000Y-70340000D01*
X167400000Y-70340000D02*
X167400000Y-49680000D01*
X167400000Y-49680000D02*
X164600000Y-49680000D01*
X164600000Y-67630000D02*
X167400000Y-67630000D01*
X164600000Y-70340000D02*
X167400000Y-70340000D01*
%TO.C,C1*%
X174321000Y-129822000D02*
X174321000Y-132178000D01*
X173561000Y-132040000D02*
X173561000Y-133065000D01*
X172080000Y-128421000D02*
X172080000Y-129960000D01*
X172841000Y-132040000D02*
X172841000Y-133442000D01*
X174361000Y-129902000D02*
X174361000Y-132098000D01*
X172480000Y-132040000D02*
X172480000Y-133536000D01*
X173841000Y-132040000D02*
X173841000Y-132826000D01*
X174441000Y-130085000D02*
X174441000Y-131915000D01*
X172360000Y-128444000D02*
X172360000Y-129960000D01*
X173121000Y-132040000D02*
X173121000Y-133329000D01*
X173881000Y-132040000D02*
X173881000Y-132785000D01*
X173281000Y-132040000D02*
X173281000Y-133247000D01*
X172240000Y-132040000D02*
X172240000Y-133569000D01*
X172240000Y-128431000D02*
X172240000Y-129960000D01*
X172440000Y-132040000D02*
X172440000Y-133543000D01*
X173241000Y-128732000D02*
X173241000Y-129960000D01*
X172280000Y-132040000D02*
X172280000Y-133565000D01*
X173441000Y-128851000D02*
X173441000Y-129960000D01*
X172640000Y-128499000D02*
X172640000Y-129960000D01*
X172600000Y-128489000D02*
X172600000Y-129960000D01*
X172761000Y-132040000D02*
X172761000Y-133468000D01*
X173681000Y-132040000D02*
X173681000Y-132971000D01*
X173561000Y-128935000D02*
X173561000Y-129960000D01*
X173081000Y-128652000D02*
X173081000Y-129960000D01*
X173641000Y-128996000D02*
X173641000Y-129960000D01*
X173121000Y-128671000D02*
X173121000Y-129960000D01*
X173041000Y-128635000D02*
X173041000Y-129960000D01*
X173801000Y-129136000D02*
X173801000Y-129960000D01*
X173361000Y-128800000D02*
X173361000Y-129960000D01*
X174521000Y-130323000D02*
X174521000Y-131677000D01*
X173401000Y-128825000D02*
X173401000Y-129960000D01*
X172200000Y-128427000D02*
X172200000Y-129960000D01*
X172721000Y-128520000D02*
X172721000Y-129960000D01*
X173601000Y-128965000D02*
X173601000Y-129960000D01*
X172320000Y-128439000D02*
X172320000Y-129960000D01*
X172000000Y-128420000D02*
X172000000Y-129960000D01*
X173721000Y-129063000D02*
X173721000Y-129960000D01*
X172160000Y-132040000D02*
X172160000Y-133576000D01*
X172560000Y-128480000D02*
X172560000Y-129960000D01*
X172400000Y-128450000D02*
X172400000Y-129960000D01*
X173361000Y-132040000D02*
X173361000Y-133200000D01*
X173441000Y-132040000D02*
X173441000Y-133149000D01*
X174601000Y-130716000D02*
X174601000Y-131284000D01*
X172080000Y-132040000D02*
X172080000Y-133579000D01*
X174041000Y-129395000D02*
X174041000Y-132605000D01*
X174001000Y-129347000D02*
X174001000Y-129960000D01*
X173921000Y-132040000D02*
X173921000Y-132743000D01*
X172400000Y-132040000D02*
X172400000Y-133550000D01*
X173321000Y-128776000D02*
X173321000Y-129960000D01*
X173761000Y-129099000D02*
X173761000Y-129960000D01*
X174481000Y-130195000D02*
X174481000Y-131805000D01*
X172881000Y-132040000D02*
X172881000Y-133428000D01*
X173481000Y-132040000D02*
X173481000Y-133122000D01*
X169195225Y-129525000D02*
X169695225Y-129525000D01*
X173801000Y-132040000D02*
X173801000Y-132864000D01*
X173961000Y-129301000D02*
X173961000Y-129960000D01*
X172320000Y-132040000D02*
X172320000Y-133561000D01*
X172680000Y-128509000D02*
X172680000Y-129960000D01*
X173161000Y-128690000D02*
X173161000Y-129960000D01*
X173201000Y-132040000D02*
X173201000Y-133290000D01*
X172040000Y-128420000D02*
X172040000Y-129960000D01*
X173761000Y-132040000D02*
X173761000Y-132901000D01*
X172921000Y-132040000D02*
X172921000Y-133414000D01*
X172801000Y-128545000D02*
X172801000Y-129960000D01*
X173081000Y-132040000D02*
X173081000Y-133348000D01*
X174281000Y-129749000D02*
X174281000Y-132251000D01*
X173921000Y-129257000D02*
X173921000Y-129960000D01*
X172961000Y-128602000D02*
X172961000Y-129960000D01*
X172520000Y-132040000D02*
X172520000Y-133528000D01*
X174201000Y-129617000D02*
X174201000Y-132383000D01*
X172040000Y-132040000D02*
X172040000Y-133580000D01*
X169445225Y-129275000D02*
X169445225Y-129775000D01*
X172480000Y-128464000D02*
X172480000Y-129960000D01*
X172520000Y-128472000D02*
X172520000Y-129960000D01*
X172600000Y-132040000D02*
X172600000Y-133511000D01*
X173521000Y-128905000D02*
X173521000Y-129960000D01*
X174081000Y-129446000D02*
X174081000Y-132554000D01*
X172721000Y-132040000D02*
X172721000Y-133480000D01*
X173641000Y-132040000D02*
X173641000Y-133004000D01*
X172440000Y-128457000D02*
X172440000Y-129960000D01*
X173281000Y-128753000D02*
X173281000Y-129960000D01*
X173401000Y-132040000D02*
X173401000Y-133175000D01*
X173481000Y-128878000D02*
X173481000Y-129960000D01*
X174241000Y-129681000D02*
X174241000Y-132319000D01*
X174001000Y-132040000D02*
X174001000Y-132653000D01*
X172841000Y-128558000D02*
X172841000Y-129960000D01*
X172761000Y-128532000D02*
X172761000Y-129960000D01*
X172680000Y-132040000D02*
X172680000Y-133491000D01*
X172200000Y-132040000D02*
X172200000Y-133573000D01*
X173041000Y-132040000D02*
X173041000Y-133365000D01*
X174121000Y-129500000D02*
X174121000Y-132500000D01*
X174561000Y-130482000D02*
X174561000Y-131518000D01*
X172881000Y-128572000D02*
X172881000Y-129960000D01*
X173681000Y-129029000D02*
X173681000Y-129960000D01*
X173721000Y-132040000D02*
X173721000Y-132937000D01*
X172961000Y-132040000D02*
X172961000Y-133398000D01*
X173521000Y-132040000D02*
X173521000Y-133095000D01*
X173881000Y-129215000D02*
X173881000Y-129960000D01*
X173241000Y-132040000D02*
X173241000Y-133268000D01*
X173161000Y-132040000D02*
X173161000Y-133310000D01*
X174161000Y-129557000D02*
X174161000Y-132443000D01*
X173601000Y-132040000D02*
X173601000Y-133035000D01*
X172000000Y-132040000D02*
X172000000Y-133580000D01*
X172120000Y-132040000D02*
X172120000Y-133578000D01*
X172160000Y-128424000D02*
X172160000Y-129960000D01*
X172120000Y-128422000D02*
X172120000Y-129960000D01*
X172921000Y-128586000D02*
X172921000Y-129960000D01*
X174401000Y-129989000D02*
X174401000Y-132011000D01*
X172360000Y-132040000D02*
X172360000Y-133556000D01*
X172280000Y-128435000D02*
X172280000Y-129960000D01*
X173321000Y-132040000D02*
X173321000Y-133224000D01*
X173841000Y-129174000D02*
X173841000Y-129960000D01*
X173961000Y-132040000D02*
X173961000Y-132699000D01*
X172640000Y-132040000D02*
X172640000Y-133501000D01*
X172560000Y-132040000D02*
X172560000Y-133520000D01*
X172801000Y-132040000D02*
X172801000Y-133455000D01*
X173201000Y-128710000D02*
X173201000Y-129960000D01*
X173001000Y-132040000D02*
X173001000Y-133382000D01*
X173001000Y-128618000D02*
X173001000Y-129960000D01*
X174620000Y-131000000D02*
G75*
G03*
X174620000Y-131000000I-2620000J0D01*
G01*
D12*
%TO.C,J1*%
X179060000Y-141780000D02*
X177400000Y-141780000D01*
X170986676Y-147840000D02*
X171356676Y-147840000D01*
X170950000Y-141800000D02*
X170950000Y-143250000D01*
X179060000Y-141780000D02*
X179060000Y-143250000D01*
X170950000Y-141790000D02*
X172600000Y-141790000D01*
X170986676Y-147460000D02*
X170986676Y-147840000D01*
X179014908Y-147841848D02*
X178644908Y-147841848D01*
X179014908Y-147461848D02*
X179014908Y-147841848D01*
D11*
%TO.C,C15*%
X194560000Y-122565900D02*
X193271000Y-122565900D01*
X194560000Y-122165900D02*
X193120000Y-122165900D01*
X194560000Y-122645900D02*
X193310000Y-122645900D01*
X198128000Y-121964900D02*
X196640000Y-121964900D01*
X194560000Y-121564900D02*
X193022000Y-121564900D01*
X198055000Y-122245900D02*
X196640000Y-122245900D01*
X197965000Y-122485900D02*
X196640000Y-122485900D01*
X194560000Y-122205900D02*
X193132000Y-122205900D01*
X198180000Y-121444900D02*
X196640000Y-121444900D01*
X198156000Y-121804900D02*
X196640000Y-121804900D01*
X196778000Y-123765900D02*
X194422000Y-123765900D01*
X197775000Y-122845900D02*
X196640000Y-122845900D01*
X197299000Y-123405900D02*
X196640000Y-123405900D01*
X197800000Y-122805900D02*
X196640000Y-122805900D01*
X194560000Y-122084900D02*
X193099000Y-122084900D01*
X197982000Y-122445900D02*
X196640000Y-122445900D01*
X194560000Y-123085900D02*
X193596000Y-123085900D01*
X194560000Y-123285900D02*
X193774000Y-123285900D01*
X194560000Y-123445900D02*
X193947000Y-123445900D01*
X194560000Y-123005900D02*
X193535000Y-123005900D01*
X196515000Y-123885900D02*
X194685000Y-123885900D01*
X198178000Y-121564900D02*
X196640000Y-121564900D01*
X194560000Y-121804900D02*
X193044000Y-121804900D01*
X194560000Y-122405900D02*
X193202000Y-122405900D01*
X196118000Y-124005900D02*
X195082000Y-124005900D01*
X197635000Y-123045900D02*
X196640000Y-123045900D01*
X197868000Y-122685900D02*
X196640000Y-122685900D01*
X197948000Y-122525900D02*
X196640000Y-122525900D01*
X198111000Y-122044900D02*
X196640000Y-122044900D01*
X196698000Y-123805900D02*
X194502000Y-123805900D01*
X195884000Y-124045900D02*
X195316000Y-124045900D01*
X194560000Y-122124900D02*
X193109000Y-122124900D01*
X194560000Y-121444900D02*
X193020000Y-121444900D01*
X194560000Y-122004900D02*
X193080000Y-122004900D01*
X197100000Y-123565900D02*
X194100000Y-123565900D01*
X197325000Y-118890125D02*
X196825000Y-118890125D01*
X197929000Y-122565900D02*
X196640000Y-122565900D01*
X197722000Y-122925900D02*
X196640000Y-122925900D01*
X197695000Y-122965900D02*
X196640000Y-122965900D01*
X194560000Y-122925900D02*
X193478000Y-122925900D01*
X194560000Y-122805900D02*
X193400000Y-122805900D01*
X198028000Y-122325900D02*
X196640000Y-122325900D01*
X197847000Y-122725900D02*
X196640000Y-122725900D01*
X197910000Y-122605900D02*
X196640000Y-122605900D01*
X194560000Y-123365900D02*
X193857000Y-123365900D01*
X198150000Y-121844900D02*
X196640000Y-121844900D01*
X194560000Y-121964900D02*
X193072000Y-121964900D01*
X194560000Y-122765900D02*
X193376000Y-122765900D01*
X197890000Y-122645900D02*
X196640000Y-122645900D01*
X196611000Y-123845900D02*
X194589000Y-123845900D01*
X198173000Y-121644900D02*
X196640000Y-121644900D01*
X198068000Y-122205900D02*
X196640000Y-122205900D01*
X194560000Y-121524900D02*
X193021000Y-121524900D01*
X197075000Y-118640125D02*
X197075000Y-119140125D01*
X194560000Y-122245900D02*
X193145000Y-122245900D01*
X198180000Y-121484900D02*
X196640000Y-121484900D01*
X194560000Y-123325900D02*
X193815000Y-123325900D01*
X194560000Y-121724900D02*
X193035000Y-121724900D01*
X194560000Y-121644900D02*
X193027000Y-121644900D01*
X197464000Y-123245900D02*
X196640000Y-123245900D01*
X197385000Y-123325900D02*
X196640000Y-123325900D01*
X196919000Y-123685900D02*
X194281000Y-123685900D01*
X194560000Y-122845900D02*
X193425000Y-122845900D01*
X197154000Y-123525900D02*
X194046000Y-123525900D01*
X194560000Y-122044900D02*
X193089000Y-122044900D01*
X197343000Y-123365900D02*
X196640000Y-123365900D01*
X197604000Y-123085900D02*
X196640000Y-123085900D01*
X194560000Y-122605900D02*
X193290000Y-122605900D01*
X194560000Y-121764900D02*
X193039000Y-121764900D01*
X194560000Y-123165900D02*
X193663000Y-123165900D01*
X197205000Y-123485900D02*
X193995000Y-123485900D01*
X198143000Y-121884900D02*
X196640000Y-121884900D01*
X198101000Y-122084900D02*
X196640000Y-122084900D01*
X197824000Y-122765900D02*
X196640000Y-122765900D01*
X198120000Y-122004900D02*
X196640000Y-122004900D01*
X198176000Y-121604900D02*
X196640000Y-121604900D01*
X194560000Y-122525900D02*
X193252000Y-122525900D01*
X194560000Y-123405900D02*
X193901000Y-123405900D01*
X197253000Y-123445900D02*
X196640000Y-123445900D01*
X197998000Y-122405900D02*
X196640000Y-122405900D01*
X194560000Y-123205900D02*
X193699000Y-123205900D01*
X198042000Y-122285900D02*
X196640000Y-122285900D01*
X198136000Y-121924900D02*
X196640000Y-121924900D01*
X196405000Y-123925900D02*
X194795000Y-123925900D01*
X197571000Y-123125900D02*
X196640000Y-123125900D01*
X198165000Y-121724900D02*
X196640000Y-121724900D01*
X198091000Y-122124900D02*
X196640000Y-122124900D01*
X194560000Y-122685900D02*
X193332000Y-122685900D01*
X197749000Y-122885900D02*
X196640000Y-122885900D01*
X194560000Y-123245900D02*
X193736000Y-123245900D01*
X194560000Y-121844900D02*
X193050000Y-121844900D01*
X194560000Y-121484900D02*
X193020000Y-121484900D01*
X194560000Y-123125900D02*
X193629000Y-123125900D01*
X194560000Y-122445900D02*
X193218000Y-122445900D01*
X198014000Y-122365900D02*
X196640000Y-122365900D01*
X196983000Y-123645900D02*
X194217000Y-123645900D01*
X197426000Y-123285900D02*
X196640000Y-123285900D01*
X198080000Y-122165900D02*
X196640000Y-122165900D01*
X194560000Y-123045900D02*
X193565000Y-123045900D01*
X198179000Y-121524900D02*
X196640000Y-121524900D01*
X194560000Y-122325900D02*
X193172000Y-122325900D01*
X194560000Y-122965900D02*
X193505000Y-122965900D01*
X194560000Y-121684900D02*
X193031000Y-121684900D01*
X194560000Y-121604900D02*
X193024000Y-121604900D01*
X194560000Y-122485900D02*
X193235000Y-122485900D01*
X197665000Y-123005900D02*
X196640000Y-123005900D01*
X197537000Y-123165900D02*
X196640000Y-123165900D01*
X194560000Y-122725900D02*
X193353000Y-122725900D01*
X197043000Y-123605900D02*
X194157000Y-123605900D01*
X194560000Y-122285900D02*
X193158000Y-122285900D01*
X194560000Y-121884900D02*
X193057000Y-121884900D01*
X194560000Y-121924900D02*
X193064000Y-121924900D01*
X196277000Y-123965900D02*
X194923000Y-123965900D01*
X196851000Y-123725900D02*
X194349000Y-123725900D01*
X198161000Y-121764900D02*
X196640000Y-121764900D01*
X197501000Y-123205900D02*
X196640000Y-123205900D01*
X194560000Y-122365900D02*
X193186000Y-122365900D01*
X198169000Y-121684900D02*
X196640000Y-121684900D01*
X194560000Y-122885900D02*
X193451000Y-122885900D01*
X198220000Y-121444900D02*
G75*
G03*
X198220000Y-121444900I-2620000J0D01*
G01*
%TO.C,U1*%
X184000000Y-51960000D02*
X172960000Y-51960000D01*
X198040000Y-78040000D02*
X198040000Y-51960000D01*
X171960000Y-78040000D02*
X198040000Y-78040000D01*
X171960000Y-52960000D02*
X171960000Y-78040000D01*
X198040000Y-51960000D02*
X186000000Y-51960000D01*
X172960000Y-51960000D02*
X171960000Y-52960000D01*
%TO.C,C22*%
X92020000Y-92255000D02*
X92020000Y-92320000D01*
X88780000Y-92255000D02*
X88780000Y-92320000D01*
X92020000Y-90080000D02*
X92020000Y-90145000D01*
X88780000Y-90080000D02*
X92020000Y-90080000D01*
X88780000Y-90080000D02*
X88780000Y-90145000D01*
X88780000Y-92320000D02*
X92020000Y-92320000D01*
%TO.C,C2*%
X41980000Y-89055000D02*
X41980000Y-89120000D01*
X45220000Y-86880000D02*
X45220000Y-86945000D01*
X45220000Y-89055000D02*
X45220000Y-89120000D01*
X41980000Y-89120000D02*
X45220000Y-89120000D01*
X41980000Y-86880000D02*
X41980000Y-86945000D01*
X41980000Y-86880000D02*
X45220000Y-86880000D01*
%TO.C,U3*%
X81040000Y-88565000D02*
X81040000Y-63045000D01*
X75740000Y-63045000D02*
X75740000Y-88565000D01*
X75740000Y-88565000D02*
X81040000Y-88565000D01*
X77390000Y-63045000D02*
X75740000Y-63045000D01*
X81040000Y-63045000D02*
X79390000Y-63045000D01*
X77390000Y-63045000D02*
G75*
G03*
X79390000Y-63045000I1000000J0D01*
G01*
%TO.C,C20*%
X134420000Y-60680000D02*
X134420000Y-60745000D01*
X131180000Y-60680000D02*
X134420000Y-60680000D01*
X131180000Y-60680000D02*
X131180000Y-60745000D01*
X131180000Y-62855000D02*
X131180000Y-62920000D01*
X131180000Y-62920000D02*
X134420000Y-62920000D01*
X134420000Y-62855000D02*
X134420000Y-62920000D01*
%TO.C,C14*%
X174360000Y-112600000D02*
X172889000Y-112600000D01*
X174360000Y-113961000D02*
X173701000Y-113961000D01*
X176875000Y-109195225D02*
X176875000Y-109695225D01*
X177668000Y-113241000D02*
X176440000Y-113241000D01*
X174360000Y-113361000D02*
X173200000Y-113361000D01*
X177979000Y-112080000D02*
X176440000Y-112080000D01*
X176077000Y-114521000D02*
X174723000Y-114521000D01*
X177911000Y-112600000D02*
X176440000Y-112600000D01*
X177943000Y-112440000D02*
X176440000Y-112440000D01*
X177404000Y-113641000D02*
X176440000Y-113641000D01*
X174360000Y-113761000D02*
X173499000Y-113761000D01*
X174360000Y-113201000D02*
X173110000Y-113201000D01*
X174360000Y-112761000D02*
X172932000Y-112761000D01*
X174360000Y-113561000D02*
X173335000Y-113561000D01*
X174360000Y-113881000D02*
X173615000Y-113881000D01*
X176578000Y-114321000D02*
X174222000Y-114321000D01*
X174360000Y-112000000D02*
X172820000Y-112000000D01*
X177575000Y-113401000D02*
X176440000Y-113401000D01*
X177978000Y-112120000D02*
X176440000Y-112120000D01*
X174360000Y-112080000D02*
X172821000Y-112080000D01*
X174360000Y-112640000D02*
X172899000Y-112640000D01*
X174360000Y-113041000D02*
X173035000Y-113041000D01*
X177647000Y-113281000D02*
X176440000Y-113281000D01*
X177842000Y-112841000D02*
X176440000Y-112841000D01*
X177765000Y-113041000D02*
X176440000Y-113041000D01*
X175684000Y-114601000D02*
X175116000Y-114601000D01*
X177099000Y-113961000D02*
X176440000Y-113961000D01*
X174360000Y-113601000D02*
X173365000Y-113601000D01*
X174360000Y-112921000D02*
X172986000Y-112921000D01*
X174360000Y-112480000D02*
X172864000Y-112480000D01*
X177690000Y-113201000D02*
X176440000Y-113201000D01*
X177961000Y-112320000D02*
X176440000Y-112320000D01*
X174360000Y-112841000D02*
X172958000Y-112841000D01*
X174360000Y-113801000D02*
X173536000Y-113801000D01*
X177868000Y-112761000D02*
X176440000Y-112761000D01*
X177053000Y-114001000D02*
X176440000Y-114001000D01*
X177920000Y-112560000D02*
X176440000Y-112560000D01*
X177980000Y-112040000D02*
X176440000Y-112040000D01*
X177936000Y-112480000D02*
X176440000Y-112480000D01*
X174360000Y-112680000D02*
X172909000Y-112680000D01*
X177891000Y-112680000D02*
X176440000Y-112680000D01*
X177880000Y-112721000D02*
X176440000Y-112721000D01*
X177798000Y-112961000D02*
X176440000Y-112961000D01*
X177522000Y-113481000D02*
X176440000Y-113481000D01*
X177729000Y-113121000D02*
X176440000Y-113121000D01*
X174360000Y-112801000D02*
X172945000Y-112801000D01*
X174360000Y-113721000D02*
X173463000Y-113721000D01*
X177624000Y-113321000D02*
X176440000Y-113321000D01*
X174360000Y-112040000D02*
X172820000Y-112040000D01*
X174360000Y-113841000D02*
X173574000Y-113841000D01*
X176205000Y-114481000D02*
X174595000Y-114481000D01*
X174360000Y-112360000D02*
X172844000Y-112360000D01*
X177226000Y-113841000D02*
X176440000Y-113841000D01*
X174360000Y-112961000D02*
X173002000Y-112961000D01*
X174360000Y-113121000D02*
X173071000Y-113121000D01*
X174360000Y-113281000D02*
X173153000Y-113281000D01*
X174360000Y-112440000D02*
X172857000Y-112440000D01*
X174360000Y-112120000D02*
X172822000Y-112120000D01*
X177435000Y-113601000D02*
X176440000Y-113601000D01*
X174360000Y-114001000D02*
X173747000Y-114001000D01*
X177143000Y-113921000D02*
X176440000Y-113921000D01*
X177828000Y-112881000D02*
X176440000Y-112881000D01*
X176651000Y-114281000D02*
X174149000Y-114281000D01*
X176411000Y-114401000D02*
X174389000Y-114401000D01*
X176843000Y-114161000D02*
X173957000Y-114161000D01*
X174360000Y-113001000D02*
X173018000Y-113001000D01*
X177976000Y-112160000D02*
X176440000Y-112160000D01*
X177928000Y-112520000D02*
X176440000Y-112520000D01*
X174360000Y-113241000D02*
X173132000Y-113241000D01*
X174360000Y-112400000D02*
X172850000Y-112400000D01*
X174360000Y-113681000D02*
X173429000Y-113681000D01*
X177185000Y-113881000D02*
X176440000Y-113881000D01*
X177980000Y-112000000D02*
X176440000Y-112000000D01*
X177973000Y-112200000D02*
X176440000Y-112200000D01*
X177782000Y-113001000D02*
X176440000Y-113001000D01*
X177710000Y-113161000D02*
X176440000Y-113161000D01*
X174360000Y-113401000D02*
X173225000Y-113401000D01*
X176954000Y-114081000D02*
X173846000Y-114081000D01*
X176498000Y-114361000D02*
X174302000Y-114361000D01*
X174360000Y-113321000D02*
X173176000Y-113321000D01*
X176315000Y-114441000D02*
X174485000Y-114441000D01*
X177495000Y-113521000D02*
X176440000Y-113521000D01*
X174360000Y-112200000D02*
X172827000Y-112200000D01*
X174360000Y-113521000D02*
X173305000Y-113521000D01*
X174360000Y-112881000D02*
X172972000Y-112881000D01*
X174360000Y-113921000D02*
X173657000Y-113921000D01*
X174360000Y-112280000D02*
X172835000Y-112280000D01*
X177965000Y-112280000D02*
X176440000Y-112280000D01*
X177264000Y-113801000D02*
X176440000Y-113801000D01*
X177950000Y-112400000D02*
X176440000Y-112400000D01*
X177600000Y-113361000D02*
X176440000Y-113361000D01*
X177956000Y-112360000D02*
X176440000Y-112360000D01*
X175918000Y-114561000D02*
X174882000Y-114561000D01*
X177855000Y-112801000D02*
X176440000Y-112801000D01*
X176783000Y-114201000D02*
X174017000Y-114201000D01*
X176900000Y-114121000D02*
X173900000Y-114121000D01*
X174360000Y-112560000D02*
X172880000Y-112560000D01*
X177371000Y-113681000D02*
X176440000Y-113681000D01*
X177337000Y-113721000D02*
X176440000Y-113721000D01*
X174360000Y-112721000D02*
X172920000Y-112721000D01*
X177969000Y-112240000D02*
X176440000Y-112240000D01*
X174360000Y-113481000D02*
X173278000Y-113481000D01*
X174360000Y-113081000D02*
X173052000Y-113081000D01*
X174360000Y-112520000D02*
X172872000Y-112520000D01*
X174360000Y-112160000D02*
X172824000Y-112160000D01*
X177748000Y-113081000D02*
X176440000Y-113081000D01*
X177814000Y-112921000D02*
X176440000Y-112921000D01*
X177549000Y-113441000D02*
X176440000Y-113441000D01*
X174360000Y-113161000D02*
X173090000Y-113161000D01*
X177901000Y-112640000D02*
X176440000Y-112640000D01*
X174360000Y-112240000D02*
X172831000Y-112240000D01*
X176719000Y-114241000D02*
X174081000Y-114241000D01*
X174360000Y-112320000D02*
X172839000Y-112320000D01*
X174360000Y-113641000D02*
X173396000Y-113641000D01*
X177005000Y-114041000D02*
X173795000Y-114041000D01*
X177301000Y-113761000D02*
X176440000Y-113761000D01*
X174360000Y-113441000D02*
X173251000Y-113441000D01*
X177125000Y-109445225D02*
X176625000Y-109445225D01*
X177465000Y-113561000D02*
X176440000Y-113561000D01*
X178020000Y-112000000D02*
G75*
G03*
X178020000Y-112000000I-2620000J0D01*
G01*
%TO.C,SW1*%
X183900000Y-143450000D02*
X183900000Y-144950000D01*
X190900000Y-144950000D02*
X190900000Y-143450000D01*
X189650000Y-140950000D02*
X185150000Y-140950000D01*
X185150000Y-147450000D02*
X189650000Y-147450000D01*
%TO.C,J5*%
X35025000Y-34570000D02*
X36355000Y-34570000D01*
X33695000Y-85490000D02*
X36355000Y-85490000D01*
X33695000Y-37170000D02*
X33695000Y-85490000D01*
X33695000Y-37170000D02*
X36355000Y-37170000D01*
X36355000Y-37170000D02*
X36355000Y-85490000D01*
X36355000Y-34570000D02*
X36355000Y-35900000D01*
%TO.C,J4*%
X211305000Y-87830000D02*
X208645000Y-87830000D01*
X208645000Y-90430000D02*
X208645000Y-89100000D01*
X211305000Y-39510000D02*
X208645000Y-39510000D01*
X208645000Y-87830000D02*
X208645000Y-39510000D01*
X211305000Y-87830000D02*
X211305000Y-39510000D01*
X209975000Y-90430000D02*
X208645000Y-90430000D01*
%TO.C,J2*%
X200840362Y-125800000D02*
X200840362Y-125300000D01*
X201734700Y-135495000D02*
X201734700Y-104525000D01*
X201273375Y-125550000D02*
X200840362Y-125800000D01*
X212214700Y-135495000D02*
X201734700Y-135495000D01*
X200840362Y-125300000D02*
X201273375Y-125550000D01*
X201734700Y-104525000D02*
X212214700Y-104525000D01*
%TO.C,U11*%
X126610000Y-33995000D02*
X124960000Y-33995000D01*
X124960000Y-33995000D02*
X124960000Y-54435000D01*
X124960000Y-54435000D02*
X130260000Y-54435000D01*
X130260000Y-54435000D02*
X130260000Y-33995000D01*
X130260000Y-33995000D02*
X128610000Y-33995000D01*
X126610000Y-33995000D02*
G75*
G03*
X128610000Y-33995000I1000000J0D01*
G01*
%TO.C,C17*%
X134220000Y-31055000D02*
X134220000Y-31120000D01*
X134220000Y-28880000D02*
X134220000Y-28945000D01*
X130980000Y-28880000D02*
X130980000Y-28945000D01*
X130980000Y-28880000D02*
X134220000Y-28880000D01*
X130980000Y-31055000D02*
X130980000Y-31120000D01*
X130980000Y-31120000D02*
X134220000Y-31120000D01*
%TO.C,J8*%
X33670000Y-141950000D02*
X36330000Y-141950000D01*
X36330000Y-93630000D02*
X36330000Y-141950000D01*
X35000000Y-91030000D02*
X36330000Y-91030000D01*
X33670000Y-93630000D02*
X33670000Y-141950000D01*
X33670000Y-93630000D02*
X36330000Y-93630000D01*
X36330000Y-91030000D02*
X36330000Y-92360000D01*
%TO.C,C8*%
X141980000Y-89080000D02*
X141980000Y-89145000D01*
X141980000Y-91255000D02*
X141980000Y-91320000D01*
X145220000Y-91255000D02*
X145220000Y-91320000D01*
X141980000Y-89080000D02*
X145220000Y-89080000D01*
X145220000Y-89080000D02*
X145220000Y-89145000D01*
X141980000Y-91320000D02*
X145220000Y-91320000D01*
%TO.C,U16*%
X102880000Y-129150000D02*
X102880000Y-93470000D01*
X89960000Y-93470000D02*
X89960000Y-129150000D01*
X89960000Y-129150000D02*
X102880000Y-129150000D01*
X95420000Y-93470000D02*
X89960000Y-93470000D01*
X102880000Y-93470000D02*
X97420000Y-93470000D01*
X95420000Y-93470000D02*
G75*
G03*
X97420000Y-93470000I1000000J0D01*
G01*
%TO.C,U6*%
X71560000Y-129600000D02*
X84480000Y-129600000D01*
X77020000Y-93920000D02*
X71560000Y-93920000D01*
X84480000Y-93920000D02*
X79020000Y-93920000D01*
X84480000Y-129600000D02*
X84480000Y-93920000D01*
X71560000Y-93920000D02*
X71560000Y-129600000D01*
X77020000Y-93920000D02*
G75*
G03*
X79020000Y-93920000I1000000J0D01*
G01*
%TO.C,U4*%
X75760000Y-31630000D02*
X75760000Y-57150000D01*
X77410000Y-31630000D02*
X75760000Y-31630000D01*
X81060000Y-31630000D02*
X79410000Y-31630000D01*
X81060000Y-57150000D02*
X81060000Y-31630000D01*
X75760000Y-57150000D02*
X81060000Y-57150000D01*
X77410000Y-31630000D02*
G75*
G03*
X79410000Y-31630000I1000000J0D01*
G01*
%TO.C,U17*%
X43535000Y-143065000D02*
X56455000Y-143065000D01*
X43535000Y-92145000D02*
X43535000Y-143065000D01*
X48995000Y-92145000D02*
X43535000Y-92145000D01*
X56455000Y-92145000D02*
X50995000Y-92145000D01*
X56455000Y-143065000D02*
X56455000Y-92145000D01*
X48995000Y-92145000D02*
G75*
G03*
X50995000Y-92145000I1000000J0D01*
G01*
%TO.C,C16*%
X176543000Y-123565900D02*
X175840000Y-123565900D01*
X176835000Y-123245900D02*
X175840000Y-123245900D01*
X173760000Y-123605900D02*
X173101000Y-123605900D01*
X173760000Y-122765900D02*
X172471000Y-122765900D01*
X177280000Y-122365900D02*
X175840000Y-122365900D01*
X177336000Y-122124900D02*
X175840000Y-122124900D01*
X176354000Y-123725900D02*
X173246000Y-123725900D01*
X176525000Y-119090125D02*
X176025000Y-119090125D01*
X176405000Y-123685900D02*
X173195000Y-123685900D01*
X177242000Y-122485900D02*
X175840000Y-122485900D01*
X177301000Y-122284900D02*
X175840000Y-122284900D01*
X176300000Y-123765900D02*
X173300000Y-123765900D01*
X173760000Y-123125900D02*
X172678000Y-123125900D01*
X177379000Y-121724900D02*
X175840000Y-121724900D01*
X176949000Y-123085900D02*
X175840000Y-123085900D01*
X177291000Y-122324900D02*
X175840000Y-122324900D01*
X176243000Y-123805900D02*
X173357000Y-123805900D01*
X173760000Y-123165900D02*
X172705000Y-123165900D01*
X173760000Y-122324900D02*
X172309000Y-122324900D01*
X173760000Y-122645900D02*
X172418000Y-122645900D01*
X176975000Y-123045900D02*
X175840000Y-123045900D01*
X173760000Y-121644900D02*
X172220000Y-121644900D01*
X173760000Y-122565900D02*
X172386000Y-122565900D01*
X173760000Y-121804900D02*
X172224000Y-121804900D01*
X173760000Y-122885900D02*
X172532000Y-122885900D01*
X173760000Y-122845900D02*
X172510000Y-122845900D01*
X173760000Y-123365900D02*
X172863000Y-123365900D01*
X176804000Y-123285900D02*
X175840000Y-123285900D01*
X173760000Y-122044900D02*
X172250000Y-122044900D01*
X176119000Y-123885900D02*
X173481000Y-123885900D01*
X173760000Y-122244900D02*
X172289000Y-122244900D01*
X173760000Y-121844900D02*
X172227000Y-121844900D01*
X176585000Y-123525900D02*
X175840000Y-123525900D01*
X175605000Y-124125900D02*
X173995000Y-124125900D01*
X177378000Y-121764900D02*
X175840000Y-121764900D01*
X177090000Y-122845900D02*
X175840000Y-122845900D01*
X176895000Y-123165900D02*
X175840000Y-123165900D01*
X176626000Y-123485900D02*
X175840000Y-123485900D01*
X177365000Y-121924900D02*
X175840000Y-121924900D01*
X173760000Y-122685900D02*
X172435000Y-122685900D01*
X173760000Y-122525900D02*
X172372000Y-122525900D01*
X177182000Y-122645900D02*
X175840000Y-122645900D01*
X173760000Y-123485900D02*
X172974000Y-123485900D01*
X177110000Y-122805900D02*
X175840000Y-122805900D01*
X173760000Y-121924900D02*
X172235000Y-121924900D01*
X177024000Y-122965900D02*
X175840000Y-122965900D01*
X176664000Y-123445900D02*
X175840000Y-123445900D01*
X175715000Y-124085900D02*
X173885000Y-124085900D01*
X173760000Y-123005900D02*
X172600000Y-123005900D01*
X173760000Y-123245900D02*
X172765000Y-123245900D01*
X177350000Y-122044900D02*
X175840000Y-122044900D01*
X175318000Y-124205900D02*
X174282000Y-124205900D01*
X173760000Y-121764900D02*
X172222000Y-121764900D01*
X173760000Y-123405900D02*
X172899000Y-123405900D01*
X173760000Y-121684900D02*
X172220000Y-121684900D01*
X173760000Y-122084900D02*
X172257000Y-122084900D01*
X177380000Y-121644900D02*
X175840000Y-121644900D01*
X176771000Y-123325900D02*
X175840000Y-123325900D01*
X173760000Y-123645900D02*
X173147000Y-123645900D01*
X177268000Y-122405900D02*
X175840000Y-122405900D01*
X173760000Y-123285900D02*
X172796000Y-123285900D01*
X176183000Y-123845900D02*
X173417000Y-123845900D01*
X177148000Y-122725900D02*
X175840000Y-122725900D01*
X176922000Y-123125900D02*
X175840000Y-123125900D01*
X173760000Y-123205900D02*
X172735000Y-123205900D01*
X175978000Y-123965900D02*
X173622000Y-123965900D01*
X177356000Y-122004900D02*
X175840000Y-122004900D01*
X173760000Y-122925900D02*
X172553000Y-122925900D01*
X176275000Y-118840125D02*
X176275000Y-119340125D01*
X173760000Y-121724900D02*
X172221000Y-121724900D01*
X177228000Y-122525900D02*
X175840000Y-122525900D01*
X177376000Y-121804900D02*
X175840000Y-121804900D01*
X173760000Y-122605900D02*
X172402000Y-122605900D01*
X175477000Y-124165900D02*
X174123000Y-124165900D01*
X173760000Y-123085900D02*
X172651000Y-123085900D01*
X176865000Y-123205900D02*
X175840000Y-123205900D01*
X173760000Y-122164900D02*
X172272000Y-122164900D01*
X177129000Y-122765900D02*
X175840000Y-122765900D01*
X173760000Y-122004900D02*
X172244000Y-122004900D01*
X173760000Y-123045900D02*
X172625000Y-123045900D01*
X177373000Y-121844900D02*
X175840000Y-121844900D01*
X173760000Y-123445900D02*
X172936000Y-123445900D01*
X173760000Y-122445900D02*
X172345000Y-122445900D01*
X173760000Y-122805900D02*
X172490000Y-122805900D01*
X173760000Y-123325900D02*
X172829000Y-123325900D01*
X177047000Y-122925900D02*
X175840000Y-122925900D01*
X175084000Y-124245900D02*
X174516000Y-124245900D01*
X173760000Y-122405900D02*
X172332000Y-122405900D01*
X177068000Y-122885900D02*
X175840000Y-122885900D01*
X175898000Y-124005900D02*
X173702000Y-124005900D01*
X177369000Y-121884900D02*
X175840000Y-121884900D01*
X177361000Y-121964900D02*
X175840000Y-121964900D01*
X175811000Y-124045900D02*
X173789000Y-124045900D01*
X177214000Y-122565900D02*
X175840000Y-122565900D01*
X177343000Y-122084900D02*
X175840000Y-122084900D01*
X176499000Y-123605900D02*
X175840000Y-123605900D01*
X177320000Y-122204900D02*
X175840000Y-122204900D01*
X173760000Y-121884900D02*
X172231000Y-121884900D01*
X177165000Y-122685900D02*
X175840000Y-122685900D01*
X173760000Y-122965900D02*
X172576000Y-122965900D01*
X176701000Y-123405900D02*
X175840000Y-123405900D01*
X176051000Y-123925900D02*
X173549000Y-123925900D01*
X173760000Y-122204900D02*
X172280000Y-122204900D01*
X176737000Y-123365900D02*
X175840000Y-123365900D01*
X177000000Y-123005900D02*
X175840000Y-123005900D01*
X177380000Y-121684900D02*
X175840000Y-121684900D01*
X173760000Y-121964900D02*
X172239000Y-121964900D01*
X173760000Y-122365900D02*
X172320000Y-122365900D01*
X173760000Y-122485900D02*
X172358000Y-122485900D01*
X173760000Y-123565900D02*
X173057000Y-123565900D01*
X177311000Y-122244900D02*
X175840000Y-122244900D01*
X173760000Y-122284900D02*
X172299000Y-122284900D01*
X173760000Y-122725900D02*
X172452000Y-122725900D01*
X177255000Y-122445900D02*
X175840000Y-122445900D01*
X176453000Y-123645900D02*
X175840000Y-123645900D01*
X177328000Y-122164900D02*
X175840000Y-122164900D01*
X173760000Y-123525900D02*
X173015000Y-123525900D01*
X177198000Y-122605900D02*
X175840000Y-122605900D01*
X173760000Y-122124900D02*
X172264000Y-122124900D01*
X177420000Y-121644900D02*
G75*
G03*
X177420000Y-121644900I-2620000J0D01*
G01*
%TO.C,C3*%
X81980000Y-62320000D02*
X85220000Y-62320000D01*
X85220000Y-62255000D02*
X85220000Y-62320000D01*
X85220000Y-60080000D02*
X85220000Y-60145000D01*
X81980000Y-60080000D02*
X85220000Y-60080000D01*
X81980000Y-60080000D02*
X81980000Y-60145000D01*
X81980000Y-62255000D02*
X81980000Y-62320000D01*
%TO.C,R1*%
X167080000Y-136480000D02*
X170920000Y-136480000D01*
X167080000Y-138320000D02*
X170920000Y-138320000D01*
%TO.C,C7*%
X110220000Y-90080000D02*
X110220000Y-90145000D01*
X106980000Y-90080000D02*
X106980000Y-90145000D01*
X106980000Y-90080000D02*
X110220000Y-90080000D01*
X106980000Y-92320000D02*
X110220000Y-92320000D01*
X106980000Y-92255000D02*
X106980000Y-92320000D01*
X110220000Y-92255000D02*
X110220000Y-92320000D01*
%TO.C,Y1*%
X172360000Y-41525000D02*
X178760000Y-41525000D01*
X172360000Y-36475000D02*
X178760000Y-36475000D01*
X172360000Y-36475000D02*
G75*
G03*
X172360000Y-41525000I0J-2525000D01*
G01*
X178760000Y-41525000D02*
G75*
G03*
X178760000Y-36475000I0J2525000D01*
G01*
%TO.C,C11*%
X172379000Y-33080000D02*
X171121000Y-33080000D01*
X172379000Y-34920000D02*
X171121000Y-34920000D01*
%TO.C,J7*%
X67210000Y-138695000D02*
X67210000Y-141355000D01*
X90130000Y-138695000D02*
X67210000Y-138695000D01*
X90130000Y-141355000D02*
X67210000Y-141355000D01*
X92730000Y-141355000D02*
X91400000Y-141355000D01*
X92730000Y-140025000D02*
X92730000Y-141355000D01*
X90130000Y-138695000D02*
X90130000Y-141355000D01*
%TO.C,U2*%
X56455000Y-34545000D02*
X50995000Y-34545000D01*
X48995000Y-34545000D02*
X43535000Y-34545000D01*
X56455000Y-85465000D02*
X56455000Y-34545000D01*
X43535000Y-85465000D02*
X56455000Y-85465000D01*
X43535000Y-34545000D02*
X43535000Y-85465000D01*
X48995000Y-34545000D02*
G75*
G03*
X50995000Y-34545000I1000000J0D01*
G01*
%TO.C,U13*%
X101040000Y-81745000D02*
X101040000Y-63845000D01*
X97390000Y-63845000D02*
X95740000Y-63845000D01*
X95740000Y-63845000D02*
X95740000Y-81745000D01*
X95740000Y-81745000D02*
X101040000Y-81745000D01*
X101040000Y-63845000D02*
X99390000Y-63845000D01*
X97390000Y-63845000D02*
G75*
G03*
X99390000Y-63845000I1000000J0D01*
G01*
%TO.C,U15*%
X124740000Y-64730000D02*
X124740000Y-82630000D01*
X124740000Y-82630000D02*
X130040000Y-82630000D01*
X130040000Y-82630000D02*
X130040000Y-64730000D01*
X126390000Y-64730000D02*
X124740000Y-64730000D01*
X130040000Y-64730000D02*
X128390000Y-64730000D01*
X126390000Y-64730000D02*
G75*
G03*
X128390000Y-64730000I1000000J0D01*
G01*
%TO.C,U10*%
X176270000Y-136050000D02*
X179870000Y-136050000D01*
X178070000Y-131599999D02*
G75*
G03*
X176231522Y-136038478I0J-2600001D01*
G01*
X179908478Y-136038478D02*
G75*
G03*
X178070000Y-131600000I-1838478J1838478D01*
G01*
%TO.C,D1*%
X162435000Y-142655000D02*
X162435000Y-145745000D01*
X162435000Y-145744830D02*
G75*
G03*
X167985000Y-144199538I2560000J1544830D01*
G01*
X167985000Y-144200462D02*
G75*
G03*
X162435000Y-142655170I-2990000J462D01*
G01*
X167495000Y-144200000D02*
G75*
G03*
X167495000Y-144200000I-2500000J0D01*
G01*
%TO.C,U14*%
X112190000Y-64245000D02*
X110540000Y-64245000D01*
X115840000Y-82145000D02*
X115840000Y-64245000D01*
X110540000Y-82145000D02*
X115840000Y-82145000D01*
X110540000Y-64245000D02*
X110540000Y-82145000D01*
X115840000Y-64245000D02*
X114190000Y-64245000D01*
X112190000Y-64245000D02*
G75*
G03*
X114190000Y-64245000I1000000J0D01*
G01*
%TO.C,U5*%
X95960000Y-33995000D02*
X95960000Y-54435000D01*
X101260000Y-33995000D02*
X99610000Y-33995000D01*
X95960000Y-54435000D02*
X101260000Y-54435000D01*
X101260000Y-54435000D02*
X101260000Y-33995000D01*
X97610000Y-33995000D02*
X95960000Y-33995000D01*
X97610000Y-33995000D02*
G75*
G03*
X99610000Y-33995000I1000000J0D01*
G01*
%TD*%
M02*
