M48
; DRILL file {KiCad 6.0.2+dfsg-1} date Wed 31 Aug 2022 10:20:26 PM EDT
; FORMAT={-:-/ absolute / inch / decimal}
; #@! TF.CreationDate,2022-08-31T22:20:26-04:00
; #@! TF.GenerationSoftware,Kicad,Pcbnew,6.0.2+dfsg-1
; #@! TF.FileFunction,Plated,1,2,PTH
FMAT,2
INCH
; #@! TA.AperFunction,Plated,PTH,ViaDrill
T1C0.0157
; #@! TA.AperFunction,Plated,PTH,ComponentDrill
T2C0.0197
; #@! TA.AperFunction,Plated,PTH,ComponentDrill
T3C0.0276
; #@! TA.AperFunction,Plated,PTH,ComponentDrill
T4C0.0295
; #@! TA.AperFunction,Plated,PTH,ComponentDrill
T5C0.0315
; #@! TA.AperFunction,Plated,PTH,ComponentDrill
T6C0.0354
; #@! TA.AperFunction,Plated,PTH,ComponentDrill
T7C0.0394
; #@! TA.AperFunction,Plated,PTH,ComponentDrill
T8C0.0433
; #@! TA.AperFunction,Plated,PTH,ComponentDrill
T9C0.1260
%
G90
G05
T1
X2.0352Y-2.5977
X2.0766Y-4.575
X2.1221Y-2.4436
X2.1221Y-3.2696
X2.137Y-4.7542
X2.1548Y-4.6811
X2.1646Y-2.9058
X2.1726Y-3.3064
X2.26Y-3.52
X2.28Y-3.39
X2.3147Y-3.1693
X2.3614Y-2.4121
X2.3714Y-2.773
X2.3714Y-2.9058
X2.4921Y-1.4724
X2.4921Y-1.6614
X2.5032Y-4.138
X2.6179Y-2.8589
X2.7795Y-2.9291
X2.7795Y-3.0551
X2.815Y-3.2283
X2.815Y-3.3543
X2.8448Y-2.3259
X2.87Y-2.79
X2.9193Y-4.749
X2.9774Y-3.5384
X2.9961Y-3.6969
X3.0Y-2.79
X3.08Y-2.6126
X3.1309Y-4.7648
X3.1594Y-3.8543
X3.1614Y-3.7244
X3.4228Y-2.1406
X3.4268Y-1.9433
X3.487Y-3.3699
X3.4882Y-5.2854
X3.5833Y-3.3623
X3.6142Y-3.4921
X3.6189Y-3.9999
X3.6301Y-4.5476
X3.6909Y-5.2923
X3.7254Y-2.4469
X3.7598Y-3.4921
X3.7727Y-1.5505
X3.83Y-1.72
X3.8819Y-3.7126
X3.8819Y-3.8346
X3.95Y-2.14
X3.9528Y-3.3504
X4.0249Y-4.6055
X4.0438Y-2.2855
X4.13Y-1.41
X4.14Y-2.14
X4.18Y-4.58
X4.2323Y-3.3504
X4.31Y-2.14
X4.47Y-1.41
X4.5778Y-5.6713
X4.5797Y-5.3976
X4.62Y-2.21
X4.64Y-3.72
X4.64Y-3.84
X4.66Y-4.52
X4.7126Y-4.9449
X4.7274Y-2.5856
X4.8Y-1.44
X4.8Y-2.24
X4.8415Y-2.4094
X4.9331Y-5.0433
X4.95Y-4.57
X4.9621Y-2.0111
X4.97Y-1.44
X4.97Y-2.3
X5.1Y-1.41
X5.12Y-2.3
X5.1224Y-4.3028
X5.1233Y-5.1104
X5.13Y-3.77
X5.2273Y-4.3423
X5.29Y-3.77
X5.3424Y-2.4355
X5.46Y-3.47
X5.46Y-4.58
X5.47Y-4.4
X5.5929Y-3.6703
X5.6354Y-3.1259
X5.65Y-3.6
X5.67Y-3.69
X5.7609Y-3.0685
X5.7793Y-2.2872
X5.8351Y-3.8294
X5.9341Y-2.3268
X5.9409Y-2.5984
X5.9429Y-2.8071
X6.4033Y-2.8784
X6.4321Y-1.4596
X6.435Y-1.8307
X6.5699Y-1.374
X6.5719Y-1.2254
X6.7153Y-3.4088
X6.7568Y-3.635
X6.8166Y-2.6297
X6.8386Y-5.5354
X7.0492Y-3.5243
X7.0798Y-3.3359
X7.22Y-2.01
X7.23Y-2.8
X7.3Y-2.6
X7.41Y-2.62
X7.638Y-3.0843
T3
X6.5535Y-5.4094
X6.7535Y-5.4094
X6.8291Y-1.811
X7.0291Y-1.811
T4
X6.9606Y-5.2835
X7.0106Y-5.2335
X7.0606Y-5.2835
T5
X1.6673Y-3.4646
X1.6683Y-1.4124
X1.6683Y-1.5124
X1.6683Y-1.6124
X1.6683Y-1.7124
X1.6683Y-1.8124
X1.6683Y-1.9124
X1.6683Y-2.0124
X1.6683Y-2.1124
X1.6683Y-2.2124
X1.6683Y-2.3124
X1.6683Y-2.4124
X1.6683Y-2.5124
X1.6683Y-2.6124
X1.6683Y-2.7124
X1.6683Y-2.8124
X1.6683Y-2.9124
X1.6683Y-3.0124
X1.6683Y-3.1124
X1.6683Y-3.2124
X1.6683Y-3.3124
X1.6683Y-3.6801
X1.6683Y-3.7801
X1.6683Y-3.8801
X1.6683Y-3.9801
X1.6683Y-4.0801
X1.6683Y-4.1801
X1.6683Y-4.2801
X1.6683Y-4.3801
X1.6683Y-4.4801
X1.6683Y-4.5801
X1.6683Y-4.6801
X1.6683Y-4.7801
X1.6683Y-4.8801
X1.6683Y-4.9801
X1.6683Y-5.0801
X1.6683Y-5.1801
X1.6683Y-5.2801
X1.6683Y-5.3801
X1.6683Y-5.4801
X1.6683Y-5.5801
X1.6752Y-5.7402
X1.7657Y-3.4646
X1.7736Y-5.7402
X2.2683Y-1.4124
X2.2683Y-1.5124
X2.2683Y-1.6124
X2.2683Y-1.7124
X2.2683Y-1.8124
X2.2683Y-1.9124
X2.2683Y-2.0124
X2.2683Y-2.1124
X2.2683Y-2.2124
X2.2683Y-2.3124
X2.2683Y-2.4124
X2.2683Y-2.5124
X2.2683Y-2.6124
X2.2683Y-2.7124
X2.2683Y-2.8124
X2.2683Y-2.9124
X2.2683Y-3.0124
X2.2683Y-3.1124
X2.2683Y-3.2124
X2.2683Y-3.3124
X2.2683Y-3.6801
X2.2683Y-3.7801
X2.2683Y-3.8801
X2.2683Y-3.9801
X2.2683Y-4.0801
X2.2683Y-4.1801
X2.2683Y-4.2801
X2.2683Y-4.3801
X2.2683Y-4.4801
X2.2683Y-4.5801
X2.2683Y-4.6801
X2.2683Y-4.7801
X2.2683Y-4.8801
X2.2683Y-4.9801
X2.2683Y-5.0801
X2.2683Y-5.1801
X2.2683Y-5.2801
X2.2683Y-5.3801
X2.2683Y-5.4801
X2.2683Y-5.5801
X2.7697Y-3.5906
X2.7717Y-3.75
X2.7717Y-3.85
X2.7717Y-3.95
X2.7717Y-4.05
X2.7717Y-4.15
X2.7717Y-4.25
X2.7717Y-4.35
X2.7717Y-4.45
X2.7717Y-4.55
X2.7717Y-4.65
X2.7717Y-4.75
X2.7717Y-4.85
X2.7717Y-4.95
X2.7717Y-5.05
X2.8681Y-3.5906
X2.9362Y-2.5344
X2.9362Y-2.6344
X2.9362Y-2.7344
X2.9362Y-2.8344
X2.9362Y-2.9344
X2.9362Y-3.0344
X2.9362Y-3.1344
X2.9362Y-3.2344
X2.9362Y-3.3344
X2.9362Y-3.4344
X2.937Y-1.2976
X2.937Y-1.3976
X2.937Y-1.4976
X2.937Y-1.5976
X2.937Y-1.6976
X2.937Y-1.7976
X2.937Y-1.8976
X2.937Y-1.9976
X2.937Y-2.0976
X2.937Y-2.1976
X3.2362Y-2.5344
X3.2362Y-2.6344
X3.2362Y-2.7344
X3.2362Y-2.8344
X3.2362Y-2.9344
X3.2362Y-3.0344
X3.2362Y-3.1344
X3.2362Y-3.2344
X3.2362Y-3.3344
X3.2362Y-3.4344
X3.237Y-1.2976
X3.237Y-1.3976
X3.237Y-1.4976
X3.237Y-1.5976
X3.237Y-1.6976
X3.237Y-1.7976
X3.237Y-1.8976
X3.237Y-1.9976
X3.237Y-2.0976
X3.237Y-2.1976
X3.2421Y-2.4094
X3.252Y-1.1654
X3.3406Y-2.4094
X3.3504Y-1.1654
X3.3717Y-3.75
X3.3717Y-3.85
X3.3717Y-3.95
X3.3717Y-4.05
X3.3717Y-4.15
X3.3717Y-4.25
X3.3717Y-4.35
X3.3717Y-4.45
X3.3717Y-4.55
X3.3717Y-4.65
X3.3717Y-4.75
X3.3717Y-4.85
X3.3717Y-4.95
X3.3717Y-5.05
X3.4961Y-3.7323
X3.4961Y-3.8323
X3.4961Y-3.9323
X3.4961Y-4.0323
X3.4961Y-4.1323
X3.4961Y-4.2323
X3.4961Y-4.3323
X3.4961Y-4.4323
X3.4961Y-4.5323
X3.4961Y-4.6323
X3.4961Y-4.7323
X3.4961Y-4.8323
X3.4961Y-4.9323
X3.4961Y-5.0323
X3.5098Y-3.5906
X3.6083Y-3.5906
X3.7236Y-2.5659
X3.7236Y-2.6659
X3.7236Y-2.7659
X3.7236Y-2.8659
X3.7236Y-2.9659
X3.7236Y-3.0659
X3.7236Y-3.1659
X3.7323Y-1.3907
X3.7323Y-1.4907
X3.7323Y-1.5907
X3.7323Y-1.6907
X3.7323Y-1.7907
X3.7323Y-1.8907
X3.7323Y-1.9907
X3.7323Y-2.0907
X4.0236Y-2.5659
X4.0236Y-2.6659
X4.0236Y-2.7659
X4.0236Y-2.8659
X4.0236Y-2.9659
X4.0236Y-3.0659
X4.0236Y-3.1659
X4.0287Y-2.4252
X4.0323Y-1.3907
X4.0323Y-1.4907
X4.0323Y-1.5907
X4.0323Y-1.6907
X4.0323Y-1.7907
X4.0323Y-1.8907
X4.0323Y-1.9907
X4.0323Y-2.0907
X4.0453Y-1.1811
X4.0961Y-3.7323
X4.0961Y-3.8323
X4.0961Y-3.9323
X4.0961Y-4.0323
X4.0961Y-4.1323
X4.0961Y-4.2323
X4.0961Y-4.3323
X4.0961Y-4.4323
X4.0961Y-4.5323
X4.0961Y-4.6323
X4.0961Y-4.7323
X4.0961Y-4.8323
X4.0961Y-4.9323
X4.0961Y-5.0323
X4.1272Y-2.4252
X4.1437Y-1.1811
X4.2205Y-3.7323
X4.2205Y-3.8323
X4.2205Y-3.9323
X4.2205Y-4.0323
X4.2205Y-4.1323
X4.2205Y-4.2323
X4.2205Y-4.3323
X4.2205Y-4.4323
X4.2205Y-4.5323
X4.2205Y-4.6323
X4.2205Y-4.7323
X4.2205Y-4.8323
X4.2205Y-4.9323
X4.2205Y-5.0323
X4.2264Y-3.5906
X4.2835Y-1.4006
X4.2835Y-1.5006
X4.2835Y-1.6006
X4.2835Y-1.7006
X4.2835Y-1.8006
X4.2835Y-1.9006
X4.2835Y-2.0006
X4.3063Y-2.5817
X4.3063Y-2.6817
X4.3063Y-2.7817
X4.3063Y-2.8817
X4.3063Y-2.9817
X4.3063Y-3.0817
X4.3063Y-3.1817
X4.3248Y-3.5906
X4.5835Y-1.4006
X4.5835Y-1.5006
X4.5835Y-1.6006
X4.5835Y-1.7006
X4.5835Y-1.8006
X4.5835Y-1.9006
X4.5835Y-2.0006
X4.5886Y-1.1811
X4.6063Y-2.5817
X4.6063Y-2.6817
X4.6063Y-2.7817
X4.6063Y-2.8817
X4.6063Y-2.9817
X4.6063Y-3.0817
X4.6063Y-3.1817
X4.6122Y-2.4252
X4.687Y-1.1811
X4.7106Y-2.4252
X4.8205Y-3.7323
X4.8205Y-3.8323
X4.8205Y-3.9323
X4.8205Y-4.0323
X4.8205Y-4.1323
X4.8205Y-4.2323
X4.8205Y-4.3323
X4.8205Y-4.4323
X4.8205Y-4.5323
X4.8205Y-4.6323
X4.8205Y-4.7323
X4.8205Y-4.8323
X4.8205Y-4.9323
X4.8205Y-5.0323
X4.8654Y-2.6008
X4.8654Y-2.7008
X4.8654Y-2.8008
X4.8654Y-2.9008
X4.8654Y-3.0008
X4.8654Y-3.1008
X4.8654Y-3.2008
X4.874Y-1.3907
X4.874Y-1.4907
X4.874Y-1.5907
X4.874Y-1.6907
X4.874Y-1.7907
X4.874Y-1.8907
X4.874Y-1.9907
X4.874Y-2.0907
X5.0079Y-3.7323
X5.0079Y-3.8323
X5.0079Y-3.9323
X5.0079Y-4.0323
X5.0079Y-4.1323
X5.0079Y-4.2323
X5.0079Y-4.3323
X5.0079Y-4.4323
X5.0079Y-4.5323
X5.0079Y-4.6323
X5.0079Y-4.7323
X5.0079Y-4.8323
X5.0079Y-4.9323
X5.0079Y-5.0323
X5.1654Y-2.6008
X5.1654Y-2.7008
X5.1654Y-2.8008
X5.1654Y-2.9008
X5.1654Y-3.0008
X5.1654Y-3.1008
X5.1654Y-3.2008
X5.1713Y-1.1811
X5.174Y-1.3907
X5.174Y-1.4907
X5.174Y-1.5907
X5.174Y-1.6907
X5.174Y-1.7907
X5.174Y-1.8907
X5.174Y-1.9907
X5.174Y-2.0907
X5.1791Y-2.4331
X5.2697Y-1.1811
X5.2776Y-2.4331
X5.6043Y-3.5512
X5.6079Y-3.7323
X5.6079Y-3.8323
X5.6079Y-3.9323
X5.6079Y-4.0323
X5.6079Y-4.1323
X5.6079Y-4.2323
X5.6079Y-4.3323
X5.6079Y-4.4323
X5.6079Y-4.5323
X5.6079Y-4.6323
X5.6079Y-4.7323
X5.6079Y-4.8323
X5.6079Y-4.9323
X5.6079Y-5.0323
X5.7028Y-3.5512
X6.5354Y-2.0126
X6.5354Y-2.1126
X6.5354Y-2.2126
X6.5354Y-2.3126
X6.5354Y-2.4126
X6.5354Y-2.5126
X6.5354Y-2.6126
X6.5354Y-2.7126
X6.7126Y-1.3386
X6.7323Y-5.1575
X6.811Y-1.3386
X6.811Y-5.1575
X6.8157Y-1.5354
X6.8819Y-4.7498
X6.8819Y-4.8285
X6.8835Y-2.2591
X6.8835Y-2.3591
X6.8835Y-2.4591
X6.8835Y-2.5591
X6.8835Y-2.6591
X6.8835Y-2.7591
X6.8835Y-2.8591
X6.9055Y-4.3701
X6.9055Y-4.4488
X6.9835Y-2.1591
X6.9835Y-2.2591
X6.9835Y-2.3591
X6.9835Y-2.4591
X6.9835Y-2.5591
X6.9835Y-2.6591
X6.9835Y-2.7591
X6.9835Y-2.8591
X6.9835Y-2.9591
X7.0079Y-1.3386
X7.0079Y-1.5354
X7.0835Y-2.1591
X7.0835Y-2.2591
X7.0835Y-2.8591
X7.0835Y-2.9591
X7.1063Y-1.3386
X7.1732Y-4.3199
X7.1732Y-4.4199
X7.1732Y-4.5199
X7.1732Y-4.6199
X7.1732Y-4.7199
X7.1732Y-4.8199
X7.1732Y-4.9199
X7.1732Y-5.0199
X7.1835Y-2.1591
X7.1835Y-2.2591
X7.1835Y-2.8591
X7.1835Y-2.9591
X7.2028Y-1.8898
X7.2835Y-2.1591
X7.2835Y-2.2591
X7.2835Y-2.8591
X7.2835Y-2.9591
X7.3012Y-1.8898
X7.3835Y-2.1591
X7.3835Y-2.2591
X7.3835Y-2.8591
X7.3835Y-2.9591
X7.4732Y-4.3199
X7.4732Y-4.4199
X7.4732Y-4.5199
X7.4732Y-4.6199
X7.4732Y-4.7199
X7.4732Y-4.8199
X7.4732Y-4.9199
X7.4732Y-5.0199
X7.4835Y-2.1591
X7.4835Y-2.2591
X7.4835Y-2.8591
X7.4835Y-2.9591
X7.4862Y-4.1811
X7.5835Y-2.1591
X7.5835Y-2.2591
X7.5835Y-2.3591
X7.5835Y-2.4591
X7.5835Y-2.5591
X7.5835Y-2.6591
X7.5835Y-2.7591
X7.5835Y-2.8591
X7.5835Y-2.9591
X7.5846Y-4.1811
X7.6835Y-2.2591
X7.6835Y-2.3591
X7.6835Y-2.4591
X7.6835Y-2.5591
X7.6835Y-2.6591
X7.6835Y-2.7591
X7.6835Y-2.8591
X7.7008Y-4.7419
X7.7008Y-4.8207
X7.7165Y-4.4252
X7.7165Y-4.5039
T6
X6.4459Y-5.6772
X6.5459Y-5.6772
T7
X1.378Y-3.6362
X1.378Y-3.7362
X1.378Y-3.8362
X1.378Y-3.9362
X1.378Y-4.0362
X1.378Y-4.1362
X1.378Y-4.2362
X1.378Y-4.3362
X1.378Y-4.4362
X1.378Y-4.5362
X1.378Y-4.6362
X1.378Y-4.7362
X1.378Y-4.8362
X1.378Y-4.9362
X1.378Y-5.0362
X1.378Y-5.1362
X1.378Y-5.2362
X1.378Y-5.3362
X1.378Y-5.4362
X1.378Y-5.5362
X1.3789Y-1.4134
X1.3789Y-1.5134
X1.3789Y-1.6134
X1.3789Y-1.7134
X1.3789Y-1.8134
X1.3789Y-1.9134
X1.3789Y-2.0134
X1.3789Y-2.1134
X1.3789Y-2.2134
X1.3789Y-2.3134
X1.3789Y-2.4134
X1.3789Y-2.5134
X1.3789Y-2.6134
X1.3789Y-2.7134
X1.3789Y-2.8134
X1.3789Y-2.9134
X1.3789Y-3.0134
X1.3789Y-3.1134
X1.3789Y-3.2134
X1.3789Y-3.3134
X2.6984Y-5.5128
X2.7984Y-5.5128
X2.8984Y-5.5128
X2.9984Y-5.5128
X3.0984Y-5.5128
X3.1984Y-5.5128
X3.2984Y-5.5128
X3.3984Y-5.5128
X3.4984Y-5.5128
X3.5984Y-5.5128
X3.9244Y-5.5118
X4.0244Y-5.5118
X4.1244Y-5.5118
X4.2244Y-5.5118
X4.3244Y-5.5118
X4.4244Y-5.5118
X4.5244Y-5.5118
X4.6244Y-5.5118
X4.7244Y-5.5118
X4.8244Y-5.5118
X4.9244Y-5.5118
X5.0244Y-5.5118
X5.1244Y-5.5118
X5.2244Y-5.5118
X5.3244Y-5.5118
X5.4244Y-5.5118
X5.5244Y-5.5118
X5.6244Y-5.5118
X5.7244Y-5.5118
X5.8244Y-5.5118
X7.5512Y-1.7323
X7.6512Y-1.7323
X7.7512Y-1.7323
X8.051Y-4.5067
X8.051Y-4.6157
X8.051Y-4.7248
X8.051Y-4.8339
X8.051Y-4.9429
X8.1628Y-4.5612
X8.1628Y-4.6703
X8.1628Y-4.7793
X8.1628Y-4.8884
X8.2667Y-1.6079
X8.2667Y-1.7079
X8.2667Y-1.8079
X8.2667Y-1.9079
X8.2667Y-2.0079
X8.2667Y-2.1079
X8.2667Y-2.2079
X8.2667Y-2.3079
X8.2667Y-2.4079
X8.2667Y-2.5079
X8.2667Y-2.6079
X8.2667Y-2.7079
X8.2667Y-2.8079
X8.2667Y-2.9079
X8.2667Y-3.0079
X8.2667Y-3.1079
X8.2667Y-3.2079
X8.2667Y-3.3079
X8.2667Y-3.4079
X8.2667Y-3.5079
T8
X7.25Y-5.5886
X7.25Y-5.7657
X7.5059Y-5.5886
X7.5059Y-5.7657
T9
X8.0628Y-4.2327
X8.0628Y-5.2169
T2
G00X6.7598Y-5.6949
M15
G01X6.7598Y-5.7224
M16
G05
G00X7.0197Y-5.6949
M15
G01X7.0197Y-5.7224
M16
G05
T0
M30
