%TF.GenerationSoftware,KiCad,Pcbnew,6.0.2+dfsg-1*%
%TF.CreationDate,2022-08-31T22:20:20-04:00*%
%TF.ProjectId,68hc11,36386863-3131-42e6-9b69-6361645f7063,1.03*%
%TF.SameCoordinates,Original*%
%TF.FileFunction,Soldermask,Bot*%
%TF.FilePolarity,Negative*%
%FSLAX46Y46*%
G04 Gerber Fmt 4.6, Leading zero omitted, Abs format (unit mm)*
G04 Created by KiCad (PCBNEW 6.0.2+dfsg-1) date 2022-08-31 22:20:20*
%MOMM*%
%LPD*%
G01*
G04 APERTURE LIST*
%ADD10C,2.500000*%
%ADD11C,1.600000*%
%ADD12R,1.600000X1.600000*%
%ADD13O,1.600000X1.600000*%
%ADD14R,1.700000X1.700000*%
%ADD15O,1.700000X1.700000*%
%ADD16C,1.400000*%
%ADD17O,1.400000X1.400000*%
%ADD18O,0.900000X1.600000*%
%ADD19R,1.422400X1.422400*%
%ADD20C,1.422400*%
%ADD21C,2.000000*%
%ADD22C,4.000000*%
%ADD23C,1.500000*%
%ADD24R,1.300000X1.300000*%
%ADD25C,1.300000*%
%ADD26R,1.800000X1.800000*%
%ADD27C,1.800000*%
G04 APERTURE END LIST*
D10*
%TO.C,H4*%
X34798000Y-146304000D03*
%TD*%
%TO.C,H3*%
X214376000Y-146558000D03*
%TD*%
%TO.C,H2*%
X214630000Y-28956000D03*
%TD*%
%TO.C,H1*%
X35052000Y-28956000D03*
%TD*%
D11*
%TO.C,C23*%
X42550000Y-145800000D03*
X45050000Y-145800000D03*
%TD*%
D12*
%TO.C,U8*%
X127200000Y-94800000D03*
D13*
X127200000Y-97340000D03*
X127200000Y-99880000D03*
X127200000Y-102420000D03*
X127200000Y-104960000D03*
X127200000Y-107500000D03*
X127200000Y-110040000D03*
X127200000Y-112580000D03*
X127200000Y-115120000D03*
X127200000Y-117660000D03*
X127200000Y-120200000D03*
X127200000Y-122740000D03*
X127200000Y-125280000D03*
X127200000Y-127820000D03*
X142440000Y-127820000D03*
X142440000Y-125280000D03*
X142440000Y-122740000D03*
X142440000Y-120200000D03*
X142440000Y-117660000D03*
X142440000Y-115120000D03*
X142440000Y-112580000D03*
X142440000Y-110040000D03*
X142440000Y-107500000D03*
X142440000Y-104960000D03*
X142440000Y-102420000D03*
X142440000Y-99880000D03*
X142440000Y-97340000D03*
X142440000Y-94800000D03*
%TD*%
D11*
%TO.C,C12*%
X178000000Y-34000000D03*
X180500000Y-34000000D03*
%TD*%
D14*
%TO.C,JP4*%
X191800000Y-44000000D03*
D15*
X194340000Y-44000000D03*
X196880000Y-44000000D03*
%TD*%
D11*
%TO.C,C5*%
X182950000Y-48000000D03*
X185450000Y-48000000D03*
%TD*%
D12*
%TO.C,U7*%
X107200000Y-94800000D03*
D13*
X107200000Y-97340000D03*
X107200000Y-99880000D03*
X107200000Y-102420000D03*
X107200000Y-104960000D03*
X107200000Y-107500000D03*
X107200000Y-110040000D03*
X107200000Y-112580000D03*
X107200000Y-115120000D03*
X107200000Y-117660000D03*
X107200000Y-120200000D03*
X107200000Y-122740000D03*
X107200000Y-125280000D03*
X107200000Y-127820000D03*
X122440000Y-127820000D03*
X122440000Y-125280000D03*
X122440000Y-122740000D03*
X122440000Y-120200000D03*
X122440000Y-117660000D03*
X122440000Y-115120000D03*
X122440000Y-112580000D03*
X122440000Y-110040000D03*
X122440000Y-107500000D03*
X122440000Y-104960000D03*
X122440000Y-102420000D03*
X122440000Y-99880000D03*
X122440000Y-97340000D03*
X122440000Y-94800000D03*
%TD*%
D14*
%TO.C,J11*%
X99680000Y-140000000D03*
D15*
X102220000Y-140000000D03*
X104760000Y-140000000D03*
X107300000Y-140000000D03*
X109840000Y-140000000D03*
X112380000Y-140000000D03*
X114920000Y-140000000D03*
X117460000Y-140000000D03*
X120000000Y-140000000D03*
X122540000Y-140000000D03*
X125080000Y-140000000D03*
X127620000Y-140000000D03*
X130160000Y-140000000D03*
X132700000Y-140000000D03*
X135240000Y-140000000D03*
X137780000Y-140000000D03*
X140320000Y-140000000D03*
X142860000Y-140000000D03*
X145400000Y-140000000D03*
X147940000Y-140000000D03*
%TD*%
D11*
%TO.C,C4*%
X82600000Y-29600000D03*
X85100000Y-29600000D03*
%TD*%
%TO.C,C19*%
X117150000Y-61600000D03*
X119650000Y-61600000D03*
%TD*%
%TO.C,C10*%
X102750000Y-30000000D03*
X105250000Y-30000000D03*
%TD*%
%TO.C,C9*%
X190150000Y-106200000D03*
X192650000Y-106200000D03*
%TD*%
D12*
%TO.C,U12*%
X108800000Y-35575000D03*
D13*
X108800000Y-38115000D03*
X108800000Y-40655000D03*
X108800000Y-43195000D03*
X108800000Y-45735000D03*
X108800000Y-48275000D03*
X108800000Y-50815000D03*
X116420000Y-50815000D03*
X116420000Y-48275000D03*
X116420000Y-45735000D03*
X116420000Y-43195000D03*
X116420000Y-40655000D03*
X116420000Y-38115000D03*
X116420000Y-35575000D03*
%TD*%
D16*
%TO.C,R2*%
X178540000Y-46000000D03*
D17*
X173460000Y-46000000D03*
%TD*%
D11*
%TO.C,C21*%
X116550000Y-30000000D03*
X119050000Y-30000000D03*
%TD*%
%TO.C,C18*%
X102330000Y-61600000D03*
X104830000Y-61600000D03*
%TD*%
%TO.C,C6*%
X70350000Y-91200000D03*
X72850000Y-91200000D03*
%TD*%
D12*
%TO.C,U9*%
X182200000Y-109725000D03*
D13*
X182200000Y-112265000D03*
X182200000Y-114805000D03*
X182200000Y-117345000D03*
X182200000Y-119885000D03*
X182200000Y-122425000D03*
X182200000Y-124965000D03*
X182200000Y-127505000D03*
X189820000Y-127505000D03*
X189820000Y-124965000D03*
X189820000Y-122425000D03*
X189820000Y-119885000D03*
X189820000Y-117345000D03*
X189820000Y-114805000D03*
X189820000Y-112265000D03*
X189820000Y-109725000D03*
%TD*%
D12*
%TO.C,C13*%
X196000000Y-112400000D03*
D11*
X196000000Y-114400000D03*
%TD*%
D12*
%TO.C,RN1*%
X166000000Y-68900000D03*
D13*
X166000000Y-66360000D03*
X166000000Y-63820000D03*
X166000000Y-61280000D03*
X166000000Y-58740000D03*
X166000000Y-56200000D03*
X166000000Y-53660000D03*
X166000000Y-51120000D03*
%TD*%
D12*
%TO.C,C1*%
X171000000Y-131000000D03*
D11*
X173000000Y-131000000D03*
%TD*%
D18*
%TO.C,J1*%
X171700000Y-145000000D03*
X178300000Y-145000000D03*
%TD*%
D12*
%TO.C,C15*%
X195600000Y-120444900D03*
D11*
X195600000Y-122444900D03*
%TD*%
D19*
%TO.C,U1*%
X185000000Y-54840000D03*
D20*
X185000000Y-57380000D03*
X182460000Y-54840000D03*
X182460000Y-57380000D03*
X179920000Y-54840000D03*
X179920000Y-57380000D03*
X177380000Y-54840000D03*
X174840000Y-57380000D03*
X177380000Y-57380000D03*
X174840000Y-59920000D03*
X177380000Y-59920000D03*
X174840000Y-62460000D03*
X177380000Y-62460000D03*
X174840000Y-65000000D03*
X177380000Y-65000000D03*
X174840000Y-67540000D03*
X177380000Y-67540000D03*
X174840000Y-70080000D03*
X177380000Y-70080000D03*
X174840000Y-72620000D03*
X177380000Y-75160000D03*
X177380000Y-72620000D03*
X179920000Y-75160000D03*
X179920000Y-72620000D03*
X182460000Y-75160000D03*
X182460000Y-72620000D03*
X185000000Y-75160000D03*
X185000000Y-72620000D03*
X187540000Y-75160000D03*
X187540000Y-72620000D03*
X190080000Y-75160000D03*
X190080000Y-72620000D03*
X192620000Y-75160000D03*
X195160000Y-72620000D03*
X192620000Y-72620000D03*
X195160000Y-70080000D03*
X192620000Y-70080000D03*
X195160000Y-67540000D03*
X192620000Y-67540000D03*
X195160000Y-65000000D03*
X192620000Y-65000000D03*
X195160000Y-62460000D03*
X192620000Y-62460000D03*
X195160000Y-59920000D03*
X192620000Y-59920000D03*
X195160000Y-57380000D03*
X192620000Y-54840000D03*
X192620000Y-57380000D03*
X190080000Y-54840000D03*
X190080000Y-57380000D03*
X187540000Y-54840000D03*
X187540000Y-57380000D03*
%TD*%
D11*
%TO.C,C22*%
X89150000Y-91200000D03*
X91650000Y-91200000D03*
%TD*%
%TO.C,C2*%
X42350000Y-88000000D03*
X44850000Y-88000000D03*
%TD*%
D12*
%TO.C,U3*%
X74580000Y-64375000D03*
D13*
X74580000Y-66915000D03*
X74580000Y-69455000D03*
X74580000Y-71995000D03*
X74580000Y-74535000D03*
X74580000Y-77075000D03*
X74580000Y-79615000D03*
X74580000Y-82155000D03*
X74580000Y-84695000D03*
X74580000Y-87235000D03*
X82200000Y-87235000D03*
X82200000Y-84695000D03*
X82200000Y-82155000D03*
X82200000Y-79615000D03*
X82200000Y-77075000D03*
X82200000Y-74535000D03*
X82200000Y-71995000D03*
X82200000Y-69455000D03*
X82200000Y-66915000D03*
X82200000Y-64375000D03*
%TD*%
D11*
%TO.C,C20*%
X131550000Y-61800000D03*
X134050000Y-61800000D03*
%TD*%
D12*
%TO.C,C14*%
X175400000Y-111000000D03*
D11*
X175400000Y-113000000D03*
%TD*%
D21*
%TO.C,SW1*%
X190650000Y-141950000D03*
X184150000Y-141950000D03*
X184150000Y-146450000D03*
X190650000Y-146450000D03*
%TD*%
D14*
%TO.C,J5*%
X35025000Y-35900000D03*
D15*
X35025000Y-38440000D03*
X35025000Y-40980000D03*
X35025000Y-43520000D03*
X35025000Y-46060000D03*
X35025000Y-48600000D03*
X35025000Y-51140000D03*
X35025000Y-53680000D03*
X35025000Y-56220000D03*
X35025000Y-58760000D03*
X35025000Y-61300000D03*
X35025000Y-63840000D03*
X35025000Y-66380000D03*
X35025000Y-68920000D03*
X35025000Y-71460000D03*
X35025000Y-74000000D03*
X35025000Y-76540000D03*
X35025000Y-79080000D03*
X35025000Y-81620000D03*
X35025000Y-84160000D03*
%TD*%
D14*
%TO.C,J4*%
X209975000Y-89100000D03*
D15*
X209975000Y-86560000D03*
X209975000Y-84020000D03*
X209975000Y-81480000D03*
X209975000Y-78940000D03*
X209975000Y-76400000D03*
X209975000Y-73860000D03*
X209975000Y-71320000D03*
X209975000Y-68780000D03*
X209975000Y-66240000D03*
X209975000Y-63700000D03*
X209975000Y-61160000D03*
X209975000Y-58620000D03*
X209975000Y-56080000D03*
X209975000Y-53540000D03*
X209975000Y-51000000D03*
X209975000Y-48460000D03*
X209975000Y-45920000D03*
X209975000Y-43380000D03*
X209975000Y-40840000D03*
%TD*%
D22*
%TO.C,J2*%
X204794700Y-107510000D03*
X204794700Y-132510000D03*
D12*
X204494700Y-125550000D03*
D11*
X204494700Y-122780000D03*
X204494700Y-120010000D03*
X204494700Y-117240000D03*
X204494700Y-114470000D03*
X207334700Y-124165000D03*
X207334700Y-121395000D03*
X207334700Y-118625000D03*
X207334700Y-115855000D03*
%TD*%
D12*
%TO.C,U11*%
X123800000Y-35325000D03*
D13*
X123800000Y-37865000D03*
X123800000Y-40405000D03*
X123800000Y-42945000D03*
X123800000Y-45485000D03*
X123800000Y-48025000D03*
X123800000Y-50565000D03*
X123800000Y-53105000D03*
X131420000Y-53105000D03*
X131420000Y-50565000D03*
X131420000Y-48025000D03*
X131420000Y-45485000D03*
X131420000Y-42945000D03*
X131420000Y-40405000D03*
X131420000Y-37865000D03*
X131420000Y-35325000D03*
%TD*%
D11*
%TO.C,C17*%
X131350000Y-30000000D03*
X133850000Y-30000000D03*
%TD*%
D14*
%TO.C,J8*%
X35000000Y-92360000D03*
D15*
X35000000Y-94900000D03*
X35000000Y-97440000D03*
X35000000Y-99980000D03*
X35000000Y-102520000D03*
X35000000Y-105060000D03*
X35000000Y-107600000D03*
X35000000Y-110140000D03*
X35000000Y-112680000D03*
X35000000Y-115220000D03*
X35000000Y-117760000D03*
X35000000Y-120300000D03*
X35000000Y-122840000D03*
X35000000Y-125380000D03*
X35000000Y-127920000D03*
X35000000Y-130460000D03*
X35000000Y-133000000D03*
X35000000Y-135540000D03*
X35000000Y-138080000D03*
X35000000Y-140620000D03*
%TD*%
D11*
%TO.C,C8*%
X142350000Y-90200000D03*
X144850000Y-90200000D03*
%TD*%
D12*
%TO.C,U16*%
X88800000Y-94800000D03*
D13*
X88800000Y-97340000D03*
X88800000Y-99880000D03*
X88800000Y-102420000D03*
X88800000Y-104960000D03*
X88800000Y-107500000D03*
X88800000Y-110040000D03*
X88800000Y-112580000D03*
X88800000Y-115120000D03*
X88800000Y-117660000D03*
X88800000Y-120200000D03*
X88800000Y-122740000D03*
X88800000Y-125280000D03*
X88800000Y-127820000D03*
X104040000Y-127820000D03*
X104040000Y-125280000D03*
X104040000Y-122740000D03*
X104040000Y-120200000D03*
X104040000Y-117660000D03*
X104040000Y-115120000D03*
X104040000Y-112580000D03*
X104040000Y-110040000D03*
X104040000Y-107500000D03*
X104040000Y-104960000D03*
X104040000Y-102420000D03*
X104040000Y-99880000D03*
X104040000Y-97340000D03*
X104040000Y-94800000D03*
%TD*%
D12*
%TO.C,U6*%
X70400000Y-95250000D03*
D13*
X70400000Y-97790000D03*
X70400000Y-100330000D03*
X70400000Y-102870000D03*
X70400000Y-105410000D03*
X70400000Y-107950000D03*
X70400000Y-110490000D03*
X70400000Y-113030000D03*
X70400000Y-115570000D03*
X70400000Y-118110000D03*
X70400000Y-120650000D03*
X70400000Y-123190000D03*
X70400000Y-125730000D03*
X70400000Y-128270000D03*
X85640000Y-128270000D03*
X85640000Y-125730000D03*
X85640000Y-123190000D03*
X85640000Y-120650000D03*
X85640000Y-118110000D03*
X85640000Y-115570000D03*
X85640000Y-113030000D03*
X85640000Y-110490000D03*
X85640000Y-107950000D03*
X85640000Y-105410000D03*
X85640000Y-102870000D03*
X85640000Y-100330000D03*
X85640000Y-97790000D03*
X85640000Y-95250000D03*
%TD*%
D12*
%TO.C,U4*%
X74600000Y-32960000D03*
D13*
X74600000Y-35500000D03*
X74600000Y-38040000D03*
X74600000Y-40580000D03*
X74600000Y-43120000D03*
X74600000Y-45660000D03*
X74600000Y-48200000D03*
X74600000Y-50740000D03*
X74600000Y-53280000D03*
X74600000Y-55820000D03*
X82220000Y-55820000D03*
X82220000Y-53280000D03*
X82220000Y-50740000D03*
X82220000Y-48200000D03*
X82220000Y-45660000D03*
X82220000Y-43120000D03*
X82220000Y-40580000D03*
X82220000Y-38040000D03*
X82220000Y-35500000D03*
X82220000Y-32960000D03*
%TD*%
D12*
%TO.C,U17*%
X42375000Y-93475000D03*
D13*
X42375000Y-96015000D03*
X42375000Y-98555000D03*
X42375000Y-101095000D03*
X42375000Y-103635000D03*
X42375000Y-106175000D03*
X42375000Y-108715000D03*
X42375000Y-111255000D03*
X42375000Y-113795000D03*
X42375000Y-116335000D03*
X42375000Y-118875000D03*
X42375000Y-121415000D03*
X42375000Y-123955000D03*
X42375000Y-126495000D03*
X42375000Y-129035000D03*
X42375000Y-131575000D03*
X42375000Y-134115000D03*
X42375000Y-136655000D03*
X42375000Y-139195000D03*
X42375000Y-141735000D03*
X57615000Y-141735000D03*
X57615000Y-139195000D03*
X57615000Y-136655000D03*
X57615000Y-134115000D03*
X57615000Y-131575000D03*
X57615000Y-129035000D03*
X57615000Y-126495000D03*
X57615000Y-123955000D03*
X57615000Y-121415000D03*
X57615000Y-118875000D03*
X57615000Y-116335000D03*
X57615000Y-113795000D03*
X57615000Y-111255000D03*
X57615000Y-108715000D03*
X57615000Y-106175000D03*
X57615000Y-103635000D03*
X57615000Y-101095000D03*
X57615000Y-98555000D03*
X57615000Y-96015000D03*
X57615000Y-93475000D03*
%TD*%
D12*
%TO.C,C16*%
X174800000Y-120644900D03*
D11*
X174800000Y-122644900D03*
%TD*%
%TO.C,C3*%
X82350000Y-61200000D03*
X84850000Y-61200000D03*
%TD*%
D16*
%TO.C,R1*%
X166460000Y-137400000D03*
D17*
X171540000Y-137400000D03*
%TD*%
D11*
%TO.C,C7*%
X107350000Y-91200000D03*
X109850000Y-91200000D03*
%TD*%
D23*
%TO.C,Y1*%
X173120000Y-39000000D03*
X178000000Y-39000000D03*
%TD*%
D11*
%TO.C,C11*%
X173000000Y-34000000D03*
X170500000Y-34000000D03*
%TD*%
D14*
%TO.C,J7*%
X91400000Y-140025000D03*
D15*
X88860000Y-140025000D03*
X86320000Y-140025000D03*
X83780000Y-140025000D03*
X81240000Y-140025000D03*
X78700000Y-140025000D03*
X76160000Y-140025000D03*
X73620000Y-140025000D03*
X71080000Y-140025000D03*
X68540000Y-140025000D03*
%TD*%
D12*
%TO.C,U2*%
X42375000Y-35875000D03*
D13*
X42375000Y-38415000D03*
X42375000Y-40955000D03*
X42375000Y-43495000D03*
X42375000Y-46035000D03*
X42375000Y-48575000D03*
X42375000Y-51115000D03*
X42375000Y-53655000D03*
X42375000Y-56195000D03*
X42375000Y-58735000D03*
X42375000Y-61275000D03*
X42375000Y-63815000D03*
X42375000Y-66355000D03*
X42375000Y-68895000D03*
X42375000Y-71435000D03*
X42375000Y-73975000D03*
X42375000Y-76515000D03*
X42375000Y-79055000D03*
X42375000Y-81595000D03*
X42375000Y-84135000D03*
X57615000Y-84135000D03*
X57615000Y-81595000D03*
X57615000Y-79055000D03*
X57615000Y-76515000D03*
X57615000Y-73975000D03*
X57615000Y-71435000D03*
X57615000Y-68895000D03*
X57615000Y-66355000D03*
X57615000Y-63815000D03*
X57615000Y-61275000D03*
X57615000Y-58735000D03*
X57615000Y-56195000D03*
X57615000Y-53655000D03*
X57615000Y-51115000D03*
X57615000Y-48575000D03*
X57615000Y-46035000D03*
X57615000Y-43495000D03*
X57615000Y-40955000D03*
X57615000Y-38415000D03*
X57615000Y-35875000D03*
%TD*%
D12*
%TO.C,U13*%
X94580000Y-65175000D03*
D13*
X94580000Y-67715000D03*
X94580000Y-70255000D03*
X94580000Y-72795000D03*
X94580000Y-75335000D03*
X94580000Y-77875000D03*
X94580000Y-80415000D03*
X102200000Y-80415000D03*
X102200000Y-77875000D03*
X102200000Y-75335000D03*
X102200000Y-72795000D03*
X102200000Y-70255000D03*
X102200000Y-67715000D03*
X102200000Y-65175000D03*
%TD*%
D12*
%TO.C,U15*%
X123580000Y-66060000D03*
D13*
X123580000Y-68600000D03*
X123580000Y-71140000D03*
X123580000Y-73680000D03*
X123580000Y-76220000D03*
X123580000Y-78760000D03*
X123580000Y-81300000D03*
X131200000Y-81300000D03*
X131200000Y-78760000D03*
X131200000Y-76220000D03*
X131200000Y-73680000D03*
X131200000Y-71140000D03*
X131200000Y-68600000D03*
X131200000Y-66060000D03*
%TD*%
D24*
%TO.C,U10*%
X176800000Y-134200000D03*
D25*
X178070000Y-132930000D03*
X179340000Y-134200000D03*
%TD*%
D26*
%TO.C,D1*%
X163725000Y-144200000D03*
D27*
X166265000Y-144200000D03*
%TD*%
D12*
%TO.C,U14*%
X109380000Y-65575000D03*
D13*
X109380000Y-68115000D03*
X109380000Y-70655000D03*
X109380000Y-73195000D03*
X109380000Y-75735000D03*
X109380000Y-78275000D03*
X109380000Y-80815000D03*
X117000000Y-80815000D03*
X117000000Y-78275000D03*
X117000000Y-75735000D03*
X117000000Y-73195000D03*
X117000000Y-70655000D03*
X117000000Y-68115000D03*
X117000000Y-65575000D03*
%TD*%
D12*
%TO.C,U5*%
X94800000Y-35325000D03*
D13*
X94800000Y-37865000D03*
X94800000Y-40405000D03*
X94800000Y-42945000D03*
X94800000Y-45485000D03*
X94800000Y-48025000D03*
X94800000Y-50565000D03*
X94800000Y-53105000D03*
X102420000Y-53105000D03*
X102420000Y-50565000D03*
X102420000Y-48025000D03*
X102420000Y-45485000D03*
X102420000Y-42945000D03*
X102420000Y-40405000D03*
X102420000Y-37865000D03*
X102420000Y-35325000D03*
%TD*%
M02*
